NotoSerifBengali-ExtraLight.ufo
<glyph name="exclam" format="2">
  <advance width="295.3030303030303"/>
  <unicode hex="0021"/>
  <outline>
    <contour>
      <point x="141.8181818181818" y="173.57575757575756" type="line"/>
      <point x="166.6969696969697" y="173.57575757575756" type="line"/>
      <point x="175.84848484848484" y="714.0" type="line"/>
      <point x="131.0909090909091" y="714.0" type="line"/>
    </contour>
    <contour>
      <point x="152.57575757575756" y="-5.424242424242424" type="curve" smooth="yes"/>
      <point x="171.96969696969697" y="-5.424242424242424"/>
      <point x="188.15151515151516" y="5.0606060606060606"/>
      <point x="188.15151515151516" y="40.09090909090909" type="curve" smooth="yes"/>
      <point x="188.15151515151516" y="74.12121212121212"/>
      <point x="171.96969696969697" y="83.81818181818181"/>
      <point x="152.57575757575756" y="83.81818181818181" type="curve" smooth="yes"/>
      <point x="133.75757575757575" y="83.81818181818181"/>
      <point x="117.0" y="74.12121212121212"/>
      <point x="117.0" y="40.09090909090909" type="curve" smooth="yes"/>
      <point x="117.0" y="5.0606060606060606"/>
      <point x="133.75757575757575" y="-5.424242424242424"/>
    </contour>
  </outline>
</glyph>
<glyph name="quotedbl" format="2">
  <advance width="304.3939393939394"/>
  <unicode hex="0022"/>
  <outline>
    <contour>
      <point x="218.36363636363637" y="519.4545454545455" type="line"/>
      <point x="243.24242424242425" y="519.4545454545455" type="line"/>
      <point x="257.06060606060606" y="714.0" type="line"/>
      <point x="202.75757575757575" y="714.0" type="line"/>
    </contour>
    <contour>
      <point x="62.515151515151516" y="519.4545454545455" type="line"/>
      <point x="87.60606060606061" y="519.4545454545455" type="line"/>
      <point x="101.42424242424244" y="714.0" type="line"/>
      <point x="47.333333333333336" y="714.0" type="line"/>
    </contour>
  </outline>
</glyph>
<glyph name="numbersign" format="2">
  <advance width="559.0"/>
  <unicode hex="0023"/>
  <outline>
    <contour>
      <point x="90.24242424242425" y="0.0" type="line"/>
      <point x="124.39393939393939" y="0.0" type="line"/>
      <point x="164.75757575757575" y="216.03030303030303" type="line"/>
      <point x="335.3333333333333" y="216.03030303030303" type="line"/>
      <point x="294.75757575757575" y="0.0" type="line"/>
      <point x="328.90909090909093" y="0.0" type="line"/>
      <point x="369.4848484848485" y="216.03030303030303" type="line"/>
      <point x="501.7878787878788" y="216.03030303030303" type="line"/>
      <point x="501.7878787878788" y="247.3939393939394" type="line"/>
      <point x="375.75757575757575" y="247.3939393939394" type="line"/>
      <point x="417.4848484848485" y="472.6060606060606" type="line"/>
      <point x="534.0" y="472.6060606060606" type="line"/>
      <point x="534.0" y="504.1818181818182" type="line"/>
      <point x="423.75757575757575" y="504.1818181818182" type="line"/>
      <point x="463.3333333333333" y="714.0" type="line"/>
      <point x="429.1818181818182" y="714.0" type="line"/>
      <point x="389.6060606060606" y="504.1818181818182" type="line"/>
      <point x="219.03030303030303" y="504.1818181818182" type="line"/>
      <point x="258.3939393939394" y="714.0" type="line"/>
      <point x="224.24242424242425" y="714.0" type="line"/>
      <point x="184.87878787878788" y="504.1818181818182" type="line"/>
      <point x="57.0" y="504.1818181818182" type="line"/>
      <point x="57.0" y="472.6060606060606" type="line"/>
      <point x="178.8181818181818" y="472.6060606060606" type="line"/>
      <point x="136.66666666666666" y="247.3939393939394" type="line"/>
      <point x="24.78787878787879" y="247.3939393939394" type="line"/>
      <point x="24.78787878787879" y="216.03030303030303" type="line"/>
      <point x="130.6060606060606" y="216.03030303030303" type="line"/>
    </contour>
    <contour>
      <point x="171.24242424242425" y="247.3939393939394" type="line"/>
      <point x="212.96969696969697" y="472.6060606060606" type="line"/>
      <point x="383.54545454545456" y="472.6060606060606" type="line"/>
      <point x="341.8181818181818" y="247.3939393939394" type="line"/>
    </contour>
  </outline>
</glyph>
<glyph name="percent" format="2">
  <advance width="886.3333333333334"/>
  <unicode hex="0025"/>
  <outline>
    <contour>
      <point x="230.06060606060606" y="0.0" type="line"/>
      <point x="268.42424242424244" y="0.0" type="line"/>
      <point x="652.060606060606" y="714.0" type="line"/>
      <point x="613.6969696969697" y="714.0" type="line"/>
    </contour>
    <contour>
      <point x="204.06060606060606" y="280.0" type="curve" smooth="yes"/>
      <point x="309.90909090909093" y="280.0"/>
      <point x="351.8787878787879" y="370.57575757575756"/>
      <point x="351.8787878787879" y="503.0" type="curve"/>
      <point x="351.8787878787879" y="638.5757575757576"/>
      <point x="304.1818181818182" y="724.0"/>
      <point x="205.06060606060606" y="724.0" type="curve" smooth="yes"/>
      <point x="100.51515151515152" y="724.0"/>
      <point x="56.24242424242424" y="637.0"/>
      <point x="56.24242424242424" y="503.0" type="curve" smooth="yes"/>
      <point x="56.24242424242424" y="365.8484848484849"/>
      <point x="99.51515151515152" y="280.0"/>
    </contour>
    <contour>
      <point x="202.4848484848485" y="307.969696969697" type="curve" smooth="yes"/>
      <point x="128.15151515151516" y="307.969696969697"/>
      <point x="95.9090909090909" y="378.3333333333333"/>
      <point x="95.9090909090909" y="503.0" type="curve"/>
      <point x="95.9090909090909" y="612.8484848484849"/>
      <point x="124.0" y="695.8181818181819"/>
      <point x="203.27272727272728" y="695.8181818181819" type="curve" smooth="yes"/>
      <point x="278.6060606060606" y="695.8181818181819"/>
      <point x="312.0" y="629.030303030303"/>
      <point x="312.0" y="503.0" type="curve" smooth="yes"/>
      <point x="312.0" y="388.7878787878788"/>
      <point x="284.1212121212121" y="307.969696969697"/>
    </contour>
    <contour>
      <point x="682.060606060606" y="-10.0" type="curve" smooth="yes"/>
      <point x="787.9090909090909" y="-10.0"/>
      <point x="829.8787878787879" y="80.57575757575758"/>
      <point x="829.8787878787879" y="213.0" type="curve" smooth="yes"/>
      <point x="829.8787878787879" y="348.57575757575756"/>
      <point x="782.1818181818181" y="434.0"/>
      <point x="683.060606060606" y="434.0" type="curve" smooth="yes"/>
      <point x="578.3030303030303" y="434.0"/>
      <point x="534.2424242424242" y="347.0"/>
      <point x="534.2424242424242" y="213.0" type="curve" smooth="yes"/>
      <point x="534.2424242424242" y="75.84848484848484"/>
      <point x="577.5151515151515" y="-10.0"/>
    </contour>
    <contour>
      <point x="680.4848484848485" y="17.96969696969697" type="curve" smooth="yes"/>
      <point x="606.1515151515151" y="17.96969696969697"/>
      <point x="573.9090909090909" y="88.33333333333333"/>
      <point x="573.9090909090909" y="213.0" type="curve" smooth="yes"/>
      <point x="573.9090909090909" y="322.8484848484849"/>
      <point x="602.0" y="405.8181818181818"/>
      <point x="681.4848484848485" y="405.8181818181818" type="curve" smooth="yes"/>
      <point x="756.6060606060606" y="405.8181818181818"/>
      <point x="789.7878787878788" y="339.030303030303"/>
      <point x="789.7878787878788" y="213.0" type="curve" smooth="yes"/>
      <point x="789.7878787878788" y="98.78787878787878"/>
      <point x="762.1212121212121" y="17.96969696969697"/>
    </contour>
  </outline>
</glyph>
<glyph name="quotesingle" format="2">
  <advance width="148.75757575757575"/>
  <unicode hex="0027"/>
  <outline>
    <contour>
      <point x="62.515151515151516" y="519.4545454545455" type="line"/>
      <point x="87.60606060606061" y="519.4545454545455" type="line"/>
      <point x="101.42424242424244" y="714.0" type="line"/>
      <point x="47.333333333333336" y="714.0" type="line"/>
    </contour>
  </outline>
</glyph>
<glyph name="parenleft" format="2">
  <advance width="320.0"/>
  <unicode hex="0028"/>
  <outline>
    <contour>
      <point x="239.87878787878788" y="-116.54545454545455" type="curve"/>
      <point x="239.87878787878788" y="-88.51515151515152" type="line"/>
      <point x="92.42424242424244" y="-16.757575757575758"/>
      <point x="80.36363636363637" y="156.42424242424244"/>
      <point x="80.36363636363637" y="315.42424242424244" type="curve" smooth="yes"/>
      <point x="80.36363636363637" y="474.42424242424244"/>
      <point x="90.06060606060606" y="653.9090909090909"/>
      <point x="239.87878787878788" y="718.1515151515151" type="curve"/>
      <point x="239.87878787878788" y="746.969696969697" type="line"/>
      <point x="96.33333333333333" y="691.939393939394"/>
      <point x="37.93939393939394" y="581.2727272727273"/>
      <point x="37.93939393939394" y="315.42424242424244" type="curve" smooth="yes"/>
      <point x="37.93939393939394" y="50.151515151515156"/>
      <point x="96.33333333333333" y="-59.93939393939394"/>
    </contour>
  </outline>
</glyph>
<glyph name="parenright" format="2">
  <advance width="372.6363636363636"/>
  <unicode hex="0029"/>
  <outline>
    <contour>
      <point x="132.75757575757575" y="-116.54545454545455" type="line"/>
      <point x="276.3030303030303" y="-59.93939393939394"/>
      <point x="334.6969696969697" y="50.151515151515156"/>
      <point x="334.6969696969697" y="315.42424242424244" type="curve" smooth="yes"/>
      <point x="334.6969696969697" y="581.2727272727273"/>
      <point x="276.3030303030303" y="691.939393939394"/>
      <point x="132.75757575757575" y="746.969696969697" type="curve"/>
      <point x="132.75757575757575" y="718.1515151515151" type="line"/>
      <point x="282.57575757575756" y="653.9090909090909"/>
      <point x="291.4848484848485" y="474.42424242424244"/>
      <point x="291.4848484848485" y="315.42424242424244" type="curve" smooth="yes"/>
      <point x="291.4848484848485" y="156.42424242424244"/>
      <point x="280.2121212121212" y="-16.757575757575758"/>
      <point x="132.75757575757575" y="-88.51515151515152" type="curve"/>
    </contour>
  </outline>
</glyph>
<glyph name="asterisk" format="2">
  <advance width="435.27272727272725"/>
  <unicode hex="002A"/>
  <outline>
    <contour>
      <point x="189.3939393939394" y="378.0" type="line"/>
      <point x="242.45454545454544" y="378.0" type="line"/>
      <point x="225.6969696969697" y="550.6060606060606" type="line"/>
      <point x="364.5151515151515" y="463.9090909090909" type="line"/>
      <point x="384.90909090909093" y="508.75757575757575" type="line"/>
      <point x="227.36363636363637" y="569.0" type="line"/>
      <point x="384.90909090909093" y="629.4545454545455" type="line"/>
      <point x="364.5151515151515" y="676.4545454545455" type="line"/>
      <point x="225.6969696969697" y="587.3939393939394" type="line"/>
      <point x="240.66666666666669" y="760.0" type="line"/>
      <point x="189.3939393939394" y="760.0" type="line"/>
      <point x="205.72727272727272" y="588.1818181818181" type="line"/>
      <point x="67.9090909090909" y="678.6666666666666" type="line"/>
      <point x="45.72727272727273" y="630.4545454545455" type="line"/>
      <point x="202.4848484848485" y="569.0" type="line"/>
      <point x="45.72727272727273" y="507.75757575757575" type="line"/>
      <point x="67.9090909090909" y="461.9090909090909" type="line"/>
      <point x="204.72727272727272" y="550.6060606060606" type="line"/>
    </contour>
  </outline>
</glyph>
<glyph name="plus" format="2">
  <advance width="559.0"/>
  <unicode hex="002B"/>
  <outline>
    <contour>
      <point x="261.8181818181818" y="143.0" type="line"/>
      <point x="295.969696969697" y="143.0" type="line"/>
      <point x="295.969696969697" y="340.24242424242425" type="line"/>
      <point x="494.0" y="340.24242424242425" type="line"/>
      <point x="494.0" y="374.1818181818182" type="line"/>
      <point x="295.969696969697" y="374.1818181818182" type="line"/>
      <point x="295.969696969697" y="572.0" type="line"/>
      <point x="261.8181818181818" y="572.0" type="line"/>
      <point x="261.8181818181818" y="374.1818181818182" type="line"/>
      <point x="64.78787878787878" y="374.1818181818182" type="line"/>
      <point x="64.78787878787878" y="340.24242424242425" type="line"/>
      <point x="261.8181818181818" y="340.24242424242425" type="line"/>
    </contour>
  </outline>
</glyph>
<glyph name="comma" format="2">
  <advance width="270.8787878787879"/>
  <unicode hex="002C"/>
  <outline>
    <contour>
      <point x="80.12121212121212" y="-154.0" type="line"/>
      <point x="168.33333333333334" y="-125.51515151515152"/>
      <point x="202.0909090909091" y="-62.33333333333333"/>
      <point x="202.0909090909091" y="8.060606060606062" type="curve" smooth="yes"/>
      <point x="202.0909090909091" y="60.909090909090914"/>
      <point x="176.54545454545456" y="83.81818181818181"/>
      <point x="146.21212121212122" y="83.81818181818181" type="curve" smooth="yes"/>
      <point x="123.60606060606061" y="83.81818181818181"/>
      <point x="111.78787878787878" y="69.12121212121212"/>
      <point x="111.78787878787878" y="47.303030303030305" type="curve" smooth="yes"/>
      <point x="111.78787878787878" y="15.515151515151516"/>
      <point x="163.87878787878788" y="6.757575757575758"/>
      <point x="163.87878787878788" y="-28.515151515151516" type="curve" smooth="yes"/>
      <point x="163.87878787878788" y="-61.0"/>
      <point x="140.3939393939394" y="-110.33333333333333"/>
      <point x="80.12121212121212" y="-128.1818181818182" type="curve"/>
    </contour>
  </outline>
</glyph>
<glyph name="period" format="2">
  <advance width="251.72727272727272"/>
  <unicode hex="002E"/>
  <outline>
    <contour>
      <point x="152.57575757575756" y="-5.424242424242424" type="curve" smooth="yes"/>
      <point x="171.96969696969697" y="-5.424242424242424"/>
      <point x="187.93939393939394" y="5.0606060606060606"/>
      <point x="187.93939393939394" y="40.09090909090909" type="curve" smooth="yes"/>
      <point x="187.93939393939394" y="74.12121212121212"/>
      <point x="171.96969696969697" y="83.81818181818181"/>
      <point x="152.57575757575756" y="83.81818181818181" type="curve" smooth="yes"/>
      <point x="133.75757575757575" y="83.81818181818181"/>
      <point x="117.0" y="74.12121212121212"/>
      <point x="117.0" y="40.09090909090909" type="curve" smooth="yes"/>
      <point x="117.0" y="5.0606060606060606"/>
      <point x="133.75757575757575" y="-5.424242424242424"/>
    </contour>
  </outline>
</glyph>
<glyph name="zero" format="2">
  <advance width="559.0"/>
  <unicode hex="0030"/>
  <outline>
    <contour>
      <point x="280.0" y="-10.0" type="curve" smooth="yes"/>
      <point x="429.1212121212121" y="-10.0"/>
      <point x="502.969696969697" y="117.30303030303031"/>
      <point x="502.969696969697" y="358.0" type="curve" smooth="yes"/>
      <point x="502.969696969697" y="602.060606060606"/>
      <point x="428.3333333333333" y="724.0"/>
      <point x="281.0" y="724.0" type="curve" smooth="yes"/>
      <point x="124.45454545454545" y="724.0"/>
      <point x="56.03030303030303" y="598.9090909090909"/>
      <point x="56.03030303030303" y="359.0" type="curve" smooth="yes"/>
      <point x="56.03030303030303" y="111.0"/>
      <point x="126.03030303030303" y="-10.0"/>
    </contour>
    <contour>
      <point x="279.2121212121212" y="21.151515151515152" type="curve" smooth="yes"/>
      <point x="153.06060606060606" y="21.151515151515152"/>
      <point x="100.15151515151516" y="129.27272727272728"/>
      <point x="100.15151515151516" y="358.0" type="curve" smooth="yes"/>
      <point x="100.15151515151516" y="573.3333333333334"/>
      <point x="145.1818181818182" y="692.8484848484849"/>
      <point x="280.2121212121212" y="692.8484848484849" type="curve" smooth="yes"/>
      <point x="410.8787878787879" y="692.8484848484849"/>
      <point x="458.8484848484849" y="578.8484848484849"/>
      <point x="458.8484848484849" y="358.0" type="curve" smooth="yes"/>
      <point x="458.8484848484849" y="135.57575757575756"/>
      <point x="406.1515151515151" y="21.151515151515152"/>
    </contour>
  </outline>
</glyph>
<glyph name="one" format="2">
  <advance width="559.0"/>
  <unicode hex="0031"/>
  <outline>
    <contour>
      <point x="119.63636363636364" y="0.0" type="line"/>
      <point x="469.1212121212121" y="0.0" type="line"/>
      <point x="469.1212121212121" y="26.242424242424242" type="line"/>
      <point x="380.72727272727275" y="26.242424242424242" type="line" smooth="yes"/>
      <point x="331.7878787878788" y="26.242424242424242"/>
      <point x="319.2121212121212" y="35.24242424242424"/>
      <point x="319.2121212121212" y="109.27272727272728" type="curve" smooth="yes"/>
      <point x="319.2121212121212" y="718.0" type="line"/>
      <point x="289.8787878787879" y="718.0" type="line"/>
      <point x="250.6060606060606" y="678.6060606060606" type="line" smooth="yes"/>
      <point x="194.06060606060606" y="618.5757575757576"/>
      <point x="146.1818181818182" y="586.3939393939394"/>
      <point x="83.33333333333333" y="580.3333333333334" type="curve"/>
      <point x="83.33333333333333" y="564.8787878787879"/>
      <point x="94.0909090909091" y="553.1212121212121"/>
      <point x="119.15151515151516" y="553.1212121212121" type="curve" smooth="yes"/>
      <point x="164.66666666666666" y="553.1212121212121"/>
      <point x="212.12121212121212" y="585.6666666666666"/>
      <point x="275.72727272727275" y="667.3636363636364" type="curve"/>
      <point x="275.72727272727275" y="109.27272727272728" type="line" smooth="yes"/>
      <point x="275.72727272727275" y="35.24242424242424"/>
      <point x="263.1515151515151" y="26.242424242424242"/>
      <point x="214.21212121212122" y="26.242424242424242" type="curve" smooth="yes"/>
      <point x="119.63636363636364" y="26.242424242424242" type="line"/>
    </contour>
  </outline>
</glyph>
<glyph name="two" format="2">
  <advance width="559.0"/>
  <unicode hex="0032"/>
  <outline>
    <contour>
      <point x="57.84848484848485" y="0.0" type="line"/>
      <point x="473.6666666666667" y="0.0" type="line"/>
      <point x="478.6666666666667" y="136.75757575757575" type="line"/>
      <point x="454.0" y="136.75757575757575" type="line"/>
      <point x="451.57575757575756" y="107.72727272727272" type="line" smooth="yes"/>
      <point x="447.3030303030303" y="55.333333333333336"/>
      <point x="439.3939393939394" y="36.66666666666667"/>
      <point x="385.6969696969697" y="36.66666666666667" type="curve" smooth="yes"/>
      <point x="101.12121212121212" y="36.66666666666667" type="line"/>
      <point x="292.1818181818182" y="252.8181818181818" type="line" smooth="yes"/>
      <point x="398.75757575757575" y="373.54545454545456"/>
      <point x="450.5151515151515" y="435.6363636363636"/>
      <point x="450.5151515151515" y="544.3939393939394" type="curve" smooth="yes"/>
      <point x="450.5151515151515" y="639.0909090909091"/>
      <point x="390.8484848484849" y="724.0"/>
      <point x="256.969696969697" y="724.0" type="curve" smooth="yes"/>
      <point x="133.4848484848485" y="724.0"/>
      <point x="75.15151515151516" y="653.6060606060606"/>
      <point x="75.15151515151516" y="599.4545454545455" type="curve" smooth="yes"/>
      <point x="75.15151515151516" y="569.7272727272727"/>
      <point x="90.30303030303031" y="555.7272727272727"/>
      <point x="111.51515151515152" y="555.7272727272727" type="curve"/>
      <point x="111.51515151515152" y="639.4545454545455"/>
      <point x="160.45454545454547" y="693.6969696969697"/>
      <point x="256.969696969697" y="693.6969696969697" type="curve" smooth="yes"/>
      <point x="369.5151515151515" y="693.6969696969697"/>
      <point x="407.030303030303" y="614.3333333333334"/>
      <point x="407.030303030303" y="540.6969696969697" type="curve" smooth="yes"/>
      <point x="407.030303030303" y="442.3939393939394"/>
      <point x="363.93939393939394" y="383.4848484848485"/>
      <point x="252.42424242424244" y="255.75757575757575" type="curve" smooth="yes"/>
      <point x="57.84848484848485" y="32.81818181818182" type="line"/>
    </contour>
  </outline>
</glyph>
<glyph name="three" format="2">
  <advance width="559.0"/>
  <unicode hex="0033"/>
  <outline>
    <contour>
      <point x="252.5151515151515" y="-9.212121212121213" type="curve" smooth="yes"/>
      <point x="370.6666666666667" y="-9.212121212121213"/>
      <point x="474.2121212121212" y="54.81818181818182"/>
      <point x="474.2121212121212" y="191.3939393939394" type="curve" smooth="yes"/>
      <point x="474.2121212121212" y="324.969696969697"/>
      <point x="375.8181818181818" y="369.06060606060606"/>
      <point x="296.3030303030303" y="377.06060606060606" type="curve"/>
      <point x="370.969696969697" y="395.90909090909093"/>
      <point x="449.2121212121212" y="445.8484848484849"/>
      <point x="449.2121212121212" y="557.9090909090909" type="curve" smooth="yes"/>
      <point x="449.2121212121212" y="660.4848484848485"/>
      <point x="377.8181818181818" y="724.0"/>
      <point x="263.6363636363636" y="724.0" type="curve" smooth="yes"/>
      <point x="142.5151515151515" y="724.0"/>
      <point x="84.18181818181819" y="658.3333333333334"/>
      <point x="84.18181818181819" y="601.030303030303" type="curve" smooth="yes"/>
      <point x="84.18181818181819" y="573.6666666666666"/>
      <point x="97.75757575757575" y="559.6666666666666"/>
      <point x="118.96969696969697" y="559.6666666666666" type="curve"/>
      <point x="119.75757575757575" y="641.030303030303"/>
      <point x="169.4848484848485" y="693.6969696969697"/>
      <point x="262.8484848484849" y="693.6969696969697" type="curve" smooth="yes"/>
      <point x="352.45454545454544" y="693.6969696969697"/>
      <point x="405.3030303030303" y="642.969696969697"/>
      <point x="405.3030303030303" y="555.5151515151515" type="curve" smooth="yes"/>
      <point x="405.3030303030303" y="449.4848484848485"/>
      <point x="327.6363636363636" y="388.6969696969697"/>
      <point x="218.36363636363637" y="388.6969696969697" type="curve"/>
      <point x="195.03030303030303" y="388.6969696969697" type="line"/>
      <point x="195.03030303030303" y="358.1818181818182" type="line"/>
      <point x="219.93939393939394" y="358.1818181818182" type="line" smooth="yes"/>
      <point x="361.09090909090907" y="358.1818181818182"/>
      <point x="430.09090909090907" y="297.6666666666667"/>
      <point x="430.09090909090907" y="192.3939393939394" type="curve" smooth="yes"/>
      <point x="430.09090909090907" y="77.9090909090909"/>
      <point x="354.57575757575756" y="21.93939393939394"/>
      <point x="251.15151515151516" y="21.93939393939394" type="curve" smooth="yes"/>
      <point x="142.57575757575756" y="21.93939393939394"/>
      <point x="95.78787878787878" y="71.36363636363636"/>
      <point x="95.78787878787878" y="142.15151515151516" type="curve"/>
      <point x="79.06060606060606" y="142.15151515151516"/>
      <point x="64.3030303030303" y="130.75757575757575"/>
      <point x="64.3030303030303" y="101.78787878787878" type="curve" smooth="yes"/>
      <point x="64.3030303030303" y="46.72727272727273"/>
      <point x="122.0909090909091" y="-9.212121212121213"/>
    </contour>
  </outline>
</glyph>
<glyph name="four" format="2">
  <advance width="559.0"/>
  <unicode hex="0034"/>
  <outline>
    <contour>
      <point x="254.39393939393938" y="0.0" type="line"/>
      <point x="500.24242424242425" y="0.0" type="line"/>
      <point x="500.24242424242425" y="24.666666666666668" type="line"/>
      <point x="466.75757575757575" y="24.666666666666668" type="line" smooth="yes"/>
      <point x="417.8181818181818" y="24.666666666666668"/>
      <point x="405.24242424242425" y="35.24242424242424"/>
      <point x="405.24242424242425" y="109.27272727272728" type="curve" smooth="yes"/>
      <point x="405.24242424242425" y="205.45454545454544" type="line"/>
      <point x="543.4242424242424" y="205.45454545454544" type="line"/>
      <point x="543.4242424242424" y="237.03030303030303" type="line"/>
      <point x="405.24242424242425" y="237.03030303030303" type="line"/>
      <point x="405.24242424242425" y="714.0" type="line"/>
      <point x="363.030303030303" y="714.0" type="line"/>
      <point x="20.151515151515152" y="227.54545454545456" type="line"/>
      <point x="20.151515151515152" y="205.45454545454544" type="line"/>
      <point x="363.6060606060606" y="205.45454545454544" type="line"/>
      <point x="363.6060606060606" y="109.27272727272728" type="line" smooth="yes"/>
      <point x="363.6060606060606" y="35.24242424242424"/>
      <point x="351.030303030303" y="24.666666666666668"/>
      <point x="302.09090909090907" y="24.666666666666668" type="curve" smooth="yes"/>
      <point x="254.39393939393938" y="24.666666666666668" type="line"/>
    </contour>
    <contour>
      <point x="63.0" y="237.03030303030303" type="line"/>
      <point x="253.8181818181818" y="507.3333333333333" type="line" smooth="yes"/>
      <point x="287.06060606060606" y="554.3636363636364"/>
      <point x="353.6666666666667" y="652.4545454545455"/>
      <point x="366.6666666666667" y="676.3030303030303" type="curve"/>
      <point x="364.8181818181818" y="614.3030303030303"/>
      <point x="363.6060606060606" y="504.45454545454544"/>
      <point x="363.6060606060606" y="446.45454545454544" type="curve" smooth="yes"/>
      <point x="363.6060606060606" y="237.03030303030303" type="line"/>
    </contour>
  </outline>
</glyph>
<glyph name="five" format="2">
  <advance width="559.0"/>
  <unicode hex="0035"/>
  <outline>
    <contour>
      <point x="247.15151515151516" y="-10.0" type="curve" smooth="yes"/>
      <point x="393.8484848484849" y="-10.0"/>
      <point x="473.3939393939394" y="83.57575757575758"/>
      <point x="473.3939393939394" y="217.21212121212122" type="curve" smooth="yes"/>
      <point x="473.3939393939394" y="355.06060606060606"/>
      <point x="375.969696969697" y="424.27272727272725"/>
      <point x="261.1515151515151" y="424.27272727272725" type="curve" smooth="yes"/>
      <point x="203.72727272727272" y="424.27272727272725"/>
      <point x="167.3030303030303" y="414.4848484848485"/>
      <point x="137.06060606060606" y="403.54545454545456" type="curve"/>
      <point x="160.78787878787878" y="674.969696969697" type="line"/>
      <point x="356.3636363636364" y="674.969696969697" type="line" smooth="yes"/>
      <point x="408.6060606060606" y="674.969696969697"/>
      <point x="416.6060606060606" y="670.6363636363636"/>
      <point x="419.030303030303" y="622.939393939394" type="curve" smooth="yes"/>
      <point x="420.6666666666667" y="594.5151515151515" type="line"/>
      <point x="445.3333333333333" y="594.5151515151515" type="line"/>
      <point x="441.90909090909093" y="714.0" type="line"/>
      <point x="133.12121212121212" y="714.0" type="line"/>
      <point x="102.69696969696969" y="370.030303030303" type="line"/>
      <point x="119.60606060606061" y="365.3939393939394" type="line"/>
      <point x="153.27272727272728" y="381.9090909090909"/>
      <point x="195.66666666666666" y="392.9090909090909"/>
      <point x="253.63636363636363" y="392.9090909090909" type="curve" smooth="yes"/>
      <point x="355.8787878787879" y="392.9090909090909"/>
      <point x="429.27272727272725" y="334.030303030303"/>
      <point x="429.27272727272725" y="216.42424242424244" type="curve" smooth="yes"/>
      <point x="429.27272727272725" y="92.57575757575758"/>
      <point x="361.969696969697" y="22.212121212121215"/>
      <point x="245.3030303030303" y="22.212121212121215" type="curve" smooth="yes"/>
      <point x="169.8181818181818" y="22.212121212121215"/>
      <point x="101.45454545454545" y="55.18181818181819"/>
      <point x="101.45454545454545" y="131.0909090909091" type="curve"/>
      <point x="83.66666666666667" y="131.0909090909091"/>
      <point x="69.96969696969697" y="120.9090909090909"/>
      <point x="69.96969696969697" y="92.57575757575758" type="curve" smooth="yes"/>
      <point x="69.96969696969697" y="40.484848484848484"/>
      <point x="131.45454545454544" y="-10.0"/>
    </contour>
  </outline>
</glyph>
<glyph name="six" format="2">
  <advance width="559.0"/>
  <unicode hex="0036"/>
  <outline>
    <contour>
      <point x="293.0" y="-10.0" type="curve" smooth="yes"/>
      <point x="425.8484848484849" y="-10.0"/>
      <point x="492.24242424242425" y="84.06060606060606"/>
      <point x="492.24242424242425" y="221.9090909090909" type="curve" smooth="yes"/>
      <point x="492.24242424242425" y="355.42424242424244"/>
      <point x="413.24242424242425" y="428.4848484848485"/>
      <point x="298.3333333333333" y="428.4848484848485" type="curve" smooth="yes"/>
      <point x="222.3030303030303" y="428.4848484848485"/>
      <point x="163.12121212121212" y="395.6060606060606"/>
      <point x="120.66666666666667" y="362.3030303030303" type="curve"/>
      <point x="122.15151515151516" y="591.5454545454545"/>
      <point x="203.0909090909091" y="694.1212121212121"/>
      <point x="321.2121212121212" y="694.1212121212121" type="curve" smooth="yes"/>
      <point x="397.030303030303" y="694.1212121212121"/>
      <point x="433.6363636363636" y="657.0909090909091"/>
      <point x="433.6363636363636" y="582.6363636363636" type="curve"/>
      <point x="455.27272727272725" y="582.6363636363636"/>
      <point x="467.3030303030303" y="598.3333333333334"/>
      <point x="467.3030303030303" y="622.939393939394" type="curve" smooth="yes"/>
      <point x="467.3030303030303" y="672.2121212121212"/>
      <point x="425.1212121212121" y="724.0"/>
      <point x="322.0" y="724.0" type="curve" smooth="yes"/>
      <point x="177.3030303030303" y="724.0"/>
      <point x="76.75757575757575" y="608.3030303030303"/>
      <point x="76.75757575757575" y="342.6666666666667" type="curve" smooth="yes"/>
      <point x="76.75757575757575" y="100.93939393939394"/>
      <point x="160.78787878787878" y="-10.0"/>
    </contour>
    <contour>
      <point x="296.0" y="21.363636363636363" type="curve" smooth="yes"/>
      <point x="180.54545454545456" y="21.363636363636363"/>
      <point x="124.03030303030303" y="125.0"/>
      <point x="120.45454545454545" y="325.0" type="curve"/>
      <point x="152.1818181818182" y="353.0"/>
      <point x="211.36363636363637" y="397.969696969697"/>
      <point x="294.09090909090907" y="397.969696969697" type="curve" smooth="yes"/>
      <point x="397.8787878787879" y="397.969696969697"/>
      <point x="448.54545454545456" y="325.90909090909093"/>
      <point x="448.54545454545456" y="220.57575757575756" type="curve" smooth="yes"/>
      <point x="448.54545454545456" y="98.78787878787878"/>
      <point x="399.3030303030303" y="21.363636363636363"/>
    </contour>
  </outline>
</glyph>
<glyph name="seven" format="2">
  <advance width="559.0"/>
  <unicode hex="0037"/>
  <outline>
    <contour>
      <point x="184.4848484848485" y="0.0" type="line"/>
      <point x="224.03030303030303" y="0.0" type="line"/>
      <point x="496.8181818181818" y="690.5151515151515" type="line"/>
      <point x="496.8181818181818" y="714.0" type="line"/>
      <point x="64.78787878787878" y="714.0" type="line"/>
      <point x="59.0" y="562.1515151515151" type="line"/>
      <point x="83.66666666666667" y="562.1515151515151" type="line"/>
      <point x="87.66666666666667" y="622.3939393939394" type="line" smooth="yes"/>
      <point x="90.66666666666667" y="668.0"/>
      <point x="103.36363636363636" y="674.969696969697"/>
      <point x="139.36363636363637" y="674.969696969697" type="curve" smooth="yes"/>
      <point x="455.1515151515151" y="674.969696969697" type="line"/>
    </contour>
  </outline>
</glyph>
<glyph name="eight" format="2">
  <advance width="559.0"/>
  <unicode hex="0038"/>
  <outline>
    <contour>
      <point x="275.3636363636364" y="-10.0" type="curve" smooth="yes"/>
      <point x="407.969696969697" y="-10.0"/>
      <point x="494.0909090909091" y="52.96969696969697"/>
      <point x="494.0909090909091" y="169.72727272727272" type="curve" smooth="yes"/>
      <point x="494.0909090909091" y="269.3333333333333"/>
      <point x="442.06060606060606" y="321.030303030303"/>
      <point x="324.93939393939394" y="375.90909090909093" type="curve"/>
      <point x="420.90909090909093" y="418.27272727272725"/>
      <point x="470.969696969697" y="468.72727272727275"/>
      <point x="470.969696969697" y="559.8787878787879" type="curve" smooth="yes"/>
      <point x="470.969696969697" y="652.7878787878788"/>
      <point x="406.8484848484849" y="724.0"/>
      <point x="281.8484848484849" y="724.0" type="curve" smooth="yes"/>
      <point x="164.0909090909091" y="724.0"/>
      <point x="89.48484848484848" y="655.9090909090909"/>
      <point x="89.48484848484848" y="556.8181818181819" type="curve" smooth="yes"/>
      <point x="89.48484848484848" y="462.57575757575756"/>
      <point x="148.0" y="416.030303030303"/>
      <point x="238.1818181818182" y="373.030303030303" type="curve"/>
      <point x="131.4848484848485" y="331.030303030303"/>
      <point x="64.9090909090909" y="271.8484848484849"/>
      <point x="64.9090909090909" y="171.12121212121212" type="curve" smooth="yes"/>
      <point x="64.9090909090909" y="60.60606060606061"/>
      <point x="134.8181818181818" y="-10.0"/>
    </contour>
    <contour>
      <point x="277.2121212121212" y="19.454545454545457" type="curve" smooth="yes"/>
      <point x="164.57575757575756" y="19.454545454545457"/>
      <point x="107.54545454545455" y="75.45454545454545"/>
      <point x="107.54545454545455" y="170.27272727272728" type="curve" smooth="yes"/>
      <point x="107.54545454545455" y="253.15151515151516"/>
      <point x="164.0909090909091" y="320.54545454545456"/>
      <point x="275.93939393939394" y="356.9090909090909" type="curve"/>
      <point x="418.3333333333333" y="296.969696969697"/>
      <point x="452.72727272727275" y="243.3030303030303"/>
      <point x="452.72727272727275" y="165.06060606060606" type="curve" smooth="yes"/>
      <point x="452.72727272727275" y="68.36363636363636"/>
      <point x="382.3333333333333" y="19.454545454545457"/>
    </contour>
    <contour>
      <point x="287.75757575757575" y="391.030303030303" type="curve"/>
      <point x="185.36363636363637" y="435.969696969697"/>
      <point x="131.4848484848485" y="472.3939393939394"/>
      <point x="131.4848484848485" y="559.3636363636364" type="curve" smooth="yes"/>
      <point x="131.4848484848485" y="641.7575757575758"/>
      <point x="189.03030303030303" y="694.3333333333334"/>
      <point x="281.3636363636364" y="694.3333333333334" type="curve" smooth="yes"/>
      <point x="389.7878787878788" y="694.3333333333334"/>
      <point x="430.030303030303" y="627.6060606060606"/>
      <point x="430.030303030303" y="560.3030303030303" type="curve" smooth="yes"/>
      <point x="430.030303030303" y="479.27272727272725"/>
      <point x="390.3333333333333" y="430.3939393939394"/>
    </contour>
  </outline>
</glyph>
<glyph name="nine" format="2">
  <advance width="559.0"/>
  <unicode hex="0039"/>
  <outline>
    <contour>
      <point x="227.0" y="-11.0" type="curve"/>
      <point x="409.969696969697" y="-11.0"/>
      <point x="482.24242424242425" y="135.45454545454544"/>
      <point x="482.24242424242425" y="388.0" type="curve" smooth="yes"/>
      <point x="482.24242424242425" y="613.5454545454545"/>
      <point x="400.0" y="724.0"/>
      <point x="261.8484848484849" y="724.0" type="curve" smooth="yes"/>
      <point x="133.36363636363637" y="724.0"/>
      <point x="66.75757575757575" y="625.939393939394"/>
      <point x="66.75757575757575" y="490.6060606060606" type="curve" smooth="yes"/>
      <point x="66.75757575757575" y="367.42424242424244"/>
      <point x="132.78787878787878" y="284.45454545454544"/>
      <point x="265.3333333333333" y="284.45454545454544" type="curve" smooth="yes"/>
      <point x="350.3030303030303" y="284.45454545454544"/>
      <point x="401.45454545454544" y="320.6060606060606"/>
      <point x="438.3333333333333" y="354.8181818181818" type="curve"/>
      <point x="436.8484848484849" y="137.27272727272728"/>
      <point x="368.1515151515151" y="20.363636363636363"/>
      <point x="233.5151515151515" y="20.363636363636363" type="curve" smooth="yes"/>
      <point x="171.3030303030303" y="20.363636363636363"/>
      <point x="133.93939393939394" y="43.18181818181819"/>
      <point x="112.0" y="89.12121212121212" type="curve"/>
      <point x="104.0909090909091" y="85.69696969696969"/>
      <point x="98.54545454545455" y="76.36363636363636"/>
      <point x="98.54545454545455" y="63.18181818181818" type="curve" smooth="yes"/>
      <point x="98.54545454545455" y="29.848484848484848"/>
      <point x="135.27272727272728" y="-11.0"/>
    </contour>
    <contour>
      <point x="266.8484848484849" y="316.6666666666667" type="curve" smooth="yes"/>
      <point x="164.63636363636363" y="316.6666666666667"/>
      <point x="110.66666666666667" y="382.72727272727275"/>
      <point x="110.66666666666667" y="492.72727272727275" type="curve" smooth="yes"/>
      <point x="110.66666666666667" y="605.0"/>
      <point x="154.8181818181818" y="692.6363636363636"/>
      <point x="261.8484848484849" y="692.6363636363636" type="curve" smooth="yes"/>
      <point x="375.8787878787879" y="692.6363636363636"/>
      <point x="437.9090909090909" y="589.8484848484849"/>
      <point x="438.54545454545456" y="394.5151515151515" type="curve"/>
      <point x="396.9090909090909" y="351.5151515151515"/>
      <point x="349.1818181818182" y="316.6666666666667"/>
    </contour>
  </outline>
</glyph>
<glyph name="colon" format="2">
  <advance width="251.72727272727272"/>
  <unicode hex="003A"/>
  <outline>
    <contour>
      <point x="152.57575757575756" y="427.6969696969697" type="curve" smooth="yes"/>
      <point x="171.96969696969697" y="427.6969696969697"/>
      <point x="187.93939393939394" y="438.1818181818182"/>
      <point x="187.93939393939394" y="473.0" type="curve" smooth="yes"/>
      <point x="187.93939393939394" y="507.24242424242425"/>
      <point x="171.96969696969697" y="516.7272727272727"/>
      <point x="152.57575757575756" y="516.7272727272727" type="curve" smooth="yes"/>
      <point x="133.75757575757575" y="516.7272727272727"/>
      <point x="117.0" y="507.24242424242425"/>
      <point x="117.0" y="473.0" type="curve" smooth="yes"/>
      <point x="117.0" y="438.1818181818182"/>
      <point x="133.75757575757575" y="427.6969696969697"/>
    </contour>
    <contour>
      <point x="152.57575757575756" y="-5.424242424242424" type="curve" smooth="yes"/>
      <point x="171.96969696969697" y="-5.424242424242424"/>
      <point x="187.93939393939394" y="5.0606060606060606"/>
      <point x="187.93939393939394" y="40.09090909090909" type="curve" smooth="yes"/>
      <point x="187.93939393939394" y="74.12121212121212"/>
      <point x="171.96969696969697" y="83.81818181818181"/>
      <point x="152.57575757575756" y="83.81818181818181" type="curve" smooth="yes"/>
      <point x="133.75757575757575" y="83.81818181818181"/>
      <point x="117.0" y="74.12121212121212"/>
      <point x="117.0" y="40.09090909090909" type="curve" smooth="yes"/>
      <point x="117.0" y="5.0606060606060606"/>
      <point x="133.75757575757575" y="-5.424242424242424"/>
    </contour>
  </outline>
</glyph>
<glyph name="semicolon" format="2">
  <advance width="285.8181818181818"/>
  <unicode hex="003B"/>
  <outline>
    <contour>
      <point x="80.12121212121212" y="-154.0" type="line"/>
      <point x="168.33333333333334" y="-125.51515151515152"/>
      <point x="202.0909090909091" y="-62.33333333333333"/>
      <point x="202.0909090909091" y="8.060606060606062" type="curve" smooth="yes"/>
      <point x="202.0909090909091" y="60.909090909090914"/>
      <point x="175.75757575757575" y="83.81818181818181"/>
      <point x="146.0" y="83.81818181818181" type="curve" smooth="yes"/>
      <point x="123.60606060606061" y="83.81818181818181"/>
      <point x="111.78787878787878" y="69.12121212121212"/>
      <point x="111.78787878787878" y="47.303030303030305" type="curve" smooth="yes"/>
      <point x="111.78787878787878" y="15.515151515151516"/>
      <point x="163.87878787878788" y="6.757575757575758"/>
      <point x="163.87878787878788" y="-28.515151515151516" type="curve"/>
      <point x="163.87878787878788" y="-61.0"/>
      <point x="140.1818181818182" y="-110.33333333333333"/>
      <point x="80.12121212121212" y="-128.1818181818182" type="curve"/>
    </contour>
    <contour>
      <point x="153.42424242424244" y="427.6969696969697" type="curve" smooth="yes"/>
      <point x="172.8181818181818" y="427.6969696969697"/>
      <point x="189.0" y="438.1818181818182"/>
      <point x="189.0" y="473.0" type="curve" smooth="yes"/>
      <point x="189.0" y="507.24242424242425"/>
      <point x="172.8181818181818" y="516.7272727272727"/>
      <point x="153.42424242424244" y="516.7272727272727" type="curve" smooth="yes"/>
      <point x="134.6060606060606" y="516.7272727272727"/>
      <point x="118.06060606060606" y="507.24242424242425"/>
      <point x="118.06060606060606" y="473.0" type="curve" smooth="yes"/>
      <point x="118.06060606060606" y="438.1818181818182"/>
      <point x="134.6060606060606" y="427.6969696969697"/>
    </contour>
  </outline>
</glyph>
<glyph name="equal" format="2">
  <advance width="559.0"/>
  <unicode hex="003D"/>
  <outline>
    <contour>
      <point x="66.57575757575758" y="446.1212121212121" type="line"/>
      <point x="490.8484848484849" y="446.1212121212121" type="line"/>
      <point x="490.8484848484849" y="480.06060606060606" type="line"/>
      <point x="66.57575757575758" y="480.06060606060606" type="line"/>
    </contour>
    <contour>
      <point x="66.57575757575758" y="233.72727272727272" type="line"/>
      <point x="490.8484848484849" y="233.72727272727272" type="line"/>
      <point x="490.8484848484849" y="267.8787878787879" type="line"/>
      <point x="66.57575757575758" y="267.8787878787879" type="line"/>
    </contour>
  </outline>
</glyph>
<glyph name="greater" format="2">
  <advance width="559.0"/>
  <unicode hex="003E"/>
  <outline>
    <contour>
      <point x="65.0" y="116.51515151515152" type="line"/>
      <point x="494.0" y="343.1515151515151" type="line"/>
      <point x="494.0" y="371.8484848484849" type="line"/>
      <point x="65.0" y="599.4848484848485" type="line"/>
      <point x="65.0" y="561.6969696969697" type="line"/>
      <point x="448.75757575757575" y="357.0" type="line"/>
      <point x="65.0" y="154.3030303030303" type="line"/>
    </contour>
  </outline>
</glyph>
<glyph name="question" format="2">
  <advance width="428.1515151515151"/>
  <unicode hex="003F"/>
  <outline>
    <contour>
      <point x="183.21212121212122" y="174.21212121212122" type="line"/>
      <point x="213.4848484848485" y="174.21212121212122" type="line"/>
      <point x="215.84848484848484" y="321.09090909090907" type="line"/>
      <point x="328.030303030303" y="372.8787878787879"/>
      <point x="387.0" y="439.3030303030303"/>
      <point x="387.0" y="549.3030303030303" type="curve" smooth="yes"/>
      <point x="387.0" y="651.4848484848485"/>
      <point x="315.27272727272725" y="724.0"/>
      <point x="203.45454545454547" y="724.0" type="curve" smooth="yes"/>
      <point x="76.03030303030303" y="724.0"/>
      <point x="34.57575757575758" y="652.3636363636364"/>
      <point x="34.57575757575758" y="611.2121212121212" type="curve" smooth="yes"/>
      <point x="34.57575757575758" y="580.8181818181819"/>
      <point x="48.303030303030305" y="564.3333333333334"/>
      <point x="69.51515151515152" y="564.3333333333334" type="curve"/>
      <point x="69.51515151515152" y="626.2424242424242"/>
      <point x="101.66666666666667" y="693.9090909090909"/>
      <point x="206.72727272727272" y="693.9090909090909" type="curve" smooth="yes"/>
      <point x="293.1818181818182" y="693.9090909090909"/>
      <point x="343.3030303030303" y="636.0909090909091"/>
      <point x="343.3030303030303" y="552.9090909090909" type="curve" smooth="yes"/>
      <point x="343.3030303030303" y="454.7878787878788"/>
      <point x="293.6969696969697" y="391.3333333333333"/>
      <point x="180.84848484848484" y="340.3939393939394" type="curve"/>
    </contour>
    <contour>
      <point x="197.24242424242425" y="-5.424242424242424" type="curve" smooth="yes"/>
      <point x="217.06060606060606" y="-5.424242424242424"/>
      <point x="233.45454545454544" y="5.272727272727273"/>
      <point x="233.45454545454544" y="40.515151515151516" type="curve" smooth="yes"/>
      <point x="233.45454545454544" y="75.18181818181819"/>
      <point x="217.06060606060606" y="84.87878787878788"/>
      <point x="197.24242424242425" y="84.87878787878788" type="curve" smooth="yes"/>
      <point x="178.0" y="84.87878787878788"/>
      <point x="161.03030303030303" y="75.18181818181819"/>
      <point x="161.03030303030303" y="40.515151515151516" type="curve" smooth="yes"/>
      <point x="161.03030303030303" y="5.272727272727273"/>
      <point x="178.0" y="-5.424242424242424"/>
    </contour>
  </outline>
</glyph>
<glyph name="bracketleft" format="2">
  <advance width="271.33333333333337"/>
  <unicode hex="005B"/>
  <outline>
    <contour>
      <point x="63.0" y="-128.0" type="line"/>
      <point x="231.15151515151516" y="-128.0" type="line"/>
      <point x="231.15151515151516" y="-103.75757575757575" type="line"/>
      <point x="165.24242424242425" y="-103.75757575757575" type="line" smooth="yes"/>
      <point x="116.30303030303031" y="-103.75757575757575"/>
      <point x="104.57575757575758" y="-93.18181818181819"/>
      <point x="104.57575757575758" y="-18.939393939393938" type="curve" smooth="yes"/>
      <point x="104.57575757575758" y="650.7272727272727" type="line" smooth="yes"/>
      <point x="104.57575757575758" y="725.1818181818181"/>
      <point x="116.30303030303031" y="735.7575757575758"/>
      <point x="165.24242424242425" y="735.7575757575758" type="curve" smooth="yes"/>
      <point x="231.15151515151516" y="735.7575757575758" type="line"/>
      <point x="231.15151515151516" y="760.0" type="line"/>
      <point x="63.0" y="760.0" type="line"/>
    </contour>
  </outline>
</glyph>
<glyph name="bracketright" format="2">
  <advance width="354.969696969697"/>
  <unicode hex="005D"/>
  <outline>
    <contour>
      <point x="123.81818181818181" y="-128.0" type="line"/>
      <point x="291.75757575757575" y="-128.0" type="line"/>
      <point x="291.75757575757575" y="760.0" type="line"/>
      <point x="123.81818181818181" y="760.0" type="line"/>
      <point x="123.81818181818181" y="735.7575757575758" type="line"/>
      <point x="189.5151515151515" y="735.7575757575758" type="line" smooth="yes"/>
      <point x="238.66666666666666" y="735.7575757575758"/>
      <point x="250.3939393939394" y="725.1818181818181"/>
      <point x="250.3939393939394" y="650.7272727272727" type="curve" smooth="yes"/>
      <point x="250.3939393939394" y="-18.939393939393938" type="line" smooth="yes"/>
      <point x="250.3939393939394" y="-93.18181818181819"/>
      <point x="238.66666666666666" y="-103.75757575757575"/>
      <point x="189.5151515151515" y="-103.75757575757575" type="curve" smooth="yes"/>
      <point x="123.81818181818181" y="-103.75757575757575" type="line"/>
    </contour>
  </outline>
</glyph>
<glyph name="asciicircum" format="2">
  <advance width="559.0"/>
  <unicode hex="005E"/>
  <outline>
    <contour>
      <point x="55.72727272727273" y="270.93939393939394" type="line"/>
      <point x="93.72727272727272" y="270.93939393939394" type="line"/>
      <point x="278.0" y="668.1818181818181" type="line"/>
      <point x="464.27272727272725" y="270.93939393939394" type="line"/>
      <point x="502.06060606060606" y="270.93939393939394" type="line"/>
      <point x="291.06060606060606" y="714.0" type="line"/>
      <point x="264.3636363636364" y="714.0" type="line"/>
    </contour>
  </outline>
</glyph>
<glyph name="braceleft" format="2">
  <advance width="347.3030303030303"/>
  <unicode hex="007B"/>
  <outline>
    <contour>
      <point x="248.27272727272728" y="-131.15151515151516" type="curve" smooth="yes"/>
      <point x="285.06060606060606" y="-131.15151515151516" type="line"/>
      <point x="285.06060606060606" y="-102.75757575757575" type="line"/>
      <point x="255.06060606060606" y="-102.75757575757575" type="line" smooth="yes"/>
      <point x="197.63636363636363" y="-102.75757575757575"/>
      <point x="173.06060606060606" y="-64.18181818181819"/>
      <point x="173.06060606060606" y="8.757575757575758" type="curve" smooth="yes"/>
      <point x="173.06060606060606" y="188.06060606060606" type="line" smooth="yes"/>
      <point x="173.06060606060606" y="259.0"/>
      <point x="138.06060606060606" y="306.57575757575756"/>
      <point x="75.0909090909091" y="315.42424242424244" type="curve"/>
      <point x="75.0909090909091" y="317.2121212121212" type="line"/>
      <point x="136.84848484848484" y="325.27272727272725"/>
      <point x="173.06060606060606" y="373.42424242424244"/>
      <point x="173.06060606060606" y="442.57575757575756" type="curve" smooth="yes"/>
      <point x="173.06060606060606" y="618.5151515151515" type="line" smooth="yes"/>
      <point x="173.06060606060606" y="694.030303030303"/>
      <point x="197.63636363636363" y="731.6060606060606"/>
      <point x="259.2121212121212" y="731.6060606060606" type="curve" smooth="yes"/>
      <point x="285.06060606060606" y="731.6060606060606" type="line"/>
      <point x="285.06060606060606" y="760.0" type="line"/>
      <point x="248.27272727272728" y="760.0" type="line" smooth="yes"/>
      <point x="172.8181818181818" y="760.0"/>
      <point x="130.9090909090909" y="709.5757575757576"/>
      <point x="130.9090909090909" y="620.3636363636364" type="curve" smooth="yes"/>
      <point x="130.9090909090909" y="444.57575757575756" type="line" smooth="yes"/>
      <point x="130.9090909090909" y="357.06060606060606"/>
      <point x="79.6969696969697" y="328.54545454545456"/>
      <point x="12.121212121212121" y="326.54545454545456" type="curve"/>
      <point x="12.121212121212121" y="304.09090909090907" type="line"/>
      <point x="79.6969696969697" y="301.09090909090907"/>
      <point x="130.9090909090909" y="273.57575757575756"/>
      <point x="130.9090909090909" y="185.06060606060606" type="curve" smooth="yes"/>
      <point x="130.9090909090909" y="9.484848484848484" type="line" smooth="yes"/>
      <point x="130.9090909090909" y="-76.72727272727272"/>
      <point x="172.8181818181818" y="-131.15151515151516"/>
    </contour>
  </outline>
</glyph>
<glyph name="braceright" format="2">
  <advance width="408.0909090909091"/>
  <unicode hex="007D"/>
  <outline>
    <contour>
      <point x="123.81818181818181" y="-131.15151515151516" type="line"/>
      <point x="160.8181818181818" y="-131.15151515151516" type="line" smooth="yes"/>
      <point x="235.4848484848485" y="-131.15151515151516"/>
      <point x="277.1818181818182" y="-76.72727272727272"/>
      <point x="277.1818181818182" y="9.484848484848484" type="curve" smooth="yes"/>
      <point x="277.1818181818182" y="185.06060606060606" type="line" smooth="yes"/>
      <point x="277.1818181818182" y="273.57575757575756"/>
      <point x="329.3939393939394" y="301.09090909090907"/>
      <point x="396.969696969697" y="304.09090909090907" type="curve"/>
      <point x="396.969696969697" y="326.54545454545456" type="line"/>
      <point x="329.3939393939394" y="328.54545454545456"/>
      <point x="277.1818181818182" y="357.06060606060606"/>
      <point x="277.1818181818182" y="444.57575757575756" type="curve" smooth="yes"/>
      <point x="277.1818181818182" y="620.3636363636364" type="line" smooth="yes"/>
      <point x="277.1818181818182" y="709.5757575757576"/>
      <point x="235.4848484848485" y="760.0"/>
      <point x="160.8181818181818" y="760.0" type="curve" smooth="yes"/>
      <point x="123.81818181818181" y="760.0" type="line"/>
      <point x="123.81818181818181" y="731.6060606060606" type="line"/>
      <point x="149.87878787878788" y="731.6060606060606" type="line" smooth="yes"/>
      <point x="211.45454545454544" y="731.6060606060606"/>
      <point x="236.03030303030303" y="694.030303030303"/>
      <point x="236.03030303030303" y="618.5151515151515" type="curve" smooth="yes"/>
      <point x="236.03030303030303" y="442.57575757575756" type="line" smooth="yes"/>
      <point x="236.03030303030303" y="373.42424242424244"/>
      <point x="272.24242424242425" y="325.27272727272725"/>
      <point x="333.2121212121212" y="317.2121212121212" type="curve"/>
      <point x="333.2121212121212" y="315.42424242424244" type="line"/>
      <point x="270.8181818181818" y="306.57575757575756"/>
      <point x="236.03030303030303" y="259.0"/>
      <point x="236.03030303030303" y="188.06060606060606" type="curve" smooth="yes"/>
      <point x="236.03030303030303" y="8.757575757575758" type="line" smooth="yes"/>
      <point x="236.03030303030303" y="-64.18181818181819"/>
      <point x="211.45454545454544" y="-102.75757575757575"/>
      <point x="154.03030303030303" y="-102.75757575757575" type="curve" smooth="yes"/>
      <point x="123.81818181818181" y="-102.75757575757575" type="line"/>
    </contour>
  </outline>
</glyph>
<glyph name="asciitilde" format="2">
  <advance width="559.0"/>
  <unicode hex="007E"/>
  <outline>
    <contour>
      <point x="62.09090909090909" y="275.5151515151515" type="curve"/>
      <point x="97.60606060606061" y="275.5151515151515" type="line"/>
      <point x="112.6969696969697" y="360.030303030303"/>
      <point x="126.54545454545455" y="403.54545454545456"/>
      <point x="173.42424242424244" y="403.54545454545456" type="curve" smooth="yes"/>
      <point x="217.45454545454544" y="403.54545454545456"/>
      <point x="246.3939393939394" y="365.93939393939394"/>
      <point x="274.24242424242425" y="337.72727272727275" type="curve" smooth="yes"/>
      <point x="308.09090909090907" y="302.72727272727275"/>
      <point x="343.09090909090907" y="275.5151515151515"/>
      <point x="385.1515151515151" y="275.5151515151515" type="curve" smooth="yes"/>
      <point x="468.6969696969697" y="275.5151515151515"/>
      <point x="485.54545454545456" y="379.72727272727275"/>
      <point x="495.90909090909093" y="437.4848484848485" type="curve"/>
      <point x="459.3939393939394" y="437.4848484848485" type="line"/>
      <point x="444.6666666666667" y="370.0"/>
      <point x="433.8181818181818" y="309.45454545454544"/>
      <point x="385.3636363636364" y="309.45454545454544" type="curve" smooth="yes"/>
      <point x="353.42424242424244" y="309.45454545454544"/>
      <point x="323.4848484848485" y="336.6060606060606"/>
      <point x="291.3333333333333" y="369.1212121212121" type="curve" smooth="yes"/>
      <point x="254.78787878787878" y="405.6060606060606"/>
      <point x="222.78787878787878" y="437.4848484848485"/>
      <point x="173.42424242424244" y="437.4848484848485" type="curve" smooth="yes"/>
      <point x="87.51515151515152" y="437.4848484848485"/>
      <point x="75.60606060606061" y="342.06060606060606"/>
    </contour>
  </outline>
</glyph>
<glyph name="multiply" format="2">
  <advance width="558.7878787878788"/>
  <unicode hex="00D7"/>
  <outline>
    <contour>
      <point x="89.51515151515152" y="144.27272727272728" type="line"/>
      <point x="279.0" y="332.969696969697" type="line"/>
      <point x="468.4848484848485" y="144.27272727272728" type="line"/>
      <point x="492.72727272727275" y="167.72727272727272" type="line"/>
      <point x="303.24242424242425" y="357.2121212121212" type="line"/>
      <point x="492.72727272727275" y="547.4848484848485" type="line"/>
      <point x="469.27272727272725" y="571.7272727272727" type="line"/>
      <point x="279.0" y="381.24242424242425" type="line"/>
      <point x="89.51515151515152" y="570.7272727272727" type="line"/>
      <point x="66.06060606060606" y="546.6969696969697" type="line"/>
      <point x="255.54545454545453" y="357.42424242424244" type="line"/>
      <point x="66.84848484848484" y="168.72727272727272" type="line"/>
    </contour>
  </outline>
</glyph>
<glyph name="divide" format="2">
  <advance width="559.0"/>
  <unicode hex="00F7"/>
  <outline>
    <contour>
      <point x="65.0" y="340.24242424242425" type="line"/>
      <point x="494.0" y="340.24242424242425" type="line"/>
      <point x="494.0" y="374.1818181818182" type="line"/>
      <point x="65.0" y="374.1818181818182" type="line"/>
    </contour>
    <contour>
      <point x="280.0" y="138.06060606060606" type="curve" smooth="yes"/>
      <point x="303.27272727272725" y="138.06060606060606"/>
      <point x="322.90909090909093" y="149.6969696969697"/>
      <point x="322.90909090909093" y="182.6060606060606" type="curve" smooth="yes"/>
      <point x="322.90909090909093" y="217.3030303030303"/>
      <point x="303.27272727272725" y="227.93939393939394"/>
      <point x="280.0" y="227.93939393939394" type="curve" smooth="yes"/>
      <point x="255.72727272727272" y="227.93939393939394"/>
      <point x="237.0909090909091" y="217.3030303030303"/>
      <point x="237.0909090909091" y="182.6060606060606" type="curve" smooth="yes"/>
      <point x="237.0909090909091" y="149.6969696969697"/>
      <point x="255.72727272727272" y="138.06060606060606"/>
    </contour>
    <contour>
      <point x="280.0" y="487.27272727272725" type="curve" smooth="yes"/>
      <point x="303.27272727272725" y="487.27272727272725"/>
      <point x="322.90909090909093" y="498.6969696969697"/>
      <point x="322.90909090909093" y="532.3939393939394" type="curve" smooth="yes"/>
      <point x="322.90909090909093" y="566.3030303030303"/>
      <point x="303.27272727272725" y="576.939393939394"/>
      <point x="280.0" y="576.939393939394" type="curve" smooth="yes"/>
      <point x="255.72727272727272" y="576.939393939394"/>
      <point x="237.0909090909091" y="566.3030303030303"/>
      <point x="237.0909090909091" y="532.3939393939394" type="curve" smooth="yes"/>
      <point x="237.0909090909091" y="498.6969696969697"/>
      <point x="255.72727272727272" y="487.27272727272725"/>
    </contour>
  </outline>
</glyph>
<glyph name="anudatta-deva" format="2">
  <unicode hex="0952"/>
  <anchor x="-299.0" y="346.3636363636364" name="_vedic"/>
  <outline>
    <contour>
      <point x="-503.90909090909093" y="-130.6060606060606" type="line"/>
      <point x="-93.0909090909091" y="-130.6060606060606" type="line"/>
      <point x="-93.0909090909091" y="-103.81818181818181" type="line"/>
      <point x="-503.90909090909093" y="-103.81818181818181" type="line"/>
    </contour>
  </outline>
</glyph>
<glyph name="danda-deva" format="2">
  <advance width="471.09090909090907"/>
  <unicode hex="0964"/>
  <outline>
    <contour>
      <point x="362.3333333333333" y="-12.757575757575758" type="line"/>
      <point x="365.3333333333333" y="-11.757575757575758" type="line"/>
      <point x="365.3333333333333" y="592.8787878787879" type="line"/>
      <point x="338.75757575757575" y="614.1212121212121" type="line"/>
      <point x="335.75757575757575" y="614.1212121212121" type="line"/>
      <point x="335.75757575757575" y="3.4242424242424243" type="line"/>
    </contour>
  </outline>
</glyph>
<glyph name="dbldanda-deva" format="2">
  <advance width="624.5757575757576"/>
  <unicode hex="0965"/>
  <outline>
    <contour>
      <point x="515.8181818181819" y="-12.757575757575758" type="line"/>
      <point x="518.8181818181819" y="-11.757575757575758" type="line"/>
      <point x="518.8181818181819" y="592.8787878787879" type="line"/>
      <point x="492.24242424242425" y="614.1212121212121" type="line"/>
      <point x="489.24242424242425" y="614.1212121212121" type="line"/>
      <point x="489.24242424242425" y="3.4242424242424243" type="line"/>
    </contour>
    <contour>
      <point x="362.3333333333333" y="-12.757575757575758" type="line"/>
      <point x="365.3333333333333" y="-11.757575757575758" type="line"/>
      <point x="365.3333333333333" y="592.8787878787879" type="line"/>
      <point x="338.75757575757575" y="614.1212121212121" type="line"/>
      <point x="335.75757575757575" y="614.1212121212121" type="line"/>
      <point x="335.75757575757575" y="3.4242424242424243" type="line"/>
    </contour>
  </outline>
</glyph>
<glyph name="anji-beng" format="2">
  <advance width="520.3636363636364"/>
  <unicode hex="0980"/>
  <anchor x="269.3636363636364" y="595.2121212121212" name="top"/>
  <outline>
    <contour>
      <point x="419.93939393939394" y="17.333333333333332" type="curve" smooth="yes"/>
      <point x="446.1818181818182" y="17.333333333333332"/>
      <point x="463.030303030303" y="34.666666666666664"/>
      <point x="463.030303030303" y="59.63636363636364" type="curve" smooth="yes"/>
      <point x="463.030303030303" y="87.39393939393939"/>
      <point x="445.1212121212121" y="104.15151515151516"/>
      <point x="419.72727272727275" y="104.15151515151516" type="curve" smooth="yes"/>
      <point x="394.1818181818182" y="104.15151515151516"/>
      <point x="385.1212121212121" y="90.45454545454545"/>
      <point x="382.6969696969697" y="72.6969696969697" type="curve"/>
      <point x="397.3030303030303" y="71.12121212121212" type="line"/>
      <point x="397.3030303030303" y="500.4848484848485" type="line" smooth="yes"/>
      <point x="397.3030303030303" y="571.5454545454545"/>
      <point x="357.8181818181818" y="625.1515151515151"/>
      <point x="270.06060606060606" y="625.1515151515151" type="curve" smooth="yes"/>
      <point x="161.87878787878788" y="625.1515151515151"/>
      <point x="72.87878787878788" y="544.8787878787879"/>
      <point x="72.87878787878788" y="434.8787878787879" type="curve" smooth="yes"/>
      <point x="72.87878787878788" y="340.72727272727275"/>
      <point x="132.72727272727272" y="278.3636363636364"/>
      <point x="214.1818181818182" y="278.3636363636364" type="curve" smooth="yes"/>
      <point x="260.42424242424244" y="278.3636363636364"/>
      <point x="284.6969696969697" y="301.6969696969697"/>
      <point x="284.6969696969697" y="339.45454545454544" type="curve" smooth="yes"/>
      <point x="284.6969696969697" y="373.54545454545456"/>
      <point x="262.93939393939394" y="394.6060606060606"/>
      <point x="229.54545454545456" y="394.6060606060606" type="curve" smooth="yes"/>
      <point x="199.78787878787878" y="394.6060606060606"/>
      <point x="177.45454545454544" y="373.3333333333333"/>
      <point x="177.45454545454544" y="342.72727272727275" type="curve" smooth="yes"/>
      <point x="177.45454545454544" y="324.6363636363636"/>
      <point x="184.96969696969697" y="309.6363636363636"/>
      <point x="194.4848484848485" y="303.2121212121212" type="curve"/>
      <point x="215.06060606060606" y="317.1212121212121" type="line"/>
      <point x="207.42424242424244" y="313.90909090909093"/>
      <point x="199.78787878787878" y="312.90909090909093"/>
      <point x="192.93939393939394" y="312.90909090909093" type="curve" smooth="yes"/>
      <point x="148.27272727272728" y="312.90909090909093"/>
      <point x="105.78787878787878" y="355.7878787878788"/>
      <point x="105.78787878787878" y="423.54545454545456" type="curve" smooth="yes"/>
      <point x="105.78787878787878" y="527.5151515151515"/>
      <point x="192.45454545454544" y="592.8787878787879"/>
      <point x="280.3030303030303" y="592.8787878787879" type="curve" smooth="yes"/>
      <point x="337.3333333333333" y="592.8787878787879"/>
      <point x="367.72727272727275" y="560.8484848484849"/>
      <point x="367.72727272727275" y="498.72727272727275" type="curve" smooth="yes"/>
      <point x="367.72727272727275" y="77.57575757575758" type="line" smooth="yes"/>
      <point x="367.72727272727275" y="40.42424242424242"/>
      <point x="387.6969696969697" y="17.333333333333332"/>
    </contour>
  </outline>
</glyph>
<glyph name="candrabindu-beng" format="2">
  <unicode hex="0981"/>
  <anchor x="0.0" y="622.0" name="_top"/>
  <outline>
    <contour>
      <point x="-18.484848484848484" y="733.6666666666666" type="curve" smooth="yes"/>
      <point x="58.54545454545455" y="733.6666666666666"/>
      <point x="100.6969696969697" y="791.3636363636364"/>
      <point x="115.75757575757575" y="869.5454545454545" type="curve"/>
      <point x="95.15151515151516" y="878.2424242424242" type="line"/>
      <point x="76.0" y="804.6060606060606"/>
      <point x="40.696969696969695" y="766.060606060606"/>
      <point x="-18.333333333333336" y="766.060606060606" type="curve" smooth="yes"/>
      <point x="-76.57575757575758" y="766.060606060606"/>
      <point x="-112.81818181818181" y="804.6060606060606"/>
      <point x="-136.03030303030303" y="878.2424242424242" type="curve"/>
      <point x="-156.42424242424244" y="869.5454545454545" type="line"/>
      <point x="-137.15151515151516" y="791.3636363636364"/>
      <point x="-94.42424242424242" y="733.6666666666666"/>
    </contour>
    <contour>
      <point x="-17.545454545454547" y="836.2727272727273" type="curve" smooth="yes"/>
      <point x="2.9393939393939394" y="836.2727272727273"/>
      <point x="21.0" y="849.1212121212121"/>
      <point x="21.0" y="874.8181818181819" type="curve" smooth="yes"/>
      <point x="21.0" y="899.0909090909091"/>
      <point x="3.7272727272727266" y="914.3636363636364"/>
      <point x="-17.545454545454547" y="914.3636363636364" type="curve" smooth="yes"/>
      <point x="-40.81818181818182" y="914.3636363636364"/>
      <point x="-59.09090909090909" y="899.8787878787879"/>
      <point x="-59.09090909090909" y="874.8181818181819" type="curve" smooth="yes"/>
      <point x="-59.09090909090909" y="849.1212121212121"/>
      <point x="-39.81818181818182" y="836.2727272727273"/>
    </contour>
  </outline>
</glyph>
<glyph name="anusvara-beng" format="2">
  <advance width="405.4848484848485"/>
  <unicode hex="0982"/>
  <anchor x="-186.12121212121212" y="0.0" name="vedic"/>
  <outline>
    <contour>
      <point x="197.8181818181818" y="376.8181818181818" type="curve" smooth="yes"/>
      <point x="272.6666666666667" y="376.8181818181818"/>
      <point x="324.72727272727275" y="430.030303030303"/>
      <point x="324.72727272727275" y="506.45454545454544" type="curve" smooth="yes"/>
      <point x="324.72727272727275" y="575.6666666666666"/>
      <point x="279.09090909090907" y="626.939393939394"/>
      <point x="206.03030303030303" y="626.939393939394" type="curve" smooth="yes"/>
      <point x="132.1818181818182" y="626.939393939394"/>
      <point x="80.33333333333333" y="572.7272727272727"/>
      <point x="80.33333333333333" y="498.3030303030303" type="curve" smooth="yes"/>
      <point x="80.33333333333333" y="430.3030303030303"/>
      <point x="122.96969696969697" y="376.8181818181818"/>
    </contour>
    <contour>
      <point x="185.15151515151516" y="406.1212121212121" type="curve" smooth="yes"/>
      <point x="141.3030303030303" y="406.1212121212121"/>
      <point x="110.48484848484848" y="438.6666666666667"/>
      <point x="110.48484848484848" y="485.09090909090907" type="curve" smooth="yes"/>
      <point x="110.48484848484848" y="544.0909090909091"/>
      <point x="155.45454545454547" y="596.5757575757576"/>
      <point x="220.54545454545456" y="596.5757575757576" type="curve" smooth="yes"/>
      <point x="264.45454545454544" y="596.5757575757576"/>
      <point x="295.0" y="565.969696969697"/>
      <point x="295.0" y="519.1818181818181" type="curve" smooth="yes"/>
      <point x="295.0" y="460.3030303030303"/>
      <point x="250.6060606060606" y="406.1212121212121"/>
    </contour>
    <contour>
      <point x="337.3636363636364" y="-26.96969696969697" type="curve"/>
      <point x="357.27272727272725" y="-15.90909090909091" type="line"/>
      <point x="301.4848484848485" y="103.3030303030303"/>
      <point x="208.3939393939394" y="211.63636363636363"/>
      <point x="111.39393939393939" y="286.90909090909093" type="curve"/>
      <point x="83.63636363636364" y="248.75757575757575" type="line"/>
      <point x="183.63636363636363" y="186.33333333333334"/>
      <point x="277.6060606060606" y="80.51515151515152"/>
    </contour>
  </outline>
</glyph>
<glyph name="visarga-beng" format="2">
  <advance width="406.6363636363636"/>
  <unicode hex="0983"/>
  <anchor x="-186.12121212121212" y="0.0" name="vedic"/>
  <outline>
    <contour>
      <point x="197.8181818181818" y="374.45454545454544" type="curve" smooth="yes"/>
      <point x="273.45454545454544" y="374.45454545454544"/>
      <point x="326.3030303030303" y="427.6666666666667"/>
      <point x="326.3030303030303" y="504.09090909090907" type="curve" smooth="yes"/>
      <point x="326.3030303030303" y="572.5151515151515"/>
      <point x="279.09090909090907" y="623.7878787878788"/>
      <point x="206.8181818181818" y="623.7878787878788" type="curve" smooth="yes"/>
      <point x="132.1818181818182" y="623.7878787878788"/>
      <point x="80.33333333333333" y="569.5757575757576"/>
      <point x="80.33333333333333" y="495.93939393939394" type="curve" smooth="yes"/>
      <point x="80.33333333333333" y="427.93939393939394"/>
      <point x="124.54545454545455" y="374.45454545454544"/>
    </contour>
    <contour>
      <point x="185.15151515151516" y="403.75757575757575" type="curve" smooth="yes"/>
      <point x="141.3030303030303" y="403.75757575757575"/>
      <point x="111.27272727272728" y="436.3030303030303"/>
      <point x="111.27272727272728" y="482.72727272727275" type="curve" smooth="yes"/>
      <point x="111.27272727272728" y="541.7272727272727"/>
      <point x="155.45454545454547" y="594.2121212121212"/>
      <point x="221.33333333333334" y="594.2121212121212" type="curve" smooth="yes"/>
      <point x="265.24242424242425" y="594.2121212121212"/>
      <point x="295.7878787878788" y="562.8181818181819"/>
      <point x="295.7878787878788" y="516.030303030303" type="curve" smooth="yes"/>
      <point x="295.7878787878788" y="457.93939393939394"/>
      <point x="251.39393939393938" y="403.75757575757575"/>
    </contour>
    <contour>
      <point x="197.8181818181818" y="4.484848484848485" type="curve" smooth="yes"/>
      <point x="273.45454545454544" y="4.484848484848485"/>
      <point x="326.3030303030303" y="57.696969696969695"/>
      <point x="326.3030303030303" y="133.9090909090909" type="curve" smooth="yes"/>
      <point x="326.3030303030303" y="202.54545454545456"/>
      <point x="279.09090909090907" y="253.6060606060606"/>
      <point x="206.8181818181818" y="253.6060606060606" type="curve" smooth="yes"/>
      <point x="132.1818181818182" y="253.6060606060606"/>
      <point x="80.33333333333333" y="199.6060606060606"/>
      <point x="80.33333333333333" y="125.75757575757575" type="curve" smooth="yes"/>
      <point x="80.33333333333333" y="57.96969696969697"/>
      <point x="124.54545454545455" y="4.484848484848485"/>
    </contour>
    <contour>
      <point x="185.15151515151516" y="33.57575757575758" type="curve" smooth="yes"/>
      <point x="141.3030303030303" y="33.57575757575758"/>
      <point x="111.27272727272728" y="66.12121212121212"/>
      <point x="111.27272727272728" y="112.54545454545455" type="curve" smooth="yes"/>
      <point x="111.27272727272728" y="171.75757575757575"/>
      <point x="155.45454545454547" y="224.03030303030303"/>
      <point x="221.33333333333334" y="224.03030303030303" type="curve" smooth="yes"/>
      <point x="265.24242424242425" y="224.03030303030303"/>
      <point x="295.7878787878788" y="192.63636363636363"/>
      <point x="295.7878787878788" y="146.06060606060606" type="curve" smooth="yes"/>
      <point x="295.7878787878788" y="87.96969696969697"/>
      <point x="251.39393939393938" y="33.57575757575758"/>
    </contour>
  </outline>
</glyph>
<glyph name="aa-beng" format="2">
  <advance width="972.4545454545455"/>
  <unicode hex="0986"/>
  <anchor x="664.6060606060606" y="-10.242424242424242" name="bottom"/>
  <anchor x="666.969696969697" y="54.24242424242424" name="bottom.rakaar"/>
  <anchor x="666.969696969697" y="7.272727272727273" name="bottom.rvocalic"/>
  <anchor x="654.8484848484849" y="1.2727272727272734" name="bottom.virama"/>
  <anchor x="878.2727272727273" y="595.2121212121212" name="top"/>
  <anchor x="878.2727272727273" y="543.5757575757576" name="topright"/>
  <anchor x="485.72727272727275" y="0.0" name="vedic"/>
  <outline>
    <contour>
      <point x="663.5454545454545" y="-5.121212121212121" type="line"/>
      <point x="666.969696969697" y="-4.121212121212121" type="line"/>
      <point x="666.969696969697" y="595.2121212121212" type="line"/>
      <point x="756.5454545454545" y="595.2121212121212" type="line"/>
      <point x="738.3030303030303" y="622.0" type="line"/>
      <point x="-21.12121212121212" y="622.0" type="line"/>
      <point x="-3.090909090909091" y="595.2121212121212" type="line"/>
      <point x="637.3939393939394" y="595.2121212121212" type="line"/>
      <point x="637.3939393939394" y="48.93939393939394" type="line"/>
      <point x="645.1818181818181" y="52.333333333333336" type="line"/>
      <point x="614.2121212121212" y="132.75757575757575"/>
      <point x="569.1515151515151" y="188.0"/>
      <point x="508.6363636363636" y="233.03030303030303" type="curve"/>
      <point x="497.8787878787879" y="201.75757575757575" type="line"/>
      <point x="562.0909090909091" y="156.3030303030303"/>
      <point x="605.060606060606" y="96.63636363636364"/>
      <point x="641.7575757575758" y="13.757575757575758" type="curve"/>
    </contour>
    <contour>
      <point x="357.8484848484849" y="124.51515151515152" type="curve" smooth="yes"/>
      <point x="464.54545454545456" y="124.51515151515152"/>
      <point x="534.030303030303" y="188.4848484848485"/>
      <point x="537.1818181818181" y="310.8787878787879" type="curve" smooth="yes"/>
      <point x="540.3333333333334" y="434.6363636363636"/>
      <point x="457.93939393939394" y="516.3030303030303"/>
      <point x="347.6363636363636" y="512.3636363636364" type="curve" smooth="yes"/>
      <point x="279.7878787878788" y="510.0"/>
      <point x="249.42424242424244" y="483.09090909090907"/>
      <point x="249.42424242424244" y="438.5151515151515" type="curve" smooth="yes"/>
      <point x="249.42424242424244" y="399.0"/>
      <point x="276.8787878787879" y="373.45454545454544"/>
      <point x="314.1212121212121" y="373.45454545454544" type="curve" smooth="yes"/>
      <point x="354.57575757575756" y="373.45454545454544"/>
      <point x="376.54545454545456" y="404.6363636363636"/>
      <point x="376.54545454545456" y="445.3030303030303" type="curve" smooth="yes"/>
      <point x="376.54545454545456" y="517.4545454545455"/>
      <point x="331.45454545454544" y="570.0"/>
      <point x="293.45454545454544" y="599.060606060606" type="curve"/>
      <point x="238.03030303030303" y="598.6363636363636" type="line"/>
      <point x="307.8181818181818" y="564.4848484848485"/>
      <point x="340.75757575757575" y="515.6969696969697"/>
      <point x="348.6060606060606" y="469.3636363636364" type="curve"/>
      <point x="357.57575757575756" y="472.8484848484849"/>
      <point x="363.6363636363636" y="474.27272727272725"/>
      <point x="373.75757575757575" y="474.27272727272725" type="curve" smooth="yes"/>
      <point x="436.1818181818182" y="474.27272727272725"/>
      <point x="508.6060606060606" y="426.6666666666667"/>
      <point x="508.6060606060606" y="320.5151515151515" type="curve" smooth="yes"/>
      <point x="508.6060606060606" y="218.96969696969697"/>
      <point x="451.09090909090907" y="164.5151515151515"/>
      <point x="352.7878787878788" y="164.5151515151515" type="curve" smooth="yes"/>
      <point x="243.93939393939394" y="164.5151515151515"/>
      <point x="135.87878787878788" y="243.3030303030303"/>
      <point x="61.36363636363636" y="505.3939393939394" type="curve"/>
      <point x="37.484848484848484" y="498.6969696969697" type="line"/>
      <point x="119.69696969696969" y="204.87878787878788"/>
      <point x="240.78787878787878" y="124.51515151515152"/>
    </contour>
    <contour>
      <point x="875.2727272727273" y="-13.181818181818182" type="line"/>
      <point x="878.2727272727273" y="-12.181818181818182" type="line"/>
      <point x="878.2727272727273" y="595.2121212121212" type="line"/>
      <point x="993.5757575757576" y="595.2121212121212" type="line"/>
      <point x="975.1212121212121" y="622.0" type="line"/>
      <point x="878.2727272727273" y="622.0" type="line"/>
      <point x="875.060606060606" y="661.8484848484849" type="line"/>
      <point x="852.6969696969697" y="679.0909090909091" type="line"/>
      <point x="848.6969696969697" y="678.0909090909091" type="line"/>
      <point x="848.6969696969697" y="618.0" type="line" smooth="yes"/>
      <point x="848.6969696969697" y="600.0"/>
      <point x="850.3333333333334" y="564.6969696969697"/>
      <point x="852.7575757575758" y="522.4242424242424" type="curve"/>
      <point x="859.5454545454545" y="521.4848484848485" type="line"/>
      <point x="852.9090909090909" y="605.1212121212121"/>
      <point x="810.1212121212121" y="622.0"/>
      <point x="777.6969696969697" y="622.0" type="curve" smooth="yes"/>
      <point x="729.1515151515151" y="622.0" type="line"/>
      <point x="747.1818181818181" y="595.2121212121212" type="line"/>
      <point x="773.3939393939394" y="595.2121212121212" type="line" smooth="yes"/>
      <point x="816.3333333333334" y="595.2121212121212"/>
      <point x="840.8484848484849" y="566.969696969697"/>
      <point x="848.6969696969697" y="505.09090909090907" type="curve"/>
      <point x="848.6969696969697" y="3.0" type="line"/>
    </contour>
  </outline>
</glyph>
<glyph name="i-beng" format="2">
  <advance width="471.5151515151515"/>
  <unicode hex="0987"/>
  <anchor x="268.93939393939394" y="77.39393939393939" name="bottom"/>
  <anchor x="382.6363636363636" y="-91.30303030303031" name="bottom.rakaar"/>
  <anchor x="308.969696969697" y="97.87878787878788" name="bottom.rvocalic"/>
  <anchor x="237.6969696969697" y="90.0" name="bottom.virama"/>
  <anchor x="268.4848484848485" y="624.0909090909091" name="top"/>
  <anchor x="208.06060606060606" y="633.030303030303" name="topright"/>
  <anchor x="235.36363636363637" y="0.0" name="vedic"/>
  <outline>
    <contour>
      <point x="369.9090909090909" y="616.7272727272727" type="curve"/>
      <point x="394.0" y="616.7272727272727" type="line"/>
      <point x="388.0" y="724.030303030303"/>
      <point x="345.57575757575756" y="776.6363636363636"/>
      <point x="269.1212121212121" y="776.6363636363636" type="curve" smooth="yes"/>
      <point x="219.5151515151515" y="776.6363636363636"/>
      <point x="173.63636363636363" y="764.060606060606"/>
      <point x="116.06060606060606" y="764.060606060606" type="curve" smooth="yes"/>
      <point x="54.21212121212121" y="764.060606060606"/>
      <point x="20.151515151515152" y="788.0909090909091"/>
      <point x="20.151515151515152" y="866.0909090909091" type="curve" smooth="yes"/>
      <point x="20.151515151515152" y="876.8787878787879"/>
      <point x="21.151515151515152" y="889.6666666666666"/>
      <point x="22.939393939393938" y="901.1818181818181" type="curve"/>
      <point x="-0.15151515151515227" y="903.6060606060606" type="line"/>
      <point x="-2.1515151515151523" y="891.9090909090909"/>
      <point x="-3.9393939393939412" y="872.9090909090909"/>
      <point x="-3.9393939393939412" y="857.2727272727273" type="curve" smooth="yes"/>
      <point x="-3.9393939393939412" y="767.2121212121212"/>
      <point x="41.21212121212121" y="727.6969696969697"/>
      <point x="114.57575757575758" y="727.6969696969697" type="curve" smooth="yes"/>
      <point x="175.06060606060606" y="727.6969696969697"/>
      <point x="216.3939393939394" y="740.4848484848485"/>
      <point x="277.030303030303" y="740.4848484848485" type="curve" smooth="yes"/>
      <point x="336.6969696969697" y="740.4848484848485"/>
      <point x="365.3333333333333" y="691.7272727272727"/>
    </contour>
    <component base="ha-beng"/>
  </outline>
</glyph>
<glyph name="ii-beng" format="2">
  <advance width="605.8484848484849"/>
  <unicode hex="0988"/>
  <anchor x="526.7575757575758" y="-27.757575757575758" name="bottom"/>
  <anchor x="526.969696969697" y="70.0" name="bottom.rakaar"/>
  <anchor x="512.0" y="13.848484848484848" name="bottom.rvocalic"/>
  <anchor x="518.3636363636364" y="0.0" name="bottom.virama"/>
  <anchor x="344.93939393939394" y="624.0909090909091" name="top"/>
  <anchor x="298.0909090909091" y="633.030303030303" name="topright"/>
  <anchor x="302.42424242424244" y="0.0" name="vedic"/>
  <outline>
    <contour>
      <point x="504.6666666666667" y="-1.3939393939393945" type="curve"/>
      <point x="526.3333333333334" y="7.9393939393939394" type="line"/>
      <point x="502.3333333333333" y="77.39393939393939"/>
      <point x="487.3939393939394" y="135.1818181818182"/>
      <point x="487.3939393939394" y="224.33333333333331" type="curve" smooth="yes"/>
      <point x="487.3939393939394" y="318.1515151515151"/>
      <point x="509.6060606060606" y="395.2121212121212"/>
      <point x="538.2727272727273" y="441.6363636363636" type="curve"/>
      <point x="499.54545454545456" y="481.030303030303" type="line"/>
      <point x="437.3939393939394" y="444.6666666666667"/>
      <point x="358.3636363636364" y="357.4848484848485"/>
      <point x="295.9090909090909" y="258.3636363636364" type="curve"/>
      <point x="315.42424242424244" y="263.1212121212121" type="line"/>
      <point x="322.93939393939394" y="284.3636363636364"/>
      <point x="338.1212121212121" y="305.72727272727275"/>
      <point x="338.1212121212121" y="353.75757575757575" type="curve" smooth="yes"/>
      <point x="338.1212121212121" y="452.57575757575756"/>
      <point x="274.3030303030303" y="508.7878787878788"/>
      <point x="171.93939393939394" y="508.7878787878788" type="curve" smooth="yes"/>
      <point x="110.84848484848484" y="508.7878787878788"/>
      <point x="76.15151515151516" y="483.6666666666667"/>
      <point x="76.93939393939394" y="441.4848484848485" type="curve" smooth="yes"/>
      <point x="77.72727272727272" y="407.09090909090907"/>
      <point x="100.63636363636364" y="387.6969696969697"/>
      <point x="133.5151515151515" y="387.6969696969697" type="curve" smooth="yes"/>
      <point x="172.6969696969697" y="387.6969696969697"/>
      <point x="192.03030303030303" y="418.1818181818182"/>
      <point x="192.03030303030303" y="458.6363636363636" type="curve" smooth="yes"/>
      <point x="192.03030303030303" y="501.6363636363636"/>
      <point x="164.8181818181818" y="559.7575757575758"/>
      <point x="109.48484848484848" y="599.8484848484849" type="curve"/>
      <point x="56.03030303030303" y="599.8484848484849" type="line"/>
      <point x="111.33333333333333" y="573.969696969697"/>
      <point x="148.45454545454544" y="535.969696969697"/>
      <point x="163.03030303030303" y="482.1818181818182" type="curve"/>
      <point x="139.96969696969697" y="457.06060606060606" type="line"/>
      <point x="160.06060606060606" y="468.1818181818182"/>
      <point x="176.1818181818182" y="474.24242424242425"/>
      <point x="199.84848484848484" y="474.24242424242425" type="curve" smooth="yes"/>
      <point x="266.1212121212121" y="474.24242424242425"/>
      <point x="310.3333333333333" y="429.6666666666667"/>
      <point x="310.3333333333333" y="359.6060606060606" type="curve" smooth="yes"/>
      <point x="310.3333333333333" y="317.1515151515151"/>
      <point x="302.06060606060606" y="280.1515151515151"/>
      <point x="281.06060606060606" y="247.57575757575756" type="curve" smooth="yes"/>
      <point x="256.7878787878788" y="210.3030303030303"/>
      <point x="218.75757575757575" y="177.8181818181818"/>
      <point x="185.75757575757575" y="177.8181818181818" type="curve" smooth="yes"/>
      <point x="139.63636363636363" y="177.8181818181818"/>
      <point x="105.9090909090909" y="229.27272727272728"/>
      <point x="84.42424242424242" y="268.09090909090907" type="curve"/>
      <point x="64.18181818181819" y="258.3939393939394" type="line"/>
      <point x="92.42424242424242" y="199.3030303030303"/>
      <point x="133.9090909090909" y="139.3030303030303"/>
      <point x="194.0" y="139.3030303030303" type="curve" smooth="yes"/>
      <point x="247.63636363636363" y="139.3030303030303"/>
      <point x="286.2121212121212" y="189.12121212121212"/>
      <point x="326.7878787878788" y="245.9090909090909" type="curve" smooth="yes"/>
      <point x="376.4848484848485" y="315.6666666666667"/>
      <point x="457.8787878787879" y="412.9090909090909"/>
      <point x="513.0" y="445.42424242424244" type="curve"/>
      <point x="503.1212121212121" y="450.09090909090907" type="line"/>
      <point x="477.27272727272725" y="413.3030303030303"/>
      <point x="456.1818181818182" y="326.1818181818182"/>
      <point x="456.1818181818182" y="239.75757575757575" type="curve" smooth="yes"/>
      <point x="456.1818181818182" y="155.1818181818182"/>
      <point x="473.6060606060606" y="77.96969696969697"/>
    </contour>
    <contour>
      <point x="-3.090909090909091" y="595.2121212121212" type="line"/>
      <point x="626.969696969697" y="595.2121212121212" type="line"/>
      <point x="608.7272727272727" y="622.0" type="line"/>
      <point x="-21.12121212121212" y="622.0" type="line"/>
    </contour>
    <contour>
      <point x="474.75757575757575" y="616.7272727272727" type="curve"/>
      <point x="499.06060606060606" y="616.7272727272727" type="line"/>
      <point x="488.2121212121212" y="724.030303030303"/>
      <point x="434.8181818181818" y="776.6363636363636"/>
      <point x="353.54545454545456" y="776.6363636363636" type="curve" smooth="yes"/>
      <point x="296.0909090909091" y="776.6363636363636"/>
      <point x="263.54545454545456" y="763.6969696969697"/>
      <point x="195.0909090909091" y="763.6969696969697" type="curve" smooth="yes"/>
      <point x="119.6969696969697" y="763.6969696969697"/>
      <point x="81.27272727272728" y="788.5151515151515"/>
      <point x="81.27272727272728" y="866.7272727272727" type="curve" smooth="yes"/>
      <point x="81.27272727272728" y="876.8787878787879"/>
      <point x="82.06060606060606" y="889.030303030303"/>
      <point x="83.84848484848484" y="901.1818181818181" type="curve"/>
      <point x="60.96969696969697" y="903.6060606060606" type="line"/>
      <point x="57.96969696969697" y="888.7575757575758"/>
      <point x="56.96969696969697" y="871.969696969697"/>
      <point x="56.96969696969697" y="858.3333333333334" type="curve" smooth="yes"/>
      <point x="56.96969696969697" y="766.5757575757576"/>
      <point x="105.72727272727272" y="727.3333333333334"/>
      <point x="192.72727272727272" y="727.3333333333334" type="curve" smooth="yes"/>
      <point x="265.3030303030303" y="727.3333333333334"/>
      <point x="296.3636363636364" y="740.4848484848485"/>
      <point x="364.0" y="740.4848484848485" type="curve" smooth="yes"/>
      <point x="426.7878787878788" y="740.4848484848485"/>
      <point x="466.1212121212121" y="691.7272727272727"/>
    </contour>
  </outline>
</glyph>
<glyph name="u-beng" format="2">
  <advance width="630.6060606060606"/>
  <unicode hex="0989"/>
  <anchor x="449.24242424242425" y="38.72727272727273" name="bottom"/>
  <anchor x="497.24242424242425" y="-21.757575757575758" name="bottom.rakaar"/>
  <anchor x="418.1515151515151" y="79.27272727272728" name="bottom.rvocalic"/>
  <anchor x="380.2121212121212" y="26.606060606060606" name="bottom.virama"/>
  <anchor x="299.06060606060606" y="605.1818181818181" name="top"/>
  <anchor x="289.1212121212121" y="606.2424242424242" name="topright"/>
  <anchor x="315.3030303030303" y="0.0" name="vedic"/>
  <anchor x="334.0" y="-22.60606060606061" name="nukta"/>
  <outline>
    <contour>
      <point x="499.1818181818182" y="616.7272727272727" type="curve"/>
      <point x="523.4848484848485" y="616.7272727272727" type="line"/>
      <point x="512.6363636363636" y="724.030303030303"/>
      <point x="460.8181818181818" y="776.6363636363636"/>
      <point x="377.969696969697" y="776.6363636363636" type="curve" smooth="yes"/>
      <point x="318.1515151515151" y="776.6363636363636"/>
      <point x="280.09090909090907" y="763.6969696969697"/>
      <point x="211.63636363636363" y="763.6969696969697" type="curve" smooth="yes"/>
      <point x="136.24242424242425" y="763.6969696969697"/>
      <point x="97.81818181818181" y="788.5151515151515"/>
      <point x="97.81818181818181" y="866.7272727272727" type="curve" smooth="yes"/>
      <point x="97.81818181818181" y="876.8787878787879"/>
      <point x="98.60606060606061" y="889.030303030303"/>
      <point x="100.39393939393939" y="901.1818181818181" type="curve"/>
      <point x="77.51515151515152" y="903.6060606060606" type="line"/>
      <point x="74.51515151515152" y="888.7575757575758"/>
      <point x="73.51515151515152" y="871.969696969697"/>
      <point x="73.51515151515152" y="858.3333333333334" type="curve" smooth="yes"/>
      <point x="73.51515151515152" y="766.5757575757576"/>
      <point x="122.27272727272728" y="727.3333333333334"/>
      <point x="209.27272727272728" y="727.3333333333334" type="curve" smooth="yes"/>
      <point x="281.8484848484849" y="727.3333333333334"/>
      <point x="318.42424242424244" y="740.4848484848485"/>
      <point x="388.42424242424244" y="740.4848484848485" type="curve" smooth="yes"/>
      <point x="452.7878787878788" y="740.4848484848485"/>
      <point x="490.54545454545456" y="691.7272727272727"/>
    </contour>
    <component base="dda-beng"/>
  </outline>
</glyph>
<glyph name="uu-beng" format="2">
  <advance width="689.8181818181819"/>
  <unicode hex="098A"/>
  <anchor x="509.24242424242425" y="38.72727272727273" name="bottom"/>
  <anchor x="557.2424242424242" y="-21.757575757575758" name="bottom.rakaar"/>
  <anchor x="478.1515151515151" y="79.27272727272728" name="bottom.rvocalic"/>
  <anchor x="440.2121212121212" y="26.606060606060606" name="bottom.virama"/>
  <anchor x="384.75757575757575" y="621.7272727272727" name="top"/>
  <anchor x="357.54545454545456" y="633.030303030303" name="topright"/>
  <anchor x="344.5151515151515" y="0.0" name="vedic"/>
  <outline>
    <contour>
      <point x="423.06060606060606" y="76.78787878787878" type="curve" smooth="yes"/>
      <point x="562.5757575757576" y="76.78787878787878"/>
      <point x="625.3333333333334" y="163.06060606060606"/>
      <point x="625.3333333333334" y="280.9090909090909" type="curve" smooth="yes"/>
      <point x="625.3333333333334" y="363.72727272727275"/>
      <point x="597.6363636363636" y="415.75757575757575"/>
      <point x="563.2727272727273" y="450.2121212121212" type="curve"/>
      <point x="515.6060606060606" y="388.2121212121212"/>
      <point x="449.1515151515151" y="328.7878787878788"/>
      <point x="394.09090909090907" y="328.7878787878788" type="curve" smooth="yes"/>
      <point x="361.27272727272725" y="328.7878787878788"/>
      <point x="345.54545454545456" y="345.0909090909091"/>
      <point x="345.54545454545456" y="371.75757575757575" type="curve" smooth="yes"/>
      <point x="345.54545454545456" y="595.2121212121212" type="line"/>
      <point x="710.939393939394" y="595.2121212121212" type="line"/>
      <point x="692.6969696969697" y="622.0" type="line"/>
      <point x="-21.12121212121212" y="622.0" type="line"/>
      <point x="-2.878787878787879" y="595.2121212121212" type="line"/>
      <point x="315.969696969697" y="595.2121212121212" type="line"/>
      <point x="315.969696969697" y="369.24242424242425" type="line" smooth="yes"/>
      <point x="315.969696969697" y="338.3939393939394"/>
      <point x="328.3333333333333" y="320.27272727272725"/>
      <point x="344.8181818181818" y="308.93939393939394" type="curve" smooth="yes"/>
      <point x="360.45454545454544" y="298.24242424242425"/>
      <point x="378.0" y="293.1212121212121"/>
      <point x="398.75757575757575" y="293.1212121212121" type="curve" smooth="yes"/>
      <point x="458.75757575757575" y="293.1212121212121"/>
      <point x="520.2424242424242" y="337.75757575757575"/>
      <point x="577.6363636363636" y="407.1212121212121" type="curve"/>
      <point x="557.969696969697" y="412.93939393939394" type="line"/>
      <point x="578.6666666666666" y="391.0"/>
      <point x="597.1818181818181" y="355.54545454545456"/>
      <point x="597.1818181818181" y="291.09090909090907" type="curve" smooth="yes"/>
      <point x="597.1818181818181" y="177.93939393939394"/>
      <point x="538.8787878787879" y="117.0"/>
      <point x="431.90909090909093" y="116.36363636363636" type="curve" smooth="yes"/>
      <point x="278.3333333333333" y="115.30303030303031"/>
      <point x="211.36363636363637" y="284.1212121212121"/>
      <point x="159.24242424242425" y="499.6363636363636" type="curve"/>
      <point x="135.36363636363637" y="493.1515151515151" type="line"/>
      <point x="172.6969696969697" y="321.969696969697"/>
      <point x="217.21212121212122" y="189.27272727272728"/>
      <point x="319.1212121212121" y="112.45454545454545" type="curve"/>
      <point x="339.45454545454544" y="119.12121212121212" type="line"/>
      <point x="205.24242424242425" y="146.1818181818182"/>
      <point x="116.15151515151516" y="278.2121212121212"/>
      <point x="58.60606060606061" y="499.6363636363636" type="curve"/>
      <point x="34.72727272727273" y="493.1515151515151" type="line"/>
      <point x="98.9090909090909" y="220.87878787878788"/>
      <point x="210.63636363636363" y="76.78787878787878"/>
    </contour>
    <contour>
      <point x="564.5454545454545" y="616.7272727272727" type="curve"/>
      <point x="588.8484848484849" y="616.7272727272727" type="line"/>
      <point x="578.0" y="724.030303030303"/>
      <point x="530.0" y="777.4848484848485"/>
      <point x="440.27272727272725" y="777.4848484848485" type="curve" smooth="yes"/>
      <point x="368.1818181818182" y="777.4848484848485"/>
      <point x="300.42424242424244" y="757.6969696969697"/>
      <point x="215.42424242424244" y="757.6969696969697" type="curve" smooth="yes"/>
      <point x="134.72727272727272" y="757.6969696969697"/>
      <point x="84.39393939393939" y="788.5151515151515"/>
      <point x="84.39393939393939" y="866.7272727272727" type="curve" smooth="yes"/>
      <point x="84.39393939393939" y="876.8787878787879"/>
      <point x="85.18181818181819" y="889.030303030303"/>
      <point x="86.96969696969697" y="901.1818181818181" type="curve"/>
      <point x="63.878787878787875" y="903.6060606060606" type="line"/>
      <point x="61.09090909090909" y="888.7575757575758"/>
      <point x="60.09090909090909" y="871.969696969697"/>
      <point x="60.09090909090909" y="858.3333333333334" type="curve" smooth="yes"/>
      <point x="60.09090909090909" y="765.3030303030303"/>
      <point x="120.75757575757575" y="721.3333333333334"/>
      <point x="213.06060606060606" y="721.3333333333334" type="curve" smooth="yes"/>
      <point x="303.6060606060606" y="721.3333333333334"/>
      <point x="363.3636363636364" y="741.3333333333334"/>
      <point x="445.6666666666667" y="741.3333333333334" type="curve" smooth="yes"/>
      <point x="520.030303030303" y="741.3333333333334"/>
      <point x="555.9090909090909" y="691.7272727272727"/>
    </contour>
  </outline>
</glyph>
<glyph name="rVocalic-beng" format="2">
  <advance width="680.5454545454545"/>
  <unicode hex="098B"/>
  <anchor x="445.1212121212121" y="-10.242424242424242" name="bottom"/>
  <anchor x="447.4848484848485" y="54.24242424242424" name="bottom.rakaar"/>
  <anchor x="358.8787878787879" y="143.24242424242425" name="bottom.rvocalic"/>
  <anchor x="435.3636363636364" y="1.2727272727272734" name="bottom.virama"/>
  <anchor x="447.4848484848485" y="595.2121212121212" name="top"/>
  <anchor x="450.4848484848485" y="595.2121212121212" name="topright"/>
  <anchor x="340.27272727272725" y="0.0" name="vedic"/>
  <outline>
    <contour>
      <point x="444.06060606060606" y="-5.121212121212121" type="line"/>
      <point x="447.4848484848485" y="-4.121212121212121" type="line"/>
      <point x="447.4848484848485" y="639.2727272727273" type="line"/>
      <point x="421.90909090909093" y="659.0909090909091" type="line"/>
      <point x="417.90909090909093" y="658.0909090909091" type="line"/>
      <point x="417.90909090909093" y="478.969696969697" type="line"/>
      <point x="427.06060606060606" y="495.030303030303" type="line"/>
      <point x="306.45454545454544" y="460.3333333333333"/>
      <point x="190.06060606060606" y="404.09090909090907"/>
      <point x="69.06060606060606" y="317.2121212121212" type="curve"/>
      <point x="88.78787878787878" y="271.1818181818182" type="line"/>
      <point x="238.3939393939394" y="230.87878787878788"/>
      <point x="348.6969696969697" y="145.57575757575756"/>
      <point x="422.27272727272725" y="13.757575757575758" type="curve"/>
    </contour>
    <contour>
      <point x="417.90909090909093" y="41.06060606060606" type="line"/>
      <point x="425.6969696969697" y="52.333333333333336" type="line"/>
      <point x="354.7878787878788" y="181.36363636363637"/>
      <point x="241.72727272727272" y="259.2121212121212"/>
      <point x="104.75757575757575" y="306.06060606060606" type="curve"/>
      <point x="107.30303030303031" y="294.45454545454544" type="line"/>
      <point x="225.1818181818182" y="384.09090909090907"/>
      <point x="342.1515151515151" y="430.1818181818182"/>
      <point x="426.75757575757575" y="454.45454545454544" type="curve"/>
      <point x="417.90909090909093" y="464.72727272727275" type="line"/>
    </contour>
    <contour>
      <point x="96.36363636363637" y="470.09090909090907" type="curve" smooth="yes"/>
      <point x="174.0" y="470.09090909090907"/>
      <point x="260.06060606060606" y="512.7575757575758"/>
      <point x="300.5151515151515" y="588.8181818181818" type="curve"/>
      <point x="282.3636363636364" y="583.8181818181818" type="line"/>
      <point x="310.8484848484849" y="564.1212121212121"/>
      <point x="343.27272727272725" y="525.2121212121212"/>
      <point x="378.1818181818182" y="471.57575757575756" type="curve"/>
      <point x="403.72727272727275" y="469.54545454545456" type="line"/>
      <point x="362.72727272727275" y="548.6060606060606"/>
      <point x="317.06060606060606" y="597.2424242424242"/>
      <point x="281.57575757575756" y="624.2121212121212" type="curve"/>
      <point x="237.4848484848485" y="543.8787878787879"/>
      <point x="162.36363636363637" y="507.75757575757575"/>
      <point x="102.57575757575758" y="507.75757575757575" type="curve" smooth="yes"/>
      <point x="95.30303030303031" y="507.75757575757575"/>
      <point x="87.03030303030303" y="509.1818181818182"/>
      <point x="82.3939393939394" y="511.1818181818182" type="curve"/>
      <point x="91.21212121212122" y="493.09090909090907" type="line"/>
      <point x="103.6969696969697" y="504.3636363636364"/>
      <point x="108.12121212121212" y="514.4242424242424"/>
      <point x="108.12121212121212" y="530.1818181818181" type="curve" smooth="yes"/>
      <point x="108.12121212121212" y="554.1515151515151"/>
      <point x="92.78787878787878" y="571.2727272727273"/>
      <point x="65.3939393939394" y="571.2727272727273" type="curve" smooth="yes"/>
      <point x="38.515151515151516" y="571.2727272727273"/>
      <point x="21.60606060606061" y="553.7272727272727"/>
      <point x="21.60606060606061" y="525.8484848484849" type="curve" smooth="yes"/>
      <point x="21.60606060606061" y="485.27272727272725"/>
      <point x="55.96969696969697" y="470.09090909090907"/>
    </contour>
    <contour>
      <point x="583.3636363636364" y="96.60606060606061" type="line"/>
      <point x="586.3636363636364" y="97.60606060606061" type="line"/>
      <point x="586.3636363636364" y="595.2121212121212" type="line"/>
      <point x="701.6666666666666" y="595.2121212121212" type="line"/>
      <point x="683.2121212121212" y="622.0" type="line"/>
      <point x="586.3636363636364" y="622.0" type="line"/>
      <point x="583.1515151515151" y="661.8484848484849" type="line"/>
      <point x="560.7878787878788" y="679.0909090909091" type="line"/>
      <point x="556.7878787878788" y="678.0909090909091" type="line"/>
      <point x="556.7878787878788" y="142.78787878787878" type="line"/>
      <point x="564.5757575757576" y="154.06060606060606" type="line"/>
      <point x="529.7272727272727" y="219.12121212121212"/>
      <point x="486.8787878787879" y="278.3636363636364"/>
      <point x="436.3030303030303" y="319.8787878787879" type="curve"/>
      <point x="429.3030303030303" y="285.8484848484849" type="line"/>
      <point x="481.1515151515151" y="245.03030303030303"/>
      <point x="524.939393939394" y="182.78787878787878"/>
      <point x="561.1515151515151" y="115.48484848484848" type="curve"/>
    </contour>
  </outline>
</glyph>
<glyph name="lVocalic-beng" format="2">
  <advance width="501.1515151515151"/>
  <unicode hex="098C"/>
  <anchor x="347.93939393939394" y="595.2121212121212" name="top"/>
  <anchor x="250.1818181818182" y="0.0" name="vedic"/>
  <outline>
    <contour>
      <point x="300.27272727272725" y="45.57575757575758" type="line"/>
      <point x="375.06060606060606" y="64.42424242424242"/>
      <point x="462.1212121212121" y="141.6969696969697"/>
      <point x="462.1212121212121" y="269.030303030303" type="curve" smooth="yes"/>
      <point x="462.1212121212121" y="389.030303030303"/>
      <point x="399.42424242424244" y="432.6060606060606"/>
      <point x="277.0" y="463.6666666666667" type="curve" smooth="yes"/>
      <point x="181.9090909090909" y="487.8181818181818"/>
      <point x="114.96969696969697" y="508.1818181818182"/>
      <point x="114.96969696969697" y="594.7878787878788" type="curve" smooth="yes"/>
      <point x="114.96969696969697" y="631.8181818181819"/>
      <point x="125.6969696969697" y="659.3939393939394"/>
      <point x="136.4848484848485" y="684.6060606060606" type="curve"/>
      <point x="114.81818181818181" y="693.8787878787879" type="line"/>
      <point x="96.81818181818181" y="659.030303030303"/>
      <point x="88.81818181818181" y="621.5454545454545"/>
      <point x="88.81818181818181" y="588.7575757575758" type="curve" smooth="yes"/>
      <point x="88.81818181818181" y="484.0"/>
      <point x="153.6060606060606" y="457.45454545454544"/>
      <point x="267.6969696969697" y="428.6666666666667" type="curve" smooth="yes"/>
      <point x="376.8484848484849" y="400.93939393939394"/>
      <point x="434.1818181818182" y="372.27272727272725"/>
      <point x="434.1818181818182" y="261.6363636363636" type="curve" smooth="yes"/>
      <point x="434.1818181818182" y="168.0"/>
      <point x="372.6969696969697" y="99.66666666666667"/>
      <point x="318.4848484848485" y="86.45454545454545" type="curve"/>
      <point x="334.030303030303" y="78.9090909090909" type="line"/>
      <point x="341.3333333333333" y="200.57575757575756"/>
      <point x="301.6969696969697" y="287.42424242424244"/>
      <point x="197.75757575757575" y="287.42424242424244" type="curve" smooth="yes"/>
      <point x="119.87878787878788" y="287.42424242424244"/>
      <point x="79.69696969696969" y="231.3030303030303"/>
      <point x="79.69696969696969" y="171.21212121212122" type="curve" smooth="yes"/>
      <point x="79.69696969696969" y="103.27272727272728"/>
      <point x="117.66666666666667" y="65.15151515151516"/>
      <point x="159.96969696969697" y="65.15151515151516" type="curve" smooth="yes"/>
      <point x="193.0" y="65.15151515151516"/>
      <point x="208.6969696969697" y="86.54545454545455"/>
      <point x="208.6969696969697" y="112.87878787878788" type="curve" smooth="yes"/>
      <point x="208.6969696969697" y="139.84848484848484"/>
      <point x="188.36363636363637" y="157.75757575757575"/>
      <point x="163.6060606060606" y="157.75757575757575" type="curve" smooth="yes"/>
      <point x="140.06060606060606" y="157.75757575757575"/>
      <point x="119.72727272727272" y="140.27272727272728"/>
      <point x="121.0909090909091" y="115.42424242424242" type="curve"/>
      <point x="140.6060606060606" y="115.06060606060606" type="line"/>
      <point x="125.48484848484848" y="121.48484848484848"/>
      <point x="108.27272727272728" y="137.54545454545456"/>
      <point x="108.27272727272728" y="175.6969696969697" type="curve" smooth="yes"/>
      <point x="108.27272727272728" y="234.1818181818182"/>
      <point x="154.6060606060606" y="256.5151515151515"/>
      <point x="195.15151515151516" y="256.5151515151515" type="curve" smooth="yes"/>
      <point x="273.57575757575756" y="256.5151515151515"/>
      <point x="301.0" y="185.42424242424244"/>
      <point x="301.0" y="102.93939393939394" type="curve" smooth="yes"/>
      <point x="301.0" y="78.63636363636364"/>
      <point x="298.42424242424244" y="62.42424242424242"/>
      <point x="296.42424242424244" y="48.78787878787878" type="curve"/>
    </contour>
  </outline>
</glyph>
<glyph name="e-beng" format="2">
  <advance width="631.1818181818181"/>
  <unicode hex="098F"/>
  <anchor x="549.3636363636364" y="-14.969696969696969" name="bottom"/>
  <anchor x="549.3636363636364" y="2.212121212121212" name="bottom.rvocalic"/>
  <anchor x="537.2424242424242" y="1.2727272727272734" name="bottom.virama"/>
  <anchor x="461.8787878787879" y="595.2121212121212" name="top"/>
  <anchor x="464.8787878787879" y="595.2121212121212" name="topright"/>
  <anchor x="315.4848484848485" y="0.0" name="vedic"/>
  <outline>
    <contour>
      <point x="545.939393939394" y="-8.272727272727273" type="line"/>
      <point x="549.3636363636364" y="-7.272727272727273" type="line"/>
      <point x="549.3636363636364" y="524.9090909090909" type="line" smooth="yes"/>
      <point x="549.3636363636364" y="593.030303030303"/>
      <point x="523.6060606060606" y="631.2121212121212"/>
      <point x="458.3636363636364" y="631.2121212121212" type="curve" smooth="yes"/>
      <point x="350.6363636363636" y="631.2121212121212"/>
      <point x="239.4848484848485" y="493.8484848484849"/>
      <point x="239.4848484848485" y="380.90909090909093" type="curve" smooth="yes"/>
      <point x="239.4848484848485" y="315.93939393939394"/>
      <point x="275.6060606060606" y="293.27272727272725"/>
      <point x="310.8181818181818" y="292.8484848484849" type="curve" smooth="yes"/>
      <point x="351.75757575757575" y="292.42424242424244"/>
      <point x="374.3030303030303" y="317.969696969697"/>
      <point x="374.3030303030303" y="352.57575757575756" type="curve" smooth="yes"/>
      <point x="374.3030303030303" y="387.06060606060606"/>
      <point x="353.45454545454544" y="410.6666666666667"/>
      <point x="319.57575757575756" y="410.6666666666667" type="curve" smooth="yes"/>
      <point x="297.42424242424244" y="410.6666666666667"/>
      <point x="276.93939393939394" y="399.5151515151515"/>
      <point x="269.6666666666667" y="378.3030303030303" type="curve"/>
      <point x="281.0" y="385.1818181818182" type="line"/>
      <point x="279.0" y="495.72727272727275"/>
      <point x="389.57575757575756" y="600.8484848484849"/>
      <point x="459.0" y="600.8484848484849" type="curve" smooth="yes"/>
      <point x="505.6363636363636" y="600.8484848484849"/>
      <point x="519.7878787878788" y="576.5151515151515"/>
      <point x="519.7878787878788" y="521.2121212121212" type="curve" smooth="yes"/>
      <point x="519.7878787878788" y="173.1818181818182" type="line" smooth="yes"/>
      <point x="519.7878787878788" y="138.1818181818182"/>
      <point x="520.0" y="94.72727272727272"/>
      <point x="522.2121212121212" y="58.151515151515156" type="curve"/>
      <point x="486.3636363636364" y="125.57575757575758"/>
      <point x="442.1212121212121" y="137.75757575757575"/>
      <point x="393.5151515151515" y="137.75757575757575" type="curve" smooth="yes"/>
      <point x="330.42424242424244" y="137.75757575757575"/>
      <point x="290.45454545454544" y="119.87878787878788"/>
      <point x="211.66666666666666" y="119.87878787878788" type="curve" smooth="yes"/>
      <point x="125.63636363636364" y="119.87878787878788"/>
      <point x="79.66666666666667" y="163.33333333333334"/>
      <point x="79.66666666666667" y="256.8484848484849" type="curve" smooth="yes"/>
      <point x="79.66666666666667" y="295.1515151515151"/>
      <point x="86.03030303030303" y="321.1515151515151"/>
      <point x="92.03030303030303" y="344.1515151515151" type="curve"/>
      <point x="67.72727272727272" y="351.0" type="line"/>
      <point x="59.93939393939394" y="323.3636363636364"/>
      <point x="53.93939393939394" y="286.3636363636364"/>
      <point x="53.93939393939394" y="246.36363636363637" type="curve" smooth="yes"/>
      <point x="53.93939393939394" y="119.84848484848484"/>
      <point x="122.75757575757575" y="80.0909090909091"/>
      <point x="209.87878787878788" y="80.0909090909091" type="curve" smooth="yes"/>
      <point x="293.90909090909093" y="80.0909090909091"/>
      <point x="330.75757575757575" y="98.81818181818181"/>
      <point x="400.3939393939394" y="98.81818181818181" type="curve" smooth="yes"/>
      <point x="449.969696969697" y="98.81818181818181"/>
      <point x="489.3636363636364" y="83.45454545454545"/>
      <point x="525.7272727272727" y="10.606060606060607" type="curve"/>
    </contour>
  </outline>
</glyph>
<glyph name="ai-beng" format="2">
  <advance width="727.2727272727273"/>
  <unicode hex="0990"/>
  <anchor x="488.969696969697" y="601.5757575757576" name="top"/>
  <anchor x="462.42424242424244" y="613.030303030303" name="topright"/>
  <anchor x="363.24242424242425" y="0.0" name="vedic"/>
  <anchor x="549.3636363636364" y="-14.969696969696969" name="bottom"/>
  <anchor x="549.3636363636364" y="2.212121212121212" name="bottom.rvocalic"/>
  <anchor x="537.2424242424242" y="1.2727272727272734" name="bottom.virama"/>
  <outline>
    <contour>
      <point x="545.3030303030303" y="350.54545454545456" type="line"/>
      <point x="610.7575757575758" y="408.42424242424244"/>
      <point x="656.2121212121212" y="472.1818181818182"/>
      <point x="656.2121212121212" y="565.2121212121212" type="curve" smooth="yes"/>
      <point x="656.2121212121212" y="700.1212121212121"/>
      <point x="557.8181818181819" y="735.5151515151515"/>
      <point x="419.0" y="749.5757575757576" type="curve" smooth="yes"/>
      <point x="309.54545454545456" y="760.4242424242424"/>
      <point x="216.6060606060606" y="771.6363636363636"/>
      <point x="216.6060606060606" y="873.2424242424242" type="curve" smooth="yes"/>
      <point x="216.6060606060606" y="904.1818181818181"/>
      <point x="223.3939393939394" y="927.4545454545455"/>
      <point x="234.96969696969697" y="949.0909090909091" type="curve"/>
      <point x="211.72727272727272" y="958.3636363636364" type="line"/>
      <point x="198.45454545454544" y="932.1818181818181"/>
      <point x="190.45454545454544" y="902.5757575757576"/>
      <point x="190.45454545454544" y="867.4242424242424" type="curve" smooth="yes"/>
      <point x="190.45454545454544" y="745.3939393939394"/>
      <point x="286.6060606060606" y="725.8181818181819"/>
      <point x="413.06060606060606" y="715.5454545454545" type="curve" smooth="yes"/>
      <point x="536.0909090909091" y="705.4848484848485"/>
      <point x="629.7575757575758" y="677.5151515151515"/>
      <point x="629.7575757575758" y="564.8787878787879" type="curve" smooth="yes"/>
      <point x="629.7575757575758" y="486.0"/>
      <point x="595.060606060606" y="433.06060606060606"/>
      <point x="536.4848484848485" y="381.3939393939394" type="curve"/>
    </contour>
    <component base="e-beng"/>
  </outline>
</glyph>
<glyph name="o-beng" format="2">
  <advance width="688.5151515151515"/>
  <unicode hex="0993"/>
  <anchor x="510.0" y="40.57575757575758" name="bottom"/>
  <anchor x="558.0" y="-19.909090909090907" name="bottom.rakaar"/>
  <anchor x="478.90909090909093" y="81.12121212121212" name="bottom.rvocalic"/>
  <anchor x="440.969696969697" y="28.454545454545453" name="bottom.virama"/>
  <anchor x="437.3636363636364" y="595.2121212121212" name="top"/>
  <anchor x="435.6363636363636" y="595.2121212121212" name="topright"/>
  <anchor x="344.1515151515151" y="0.0" name="vedic"/>
  <outline>
    <contour>
      <point x="433.8181818181818" y="78.63636363636364" type="curve" smooth="yes"/>
      <point x="556.030303030303" y="78.63636363636364"/>
      <point x="627.7575757575758" y="145.57575757575756"/>
      <point x="627.7575757575758" y="252.0909090909091" type="curve" smooth="yes"/>
      <point x="627.7575757575758" y="361.4848484848485"/>
      <point x="546.7272727272727" y="409.6969696969697"/>
      <point x="491.75757575757575" y="409.6969696969697" type="curve" smooth="yes"/>
      <point x="459.1515151515151" y="409.6969696969697"/>
      <point x="437.45454545454544" y="390.7878787878788"/>
      <point x="437.45454545454544" y="359.030303030303" type="curve" smooth="yes"/>
      <point x="437.45454545454544" y="326.4848484848485"/>
      <point x="459.5151515151515" y="308.72727272727275"/>
      <point x="491.75757575757575" y="308.72727272727275" type="curve" smooth="yes"/>
      <point x="545.3333333333334" y="308.72727272727275"/>
      <point x="609.1212121212121" y="378.6060606060606"/>
      <point x="609.1212121212121" y="486.0" type="curve" smooth="yes"/>
      <point x="609.1212121212121" y="570.060606060606"/>
      <point x="554.4848484848485" y="619.1818181818181"/>
      <point x="464.45454545454544" y="619.1818181818181" type="curve" smooth="yes"/>
      <point x="327.3333333333333" y="619.1818181818181"/>
      <point x="219.5151515151515" y="510.8787878787879"/>
      <point x="219.5151515151515" y="420.7878787878788" type="curve" smooth="yes"/>
      <point x="219.5151515151515" y="372.1212121212121"/>
      <point x="247.9090909090909" y="349.57575757575756"/>
      <point x="280.5151515151515" y="349.57575757575756" type="curve" smooth="yes"/>
      <point x="313.1212121212121" y="349.57575757575756"/>
      <point x="334.6666666666667" y="368.8484848484849"/>
      <point x="334.6666666666667" y="403.09090909090907" type="curve" smooth="yes"/>
      <point x="334.6666666666667" y="432.06060606060606"/>
      <point x="315.3939393939394" y="453.969696969697"/>
      <point x="286.06060606060606" y="453.969696969697" type="curve" smooth="yes"/>
      <point x="270.27272727272725" y="453.969696969697"/>
      <point x="251.78787878787878" y="448.1818181818182"/>
      <point x="239.15151515151516" y="421.5151515151515" type="curve"/>
      <point x="259.1515151515151" y="413.45454545454544" type="line"/>
      <point x="265.6363636363636" y="527.7575757575758"/>
      <point x="378.1515151515151" y="591.1818181818181"/>
      <point x="469.0" y="591.1818181818181" type="curve" smooth="yes"/>
      <point x="541.8181818181819" y="591.1818181818181"/>
      <point x="579.6969696969697" y="552.1515151515151"/>
      <point x="579.6969696969697" y="491.969696969697" type="curve" smooth="yes"/>
      <point x="579.6969696969697" y="436.24242424242425"/>
      <point x="556.1515151515151" y="395.3636363636364"/>
      <point x="521.030303030303" y="377.3939393939394" type="curve"/>
      <point x="528.1515151515151" y="362.09090909090907" type="line"/>
      <point x="563.7272727272727" y="361.3030303030303"/>
      <point x="599.1818181818181" y="320.1212121212121"/>
      <point x="599.1818181818181" y="257.6969696969697" type="curve" smooth="yes"/>
      <point x="599.1818181818181" y="163.3939393939394"/>
      <point x="529.4848484848485" y="118.42424242424242"/>
      <point x="436.24242424242425" y="118.42424242424242" type="curve" smooth="yes"/>
      <point x="271.969696969697" y="118.42424242424242"/>
      <point x="138.06060606060606" y="248.21212121212122"/>
      <point x="58.36363636363636" y="524.0" type="curve"/>
      <point x="34.696969696969695" y="517.5151515151515" type="line"/>
      <point x="118.42424242424242" y="205.3030303030303"/>
      <point x="272.8181818181818" y="78.63636363636364"/>
    </contour>
  </outline>
</glyph>
<glyph name="au-beng" format="2">
  <advance width="753.8181818181819"/>
  <unicode hex="0994"/>
  <anchor x="510.0" y="40.57575757575758" name="bottom"/>
  <anchor x="558.0" y="-19.909090909090907" name="bottom.rakaar"/>
  <anchor x="478.90909090909093" y="81.12121212121212" name="bottom.rvocalic"/>
  <anchor x="440.969696969697" y="28.454545454545453" name="bottom.virama"/>
  <anchor x="518.969696969697" y="601.5757575757576" name="top"/>
  <anchor x="472.42424242424244" y="613.030303030303" name="topright"/>
  <anchor x="376.90909090909093" y="0.0" name="vedic"/>
  <outline>
    <contour>
      <point x="571.8484848484849" y="350.54545454545456" type="line"/>
      <point x="637.3030303030303" y="408.42424242424244"/>
      <point x="682.7575757575758" y="472.1818181818182"/>
      <point x="682.7575757575758" y="563.060606060606" type="curve" smooth="yes"/>
      <point x="682.7575757575758" y="700.5454545454545"/>
      <point x="583.3030303030303" y="735.7272727272727"/>
      <point x="445.54545454545456" y="749.5757575757576" type="curve" smooth="yes"/>
      <point x="336.09090909090907" y="760.4242424242424"/>
      <point x="243.15151515151516" y="771.6363636363636"/>
      <point x="243.15151515151516" y="873.2424242424242" type="curve" smooth="yes"/>
      <point x="243.15151515151516" y="904.1818181818181"/>
      <point x="249.93939393939394" y="927.4545454545455"/>
      <point x="261.5151515151515" y="949.0909090909091" type="curve"/>
      <point x="238.27272727272728" y="958.3636363636364" type="line"/>
      <point x="225.0" y="932.1818181818181"/>
      <point x="217.0" y="902.5757575757576"/>
      <point x="217.0" y="867.4242424242424" type="curve" smooth="yes"/>
      <point x="217.0" y="745.3939393939394"/>
      <point x="313.1515151515151" y="725.8181818181819"/>
      <point x="439.3939393939394" y="715.5454545454545" type="curve" smooth="yes"/>
      <point x="562.6363636363636" y="705.2727272727273"/>
      <point x="656.3030303030303" y="677.5151515151515"/>
      <point x="656.3030303030303" y="562.5151515151515" type="curve" smooth="yes"/>
      <point x="656.3030303030303" y="483.8787878787879"/>
      <point x="621.3939393939394" y="431.3636363636364"/>
      <point x="562.8181818181819" y="379.6969696969697" type="curve"/>
    </contour>
    <component base="o-beng"/>
  </outline>
</glyph>
<glyph name="ka-beng" format="2">
  <advance width="716.3939393939394"/>
  <unicode hex="0995"/>
  <anchor x="417.3333333333333" y="15.030303030303031" name="bottom"/>
  <anchor x="426.27272727272725" y="30.60606060606061" name="bottom.rakaar"/>
  <anchor x="426.27272727272725" y="7.272727272727273" name="bottom.rvocalic"/>
  <anchor x="422.030303030303" y="26.484848484848484" name="bottom.virama"/>
  <anchor x="211.87878787878788" y="83.75757575757575" name="nukta"/>
  <anchor x="437.3030303030303" y="595.2121212121212" name="top"/>
  <anchor x="429.27272727272725" y="595.2121212121212" name="topright"/>
  <anchor x="358.09090909090907" y="0.0" name="vedic"/>
  <outline>
    <contour>
      <point x="422.8484848484849" y="-5.121212121212121" type="line"/>
      <point x="426.27272727272725" y="-4.121212121212121" type="line"/>
      <point x="426.27272727272725" y="485.8787878787879" type="line"/>
      <point x="413.6363636363636" y="471.75757575757575" type="line"/>
      <point x="417.06060606060606" y="473.75757575757575"/>
      <point x="422.4848484848485" y="474.75757575757575"/>
      <point x="428.27272727272725" y="474.75757575757575" type="curve" smooth="yes"/>
      <point x="537.1515151515151" y="474.75757575757575"/>
      <point x="638.6666666666666" y="394.030303030303"/>
      <point x="638.6666666666666" y="292.8787878787879" type="curve" smooth="yes"/>
      <point x="638.6666666666666" y="275.5151515151515"/>
      <point x="636.2424242424242" y="264.1515151515151"/>
      <point x="627.2424242424242" y="254.5151515151515" type="curve"/>
      <point x="640.1515151515151" y="258.6666666666667" type="line"/>
      <point x="634.6666666666666" y="286.8484848484849"/>
      <point x="617.1818181818181" y="302.6969696969697"/>
      <point x="591.4848484848485" y="302.6969696969697" type="curve" smooth="yes"/>
      <point x="559.5151515151515" y="302.6969696969697"/>
      <point x="541.4545454545455" y="280.93939393939394"/>
      <point x="541.4545454545455" y="251.6060606060606" type="curve" smooth="yes"/>
      <point x="541.4545454545455" y="220.54545454545453"/>
      <point x="563.4545454545455" y="198.3030303030303"/>
      <point x="596.1818181818181" y="198.3030303030303" type="curve" smooth="yes"/>
      <point x="632.5454545454545" y="198.3030303030303"/>
      <point x="664.9090909090909" y="222.93939393939394"/>
      <point x="664.9090909090909" y="293.1515151515151" type="curve" smooth="yes"/>
      <point x="664.9090909090909" y="410.8787878787879"/>
      <point x="552.8787878787879" y="507.1212121212121"/>
      <point x="417.7878787878788" y="515.3333333333334" type="curve"/>
      <point x="426.27272727272725" y="498.42424242424244" type="line"/>
      <point x="426.27272727272725" y="595.2121212121212" type="line"/>
      <point x="737.5151515151515" y="595.2121212121212" type="line"/>
      <point x="719.2727272727273" y="622.0" type="line"/>
      <point x="-21.12121212121212" y="622.0" type="line"/>
      <point x="-2.878787878787879" y="595.2121212121212" type="line"/>
      <point x="396.6969696969697" y="595.2121212121212" type="line"/>
      <point x="396.6969696969697" y="498.42424242424244" type="line"/>
      <point x="405.8484848484849" y="515.3333333333334" type="line"/>
      <point x="282.8787878787879" y="479.3636363636364"/>
      <point x="168.84848484848484" y="414.3939393939394"/>
      <point x="47.848484848484844" y="327.5151515151515" type="curve"/>
      <point x="67.57575757575758" y="281.4848484848485" type="line"/>
      <point x="217.1818181818182" y="239.06060606060606"/>
      <point x="325.1212121212121" y="148.72727272727272"/>
      <point x="401.06060606060606" y="13.757575757575758" type="curve"/>
    </contour>
    <contour>
      <point x="396.6969696969697" y="41.06060606060606" type="line"/>
      <point x="404.4848484848485" y="52.333333333333336" type="line"/>
      <point x="333.57575757575756" y="181.36363636363637"/>
      <point x="220.5151515151515" y="270.5151515151515"/>
      <point x="83.54545454545455" y="316.3636363636364" type="curve"/>
      <point x="86.0909090909091" y="304.969696969697" type="line"/>
      <point x="202.75757575757575" y="392.54545454545456"/>
      <point x="320.1515151515151" y="451.0"/>
      <point x="405.54545454545456" y="474.969696969697" type="curve"/>
      <point x="396.6969696969697" y="485.8787878787879" type="line"/>
    </contour>
  </outline>
</glyph>
<glyph name="kha-beng" format="2">
  <advance width="582.2121212121212"/>
  <unicode hex="0996"/>
  <anchor x="479.0909090909091" y="15.030303030303031" name="bottom"/>
  <anchor x="488.030303030303" y="54.24242424242424" name="bottom.rakaar"/>
  <anchor x="488.030303030303" y="7.272727272727273" name="bottom.rvocalic"/>
  <anchor x="475.90909090909093" y="1.2727272727272734" name="bottom.virama"/>
  <anchor x="488.030303030303" y="593.0909090909091" name="top"/>
  <anchor x="485.6060606060606" y="561.4545454545455" name="topright"/>
  <anchor x="270.6060606060606" y="0.0" name="vedic"/>
  <outline>
    <contour>
      <point x="484.6060606060606" y="-5.121212121212121" type="line"/>
      <point x="488.030303030303" y="-4.121212121212121" type="line"/>
      <point x="488.030303030303" y="595.2121212121212" type="line"/>
      <point x="603.3333333333334" y="595.2121212121212" type="line"/>
      <point x="584.8787878787879" y="622.0" type="line"/>
      <point x="488.030303030303" y="622.0" type="line"/>
      <point x="484.8181818181818" y="661.8484848484849" type="line"/>
      <point x="462.45454545454544" y="679.0909090909091" type="line"/>
      <point x="458.45454545454544" y="678.0909090909091" type="line"/>
      <point x="458.45454545454544" y="41.06060606060606" type="line"/>
      <point x="466.24242424242425" y="52.333333333333336" type="line"/>
      <point x="400.5151515151515" y="180.0909090909091"/>
      <point x="288.5151515151515" y="273.09090909090907"/>
      <point x="154.03030303030303" y="318.1818181818182" type="curve"/>
      <point x="158.93939393939394" y="302.1515151515151" type="line"/>
      <point x="293.7878787878788" y="322.3636363636364"/>
      <point x="357.5151515151515" y="385.3939393939394"/>
      <point x="357.5151515151515" y="476.0" type="curve" smooth="yes"/>
      <point x="357.5151515151515" y="552.2727272727273"/>
      <point x="318.1818181818182" y="594.0909090909091"/>
      <point x="286.6363636363636" y="624.2121212121212" type="curve"/>
      <point x="242.54545454545456" y="546.2424242424242"/>
      <point x="171.66666666666666" y="505.8787878787879"/>
      <point x="106.30303030303031" y="505.8787878787879" type="curve" smooth="yes"/>
      <point x="97.24242424242425" y="505.8787878787879"/>
      <point x="88.24242424242425" y="507.3030303030303"/>
      <point x="83.03030303030303" y="509.72727272727275" type="curve"/>
      <point x="93.57575757575758" y="491.75757575757575" type="line"/>
      <point x="106.84848484848484" y="503.8181818181818"/>
      <point x="111.27272727272728" y="513.8787878787879"/>
      <point x="111.27272727272728" y="530.4242424242424" type="curve" smooth="yes"/>
      <point x="111.27272727272728" y="555.1818181818181"/>
      <point x="95.15151515151516" y="573.0909090909091"/>
      <point x="66.96969696969697" y="573.0909090909091" type="curve" smooth="yes"/>
      <point x="39.303030303030305" y="573.0909090909091"/>
      <point x="21.60606060606061" y="554.7575757575758"/>
      <point x="21.60606060606061" y="526.0909090909091" type="curve" smooth="yes"/>
      <point x="21.60606060606061" y="484.030303030303"/>
      <point x="56.121212121212125" y="468.2121212121212"/>
      <point x="97.0909090909091" y="468.2121212121212" type="curve" smooth="yes"/>
      <point x="182.8181818181818" y="468.2121212121212"/>
      <point x="265.90909090909093" y="514.3333333333334"/>
      <point x="305.57575757575756" y="588.8181818181818" type="curve"/>
      <point x="285.8484848484849" y="583.8181818181818" type="line"/>
      <point x="306.4848484848485" y="565.1818181818181"/>
      <point x="327.93939393939394" y="535.6666666666666"/>
      <point x="327.93939393939394" y="483.1212121212121" type="curve" smooth="yes"/>
      <point x="327.93939393939394" y="387.8181818181818"/>
      <point x="226.84848484848484" y="343.1515151515151"/>
      <point x="112.60606060606061" y="334.4848484848485" type="curve"/>
      <point x="128.96969696969697" y="282.06060606060606" type="line"/>
      <point x="277.75757575757575" y="247.72727272727272"/>
      <point x="391.030303030303" y="151.0909090909091"/>
      <point x="462.8181818181818" y="13.757575757575758" type="curve"/>
    </contour>
  </outline>
</glyph>
<glyph name="ga-beng" format="2">
  <advance width="576.8787878787879"/>
  <unicode hex="0997"/>
  <anchor x="466.969696969697" y="68.69696969696969" name="bottom"/>
  <anchor x="482.6969696969697" y="-14.03030303030303" name="bottom.rakaar"/>
  <anchor x="482.6969696969697" y="-0.4242424242424243" name="bottom.rvocalic"/>
  <anchor x="474.5151515151515" y="5.212121212121212" name="bottom.virama"/>
  <anchor x="482.6969696969697" y="548.1818181818181" name="top"/>
  <anchor x="480.27272727272725" y="561.4545454545455" name="topright"/>
  <anchor x="288.3333333333333" y="0.0" name="vedic"/>
  <outline>
    <contour>
      <point x="479.6969696969697" y="-13.181818181818182" type="line"/>
      <point x="482.6969696969697" y="-12.181818181818182" type="line"/>
      <point x="482.6969696969697" y="595.2121212121212" type="line"/>
      <point x="598.0" y="595.2121212121212" type="line"/>
      <point x="579.5454545454545" y="622.0" type="line"/>
      <point x="482.6969696969697" y="622.0" type="line"/>
      <point x="479.4848484848485" y="661.8484848484849" type="line"/>
      <point x="457.1212121212121" y="679.0909090909091" type="line"/>
      <point x="453.1212121212121" y="678.0909090909091" type="line"/>
      <point x="453.1212121212121" y="575.7575757575758" type="line" smooth="yes"/>
      <point x="453.1212121212121" y="524.939393939394"/>
      <point x="454.75757575757575" y="461.57575757575756"/>
      <point x="457.75757575757575" y="412.93939393939394" type="curve"/>
      <point x="464.8181818181818" y="409.7878787878788" type="line"/>
      <point x="409.3030303030303" y="545.4242424242424"/>
      <point x="334.3030303030303" y="630.5757575757576"/>
      <point x="235.27272727272728" y="630.5757575757576" type="curve" smooth="yes"/>
      <point x="148.24242424242425" y="630.5757575757576"/>
      <point x="80.63636363636364" y="565.8787878787879"/>
      <point x="30.757575757575758" y="459.72727272727275" type="curve"/>
      <point x="64.66666666666667" y="428.969696969697" type="line"/>
      <point x="105.51515151515152" y="457.6666666666667"/>
      <point x="144.15151515151516" y="476.6060606060606"/>
      <point x="191.45454545454547" y="476.6060606060606" type="curve" smooth="yes"/>
      <point x="239.54545454545456" y="476.6060606060606"/>
      <point x="260.1212121212121" y="443.3636363636364"/>
      <point x="260.1212121212121" y="408.2121212121212" type="curve" smooth="yes"/>
      <point x="260.1212121212121" y="356.4848484848485"/>
      <point x="225.6060606060606" y="307.030303030303"/>
      <point x="149.06060606060606" y="266.1515151515151" type="curve"/>
      <point x="178.33333333333334" y="227.15151515151516" type="line"/>
      <point x="245.66666666666669" y="272.8181818181818"/>
      <point x="291.75757575757575" y="328.8181818181818"/>
      <point x="291.75757575757575" y="402.6666666666667" type="curve" smooth="yes"/>
      <point x="291.75757575757575" y="463.57575757575756"/>
      <point x="254.06060606060606" y="507.3333333333333"/>
      <point x="193.45454545454547" y="507.3333333333333" type="curve" smooth="yes"/>
      <point x="142.66666666666666" y="507.3333333333333"/>
      <point x="99.42424242424242" y="485.8181818181818"/>
      <point x="68.96969696969697" y="462.0" type="curve"/>
      <point x="78.36363636363637" y="455.5151515151515" type="line"/>
      <point x="124.0909090909091" y="554.9090909090909"/>
      <point x="179.54545454545456" y="595.1212121212121"/>
      <point x="240.6060606060606" y="595.1212121212121" type="curve" smooth="yes"/>
      <point x="331.93939393939394" y="595.1212121212121"/>
      <point x="402.45454545454544" y="503.54545454545456"/>
      <point x="458.6666666666667" y="365.72727272727275" type="curve"/>
      <point x="453.1212121212121" y="405.8181818181818" type="line"/>
      <point x="453.1212121212121" y="3.0" type="line"/>
    </contour>
  </outline>
</glyph>
<glyph name="gha-beng" format="2">
  <advance width="523.6363636363636"/>
  <unicode hex="0998"/>
  <anchor x="420.5151515151515" y="15.030303030303031" name="bottom"/>
  <anchor x="429.45454545454544" y="54.24242424242424" name="bottom.rakaar"/>
  <anchor x="429.45454545454544" y="7.272727272727273" name="bottom.rvocalic"/>
  <anchor x="417.3333333333333" y="1.2727272727272734" name="bottom.virama"/>
  <anchor x="429.45454545454544" y="595.2121212121212" name="top"/>
  <anchor x="432.45454545454544" y="595.2121212121212" name="topright"/>
  <anchor x="261.42424242424244" y="0.0" name="vedic"/>
  <outline>
    <contour>
      <point x="426.030303030303" y="-5.121212121212121" type="line"/>
      <point x="429.45454545454544" y="-4.121212121212121" type="line"/>
      <point x="429.45454545454544" y="595.2121212121212" type="line"/>
      <point x="544.7575757575758" y="595.2121212121212" type="line"/>
      <point x="526.5151515151515" y="622.0" type="line"/>
      <point x="-21.12121212121212" y="622.0" type="line"/>
      <point x="-2.878787878787879" y="595.2121212121212" type="line"/>
      <point x="399.8787878787879" y="595.2121212121212" type="line"/>
      <point x="399.8787878787879" y="41.06060606060606" type="line"/>
      <point x="407.6666666666667" y="52.333333333333336" type="line"/>
      <point x="339.57575757575756" y="182.03030303030303"/>
      <point x="235.78787878787878" y="252.5151515151515"/>
      <point x="86.72727272727272" y="306.3636363636364" type="curve"/>
      <point x="89.27272727272728" y="294.75757575757575" type="line"/>
      <point x="168.93939393939394" y="355.7878787878788"/>
      <point x="255.6969696969697" y="397.24242424242425"/>
      <point x="320.45454545454544" y="427.8787878787879" type="curve"/>
      <point x="301.8787878787879" y="461.3333333333333" type="line"/>
      <point x="269.24242424242425" y="441.1212121212121"/>
      <point x="228.0909090909091" y="424.6060606060606"/>
      <point x="196.15151515151516" y="424.6060606060606" type="curve" smooth="yes"/>
      <point x="146.06060606060606" y="424.6060606060606"/>
      <point x="95.48484848484848" y="455.54545454545456"/>
      <point x="95.48484848484848" y="512.1818181818181" type="curve" smooth="yes"/>
      <point x="95.48484848484848" y="573.2121212121212"/>
      <point x="141.36363636363637" y="593.6363636363636"/>
      <point x="178.27272727272728" y="599.6969696969697" type="curve"/>
      <point x="140.4848484848485" y="618.5757575757576" type="line"/>
      <point x="101.42424242424242" y="608.6363636363636"/>
      <point x="56.75757575757576" y="579.7878787878788"/>
      <point x="56.75757575757576" y="513.3636363636364" type="curve" smooth="yes"/>
      <point x="56.75757575757576" y="446.1515151515151"/>
      <point x="115.81818181818181" y="397.8484848484849"/>
      <point x="197.8181818181818" y="396.8787878787879" type="curve"/>
      <point x="193.3030303030303" y="404.8484848484849" type="line"/>
      <point x="134.24242424242425" y="374.3939393939394"/>
      <point x="92.45454545454545" y="347.3030303030303"/>
      <point x="51.03030303030303" y="317.5151515151515" type="curve"/>
      <point x="70.75757575757575" y="271.4848484848485" type="line"/>
      <point x="219.5151515151515" y="229.27272727272728"/>
      <point x="330.09090909090907" y="153.45454545454544"/>
      <point x="404.24242424242425" y="13.757575757575758" type="curve"/>
    </contour>
  </outline>
</glyph>
<glyph name="nga-beng" format="2">
  <advance width="610.2727272727273"/>
  <unicode hex="0999"/>
  <anchor x="401.27272727272725" y="31.87878787878788" name="bottom"/>
  <anchor x="492.24242424242425" y="-48.36363636363636" name="bottom.rakaar"/>
  <anchor x="411.030303030303" y="47.57575757575758" name="bottom.rvocalic"/>
  <anchor x="375.2121212121212" y="0.0" name="bottom.virama"/>
  <anchor x="311.3939393939394" y="595.2121212121212" name="top"/>
  <anchor x="308.030303030303" y="595.2121212121212" name="topright"/>
  <anchor x="304.6363636363636" y="0.0" name="vedic"/>
  <outline>
    <contour>
      <point x="366.1515151515151" y="50.18181818181818" type="curve" smooth="yes"/>
      <point x="497.7878787878788" y="50.18181818181818"/>
      <point x="561.3333333333334" y="137.3030303030303"/>
      <point x="561.3333333333334" y="255.15151515151516" type="curve" smooth="yes"/>
      <point x="561.3333333333334" y="333.72727272727275"/>
      <point x="535.1212121212121" y="385.3333333333333"/>
      <point x="502.8787878787879" y="419.7878787878788" type="curve"/>
      <point x="452.030303030303" y="356.2121212121212"/>
      <point x="381.09090909090907" y="292.0"/>
      <point x="317.3030303030303" y="292.0" type="curve" smooth="yes"/>
      <point x="288.4848484848485" y="292.0"/>
      <point x="272.3939393939394" y="307.5151515151515"/>
      <point x="272.3939393939394" y="334.1818181818182" type="curve" smooth="yes"/>
      <point x="272.3939393939394" y="490.2121212121212" type="line" smooth="yes"/>
      <point x="272.3939393939394" y="569.060606060606"/>
      <point x="310.0" y="604.4242424242424"/>
      <point x="359.72727272727275" y="604.4242424242424" type="curve" smooth="yes"/>
      <point x="402.3939393939394" y="604.4242424242424"/>
      <point x="432.6969696969697" y="579.3333333333334"/>
      <point x="432.6969696969697" y="530.6363636363636" type="curve" smooth="yes"/>
      <point x="432.6969696969697" y="484.5151515151515"/>
      <point x="409.45454545454544" y="446.06060606060606"/>
      <point x="336.0" y="446.06060606060606" type="curve" smooth="yes"/>
      <point x="239.3939393939394" y="446.06060606060606"/>
      <point x="179.1818181818182" y="508.8787878787879"/>
      <point x="134.96969696969697" y="621.2121212121212" type="curve"/>
      <point x="112.51515151515152" y="611.4545454545455" type="line"/>
      <point x="142.1818181818182" y="533.030303030303"/>
      <point x="202.8181818181818" y="414.6363636363636"/>
      <point x="334.57575757575756" y="414.6363636363636" type="curve" smooth="yes"/>
      <point x="432.3333333333333" y="414.6363636363636"/>
      <point x="461.6363636363636" y="475.0"/>
      <point x="461.8484848484849" y="525.939393939394" type="curve" smooth="yes"/>
      <point x="462.06060606060606" y="586.3636363636364"/>
      <point x="426.3636363636364" y="632.7878787878788"/>
      <point x="358.8787878787879" y="632.7878787878788" type="curve" smooth="yes"/>
      <point x="283.969696969697" y="632.7878787878788"/>
      <point x="242.3939393939394" y="576.2121212121212"/>
      <point x="242.3939393939394" y="496.8181818181818" type="curve" smooth="yes"/>
      <point x="242.3939393939394" y="331.8181818181818" type="line" smooth="yes"/>
      <point x="242.3939393939394" y="300.969696969697"/>
      <point x="254.6060606060606" y="282.8484848484849"/>
      <point x="271.09090909090907" y="270.72727272727275" type="curve" smooth="yes"/>
      <point x="285.93939393939394" y="260.030303030303"/>
      <point x="305.06060606060606" y="255.33333333333334"/>
      <point x="325.8181818181818" y="255.33333333333334" type="curve" smooth="yes"/>
      <point x="388.54545454545456" y="255.33333333333334"/>
      <point x="454.6060606060606" y="307.1212121212121"/>
      <point x="515.3333333333334" y="375.42424242424244" type="curve"/>
      <point x="494.8787878787879" y="384.9090909090909" type="line"/>
      <point x="513.8787878787879" y="361.9090909090909"/>
      <point x="532.969696969697" y="325.45454545454544"/>
      <point x="532.969696969697" y="265.54545454545456" type="curve" smooth="yes"/>
      <point x="532.969696969697" y="151.96969696969697"/>
      <point x="470.6666666666667" y="89.75757575757575"/>
      <point x="367.72727272727275" y="89.75757575757575" type="curve" smooth="yes"/>
      <point x="200.03030303030303" y="89.75757575757575"/>
      <point x="115.60606060606061" y="245.66666666666666"/>
      <point x="50.0" y="497.5151515151515" type="curve"/>
      <point x="25.757575757575758" y="491.030303030303" type="line"/>
      <point x="97.81818181818181" y="188.03030303030303"/>
      <point x="202.57575757575756" y="50.18181818181818"/>
    </contour>
  </outline>
</glyph>
<glyph name="ca-beng" format="2">
  <advance width="483.1515151515151"/>
  <unicode hex="099A"/>
  <anchor x="296.3636363636364" y="43.39393939393939" name="bottom"/>
  <anchor x="355.030303030303" y="0.0" name="bottom.rakaar"/>
  <anchor x="280.54545454545456" y="49.63636363636364" name="bottom.rvocalic"/>
  <anchor x="235.4848484848485" y="35.21212121212121" name="bottom.virama"/>
  <anchor x="123.75757575757575" y="595.2121212121212" name="top"/>
  <anchor x="126.75757575757575" y="595.2121212121212" name="topright"/>
  <anchor x="241.57575757575756" y="0.0" name="vedic"/>
  <outline>
    <contour>
      <point x="197.33333333333334" y="45.96969696969697" type="curve" smooth="yes"/>
      <point x="322.0909090909091" y="45.96969696969697"/>
      <point x="420.5151515151515" y="214.57575757575756"/>
      <point x="418.93939393939394" y="347.2121212121212" type="curve" smooth="yes"/>
      <point x="418.93939393939394" y="370.6666666666667"/>
      <point x="400.1212121212121" y="387.06060606060606"/>
      <point x="390.3636363636364" y="392.75757575757575" type="curve"/>
      <point x="268.24242424242425" y="401.75757575757575"/>
      <point x="176.1818181818182" y="469.6969696969697"/>
      <point x="118.54545454545455" y="578.7575757575758" type="curve"/>
      <point x="114.03030303030303" y="547.1515151515151" type="line"/>
      <point x="160.6060606060606" y="438.3939393939394"/>
      <point x="264.030303030303" y="365.0"/>
      <point x="395.3333333333333" y="354.72727272727275" type="curve"/>
      <point x="382.42424242424244" y="368.27272727272725" type="line"/>
      <point x="385.45454545454544" y="223.3030303030303"/>
      <point x="289.27272727272725" y="79.0909090909091"/>
      <point x="195.42424242424244" y="79.0909090909091" type="curve" smooth="yes"/>
      <point x="151.6969696969697" y="79.0909090909091"/>
      <point x="123.75757575757575" y="106.75757575757575"/>
      <point x="123.75757575757575" y="146.33333333333334" type="curve" smooth="yes"/>
      <point x="123.75757575757575" y="595.2121212121212" type="line"/>
      <point x="504.27272727272725" y="595.2121212121212" type="line"/>
      <point x="486.030303030303" y="622.0" type="line"/>
      <point x="-21.12121212121212" y="622.0" type="line"/>
      <point x="-2.4545454545454533" y="595.2121212121212" type="line"/>
      <point x="94.18181818181819" y="595.2121212121212" type="line"/>
      <point x="94.18181818181819" y="145.54545454545456" type="line" smooth="yes"/>
      <point x="94.18181818181819" y="86.51515151515152"/>
      <point x="137.15151515151516" y="45.96969696969697"/>
    </contour>
  </outline>
</glyph>
<glyph name="cha-beng" format="2">
  <advance width="514.0909090909091"/>
  <unicode hex="099B"/>
  <anchor x="284.27272727272725" y="98.03030303030303" name="bottom"/>
  <anchor x="416.6363636363636" y="-99.57575757575758" name="bottom.rakaar"/>
  <anchor x="342.969696969697" y="89.6060606060606" name="bottom.rvocalic"/>
  <anchor x="271.6969696969697" y="81.72727272727272" name="bottom.virama"/>
  <anchor x="106.60606060606061" y="595.2121212121212" name="top"/>
  <anchor x="109.60606060606061" y="595.2121212121212" name="topright"/>
  <anchor x="256.54545454545456" y="0.0" name="vedic"/>
  <outline>
    <contour>
      <point x="486.90909090909093" y="-42.24242424242424" type="curve"/>
      <point x="503.72727272727275" y="-25.0" type="line"/>
      <point x="436.6969696969697" y="45.121212121212125"/>
      <point x="320.0909090909091" y="149.45454545454544"/>
      <point x="158.87878787878788" y="195.36363636363637" type="curve"/>
      <point x="161.27272727272728" y="182.96969696969697" type="line"/>
      <point x="186.45454545454544" y="178.1818181818182"/>
      <point x="212.12121212121212" y="175.60606060606062"/>
      <point x="237.06060606060606" y="175.60606060606062" type="curve" smooth="yes"/>
      <point x="358.90909090909093" y="175.60606060606062"/>
      <point x="438.45454545454544" y="239.87878787878788"/>
      <point x="438.45454545454544" y="348.030303030303" type="curve" smooth="yes"/>
      <point x="438.45454545454544" y="448.3030303030303"/>
      <point x="371.06060606060606" y="505.24242424242425"/>
      <point x="271.8484848484849" y="505.24242424242425" type="curve" smooth="yes"/>
      <point x="195.54545454545456" y="505.24242424242425"/>
      <point x="132.57575757575756" y="530.6969696969697"/>
      <point x="101.39393939393939" y="595.2121212121212" type="curve"/>
      <point x="96.03030303030303" y="573.2727272727273" type="line"/>
      <point x="123.0909090909091" y="508.969696969697"/>
      <point x="180.12121212121212" y="474.2121212121212"/>
      <point x="277.3333333333333" y="471.2121212121212" type="curve"/>
      <point x="264.3030303030303" y="487.57575757575756" type="line"/>
      <point x="265.1818181818182" y="389.6363636363636"/>
      <point x="214.21212121212122" y="312.93939393939394"/>
      <point x="155.12121212121212" y="312.93939393939394" type="curve" smooth="yes"/>
      <point x="123.54545454545455" y="312.93939393939394"/>
      <point x="106.60606060606061" y="331.1515151515151"/>
      <point x="106.60606060606061" y="367.75757575757575" type="curve" smooth="yes"/>
      <point x="106.60606060606061" y="595.2121212121212" type="line"/>
      <point x="535.2121212121212" y="595.2121212121212" type="line"/>
      <point x="516.969696969697" y="622.0" type="line"/>
      <point x="-21.12121212121212" y="622.0" type="line"/>
      <point x="-2.878787878787879" y="595.2121212121212" type="line"/>
      <point x="77.03030303030303" y="595.2121212121212" type="line"/>
      <point x="77.03030303030303" y="366.969696969697" type="line" smooth="yes"/>
      <point x="77.03030303030303" y="312.1818181818182"/>
      <point x="111.57575757575758" y="279.45454545454544"/>
      <point x="159.45454545454547" y="279.45454545454544" type="curve" smooth="yes"/>
      <point x="232.78787878787878" y="279.45454545454544"/>
      <point x="300.2121212121212" y="361.3939393939394"/>
      <point x="304.1515151515151" y="489.06060606060606" type="curve"/>
      <point x="288.3030303030303" y="475.45454545454544" type="line"/>
      <point x="352.6363636363636" y="471.5151515151515"/>
      <point x="409.030303030303" y="439.57575757575756"/>
      <point x="409.030303030303" y="355.5151515151515" type="curve" smooth="yes"/>
      <point x="409.030303030303" y="258.2121212121212"/>
      <point x="336.57575757575756" y="211.63636363636363"/>
      <point x="232.5151515151515" y="211.63636363636363" type="curve" smooth="yes"/>
      <point x="171.42424242424244" y="211.63636363636363"/>
      <point x="135.24242424242425" y="220.0"/>
      <point x="96.78787878787878" y="235.63636363636363" type="curve"/>
      <point x="114.42424242424242" y="173.0909090909091" type="line"/>
      <point x="265.3030303030303" y="142.36363636363637"/>
      <point x="402.6363636363636" y="46.878787878787875"/>
    </contour>
  </outline>
</glyph>
<glyph name="ja-beng" format="2">
  <advance width="768.1515151515151"/>
  <unicode hex="099C"/>
  <anchor x="649.1212121212121" y="94.87878787878788" name="bottom"/>
  <anchor x="667.8484848484849" y="85.75757575757575" name="bottom.rakaar"/>
  <anchor x="666.4242424242424" y="27.39393939393939" name="bottom.rvocalic"/>
  <anchor x="659.2424242424242" y="15.757575757575758" name="bottom.virama"/>
  <anchor x="416.0909090909091" y="595.2121212121212" name="top"/>
  <anchor x="419.0909090909091" y="595.2121212121212" name="topright"/>
  <anchor x="383.969696969697" y="0.0" name="vedic"/>
  <outline>
    <contour>
      <point x="343.57575757575756" y="75.12121212121212" type="curve" smooth="yes"/>
      <point x="458.030303030303" y="75.12121212121212"/>
      <point x="513.3030303030303" y="148.3030303030303"/>
      <point x="513.3030303030303" y="249.84848484848484" type="curve" smooth="yes"/>
      <point x="513.3030303030303" y="310.6969696969697"/>
      <point x="499.8787878787879" y="365.3939393939394"/>
      <point x="449.54545454545456" y="416.45454545454544" type="curve"/>
      <point x="399.6060606060606" y="343.3636363636364"/>
      <point x="357.3333333333333" y="316.75757575757575"/>
      <point x="313.6969696969697" y="316.75757575757575" type="curve" smooth="yes"/>
      <point x="270.75757575757575" y="316.75757575757575"/>
      <point x="237.87878787878788" y="346.42424242424244"/>
      <point x="237.87878787878788" y="399.8181818181818" type="curve" smooth="yes"/>
      <point x="237.87878787878788" y="498.54545454545456"/>
      <point x="347.4848484848485" y="570.7272727272727"/>
      <point x="424.0909090909091" y="595.2121212121212" type="curve"/>
      <point x="789.2727272727273" y="595.2121212121212" type="line"/>
      <point x="771.8181818181819" y="622.0" type="line"/>
      <point x="-21.12121212121212" y="622.0" type="line"/>
      <point x="-2.878787878787879" y="595.2121212121212" type="line"/>
      <point x="391.75757575757575" y="595.2121212121212" type="line"/>
      <point x="374.75757575757575" y="608.2121212121212" type="line"/>
      <point x="298.75757575757575" y="579.6363636363636"/>
      <point x="206.24242424242425" y="506.6666666666667"/>
      <point x="206.24242424242425" y="404.8484848484849" type="curve" smooth="yes"/>
      <point x="206.24242424242425" y="326.72727272727275"/>
      <point x="260.09090909090907" y="280.93939393939394"/>
      <point x="319.6060606060606" y="280.93939393939394" type="curve" smooth="yes"/>
      <point x="388.1818181818182" y="280.93939393939394"/>
      <point x="434.72727272727275" y="334.8181818181818"/>
      <point x="468.6363636363636" y="379.1515151515151" type="curve"/>
      <point x="445.8181818181818" y="380.42424242424244" type="line"/>
      <point x="472.42424242424244" y="346.8181818181818"/>
      <point x="485.7878787878788" y="316.6666666666667"/>
      <point x="485.7878787878788" y="259.1818181818182" type="curve" smooth="yes"/>
      <point x="485.7878787878788" y="166.8181818181818"/>
      <point x="433.75757575757575" y="113.84848484848484"/>
      <point x="344.1515151515151" y="113.84848484848484" type="curve" smooth="yes"/>
      <point x="193.96969696969697" y="113.84848484848484"/>
      <point x="112.96969696969697" y="264.3939393939394"/>
      <point x="60.0" y="498.3030303030303" type="curve"/>
      <point x="36.54545454545455" y="491.8181818181818" type="line"/>
      <point x="96.60606060606061" y="205.4848484848485"/>
      <point x="196.0909090909091" y="75.12121212121212"/>
    </contour>
    <contour>
      <point x="644.7575757575758" y="14.363636363636363" type="curve"/>
      <point x="666.4242424242424" y="23.696969696969695" type="line"/>
      <point x="645.060606060606" y="89.78787878787878"/>
      <point x="629.969696969697" y="150.78787878787878"/>
      <point x="629.969696969697" y="225.54545454545456" type="curve" smooth="yes"/>
      <point x="629.969696969697" y="319.24242424242425"/>
      <point x="652.030303030303" y="381.93939393939394"/>
      <point x="696.3030303030303" y="442.4848484848485" type="curve"/>
      <point x="674.3636363636364" y="477.3939393939394" type="line"/>
      <point x="568.3333333333334" y="481.3939393939394"/>
      <point x="504.0" y="515.1212121212121"/>
      <point x="437.24242424242425" y="612.4545454545455" type="curve"/>
      <point x="414.8484848484849" y="598.2424242424242" type="line"/>
      <point x="482.8181818181818" y="490.1818181818182"/>
      <point x="565.0" y="446.1212121212121"/>
      <point x="663.3636363636364" y="439.7878787878788" type="curve"/>
      <point x="656.8787878787879" y="454.54545454545456" type="line"/>
      <point x="621.8484848484849" y="405.1212121212121"/>
      <point x="599.1818181818181" y="334.0"/>
      <point x="599.1818181818181" y="242.36363636363637" type="curve" smooth="yes"/>
      <point x="599.1818181818181" y="159.78787878787878"/>
      <point x="616.5454545454545" y="89.57575757575758"/>
    </contour>
  </outline>
</glyph>
<glyph name="jha-beng" format="2">
  <advance width="659.3333333333334"/>
  <unicode hex="099D"/>
  <anchor x="417.3333333333333" y="15.030303030303031" name="bottom"/>
  <anchor x="426.27272727272725" y="54.24242424242424" name="bottom.rakaar"/>
  <anchor x="426.27272727272725" y="7.272727272727273" name="bottom.rvocalic"/>
  <anchor x="414.1515151515151" y="1.2727272727272734" name="bottom.virama"/>
  <anchor x="422.030303030303" y="595.2121212121212" name="top"/>
  <anchor x="481.0" y="595.2121212121212" name="topleft"/>
  <anchor x="425.030303030303" y="595.2121212121212" name="topright"/>
  <anchor x="329.27272727272725" y="0.0" name="vedic"/>
  <outline>
    <contour>
      <point x="422.8484848484849" y="-5.121212121212121" type="line"/>
      <point x="426.27272727272725" y="-4.121212121212121" type="line"/>
      <point x="426.27272727272725" y="622.0" type="line"/>
      <point x="-21.12121212121212" y="622.0" type="line"/>
      <point x="-2.878787878787879" y="595.2121212121212" type="line"/>
      <point x="396.6969696969697" y="595.2121212121212" type="line"/>
      <point x="396.6969696969697" y="499.27272727272725" type="line"/>
      <point x="405.8484848484849" y="515.3333333333334" type="line"/>
      <point x="282.8787878787879" y="479.3636363636364"/>
      <point x="168.84848484848484" y="414.3939393939394"/>
      <point x="47.848484848484844" y="327.5151515151515" type="curve"/>
      <point x="67.57575757575758" y="281.4848484848485" type="line"/>
      <point x="217.1818181818182" y="239.06060606060606"/>
      <point x="325.1212121212121" y="148.72727272727272"/>
      <point x="401.06060606060606" y="13.757575757575758" type="curve"/>
    </contour>
    <contour>
      <point x="396.6969696969697" y="41.06060606060606" type="line"/>
      <point x="404.4848484848485" y="52.333333333333336" type="line"/>
      <point x="333.57575757575756" y="181.36363636363637"/>
      <point x="220.5151515151515" y="270.5151515151515"/>
      <point x="83.54545454545455" y="316.3636363636364" type="curve"/>
      <point x="86.0909090909091" y="304.75757575757575" type="line"/>
      <point x="203.54545454545453" y="393.1212121212121"/>
      <point x="320.1515151515151" y="450.7878787878788"/>
      <point x="405.54545454545456" y="474.75757575757575" type="curve"/>
      <point x="396.6969696969697" y="485.030303030303" type="line"/>
    </contour>
    <contour>
      <point x="562.1515151515151" y="96.60606060606061" type="line"/>
      <point x="565.1515151515151" y="97.60606060606061" type="line"/>
      <point x="565.1515151515151" y="595.2121212121212" type="line"/>
      <point x="680.4545454545455" y="595.2121212121212" type="line"/>
      <point x="662.0" y="622.0" type="line"/>
      <point x="565.1515151515151" y="622.0" type="line"/>
      <point x="561.939393939394" y="661.8484848484849" type="line"/>
      <point x="539.5757575757576" y="679.0909090909091" type="line"/>
      <point x="535.5757575757576" y="678.0909090909091" type="line"/>
      <point x="535.5757575757576" y="142.78787878787878" type="line"/>
      <point x="543.3636363636364" y="154.06060606060606" type="line"/>
      <point x="508.5151515151515" y="219.12121212121212"/>
      <point x="465.6666666666667" y="278.3636363636364"/>
      <point x="415.09090909090907" y="319.8787878787879" type="curve"/>
      <point x="408.09090909090907" y="285.8484848484849" type="line"/>
      <point x="459.93939393939394" y="245.03030303030303"/>
      <point x="503.72727272727275" y="182.78787878787878"/>
      <point x="539.939393939394" y="115.48484848484848" type="curve"/>
    </contour>
  </outline>
</glyph>
<glyph name="nya-beng" format="2">
  <advance width="890.7878787878788"/>
  <unicode hex="099E"/>
  <anchor x="540.4242424242424" y="11.878787878787879" name="bottom"/>
  <anchor x="587.7575757575758" y="51.09090909090909" name="bottom.rakaar"/>
  <anchor x="549.3636363636364" y="3.2727272727272734" name="bottom.rvocalic"/>
  <anchor x="537.2424242424242" y="-1.878787878787879" name="bottom.virama"/>
  <anchor x="483.90909090909093" y="595.2121212121212" name="top"/>
  <anchor x="486.90909090909093" y="595.2121212121212" name="topright"/>
  <anchor x="445.0" y="0.0" name="vedic"/>
  <outline>
    <contour>
      <point x="711.5757575757576" y="85.72727272727272" type="curve" smooth="yes"/>
      <point x="784.1212121212121" y="85.72727272727272"/>
      <point x="823.6666666666666" y="139.33333333333334"/>
      <point x="823.6666666666666" y="215.3030303030303" type="curve" smooth="yes"/>
      <point x="823.6666666666666" y="278.1212121212121"/>
      <point x="790.9090909090909" y="321.8181818181818"/>
      <point x="760.5151515151515" y="346.42424242424244" type="curve"/>
      <point x="764.0" y="329.06060606060606" type="line"/>
      <point x="792.4242424242424" y="357.6969696969697"/>
      <point x="819.0909090909091" y="406.1818181818182"/>
      <point x="819.0909090909091" y="473.7878787878788" type="curve" smooth="yes"/>
      <point x="819.0909090909091" y="539.4545454545455"/>
      <point x="786.2727272727273" y="596.2121212121212"/>
      <point x="720.1515151515151" y="596.2121212121212" type="curve" smooth="yes"/>
      <point x="620.0909090909091" y="596.2121212121212"/>
      <point x="546.3939393939394" y="449.6969696969697"/>
      <point x="538.3939393939394" y="379.2121212121212" type="curve"/>
      <point x="538.3939393939394" y="300.06060606060606" type="line"/>
      <point x="553.6060606060606" y="188.42424242424244"/>
      <point x="623.5757575757576" y="85.72727272727272"/>
    </contour>
    <contour>
      <point x="711.1515151515151" y="123.39393939393939" type="curve" smooth="yes"/>
      <point x="623.060606060606" y="123.39393939393939"/>
      <point x="555.0" y="245.06060606060606"/>
      <point x="555.0" y="334.030303030303" type="curve" smooth="yes"/>
      <point x="555.0" y="409.93939393939394"/>
      <point x="620.7272727272727" y="559.3939393939394"/>
      <point x="720.8787878787879" y="559.3939393939394" type="curve" smooth="yes"/>
      <point x="765.7272727272727" y="559.3939393939394"/>
      <point x="791.7878787878788" y="524.6363636363636"/>
      <point x="791.7878787878788" y="479.1212121212121" type="curve" smooth="yes"/>
      <point x="791.7878787878788" y="421.24242424242425"/>
      <point x="766.7272727272727" y="376.42424242424244"/>
      <point x="727.8787878787879" y="353.1212121212121" type="curve"/>
      <point x="752.8787878787879" y="351.57575757575756" type="line"/>
      <point x="731.3030303030303" y="374.1212121212121"/>
      <point x="711.3333333333334" y="380.54545454545456"/>
      <point x="691.060606060606" y="380.54545454545456" type="curve" smooth="yes"/>
      <point x="663.6666666666666" y="380.54545454545456"/>
      <point x="642.7575757575758" y="364.2121212121212"/>
      <point x="642.7575757575758" y="335.24242424242425" type="curve" smooth="yes"/>
      <point x="642.7575757575758" y="304.6363636363636"/>
      <point x="663.3030303030303" y="290.09090909090907"/>
      <point x="692.6969696969697" y="290.09090909090907" type="curve" smooth="yes"/>
      <point x="719.0909090909091" y="290.09090909090907"/>
      <point x="739.5757575757576" y="301.57575757575756"/>
      <point x="759.0" y="323.27272727272725" type="curve"/>
      <point x="737.030303030303" y="331.54545454545456" type="line"/>
      <point x="765.5454545454545" y="311.3939393939394"/>
      <point x="796.7878787878788" y="280.1818181818182"/>
      <point x="796.7878787878788" y="220.27272727272728" type="curve" smooth="yes"/>
      <point x="796.7878787878788" y="156.6060606060606"/>
      <point x="763.6363636363636" y="123.39393939393939"/>
    </contour>
    <component base="e-beng"/>
  </outline>
</glyph>
<glyph name="tta-beng" format="2">
  <advance width="487.1818181818182"/>
  <unicode hex="099F"/>
  <anchor x="296.3636363636364" y="55.21212121212121" name="bottom"/>
  <anchor x="355.030303030303" y="12.09090909090909" name="bottom.rakaar"/>
  <anchor x="281.1818181818182" y="63.63636363636364" name="bottom.rvocalic"/>
  <anchor x="235.4848484848485" y="47.303030303030305" name="bottom.virama"/>
  <anchor x="265.5151515151515" y="645.6363636363636" name="top"/>
  <anchor x="215.6969696969697" y="652.8181818181819" name="topright"/>
  <anchor x="243.4848484848485" y="0.0" name="vedic"/>
  <anchor x="206.75757575757575" y="-40.484848484848484" name="nukta"/>
  <outline>
    <contour>
      <point x="376.8484848484849" y="616.7272727272727" type="curve"/>
      <point x="401.1515151515151" y="616.7272727272727" type="line"/>
      <point x="397.5151515151515" y="724.6666666666666"/>
      <point x="359.93939393939394" y="776.6363636363636"/>
      <point x="287.06060606060606" y="776.6363636363636" type="curve" smooth="yes"/>
      <point x="238.1818181818182" y="776.6363636363636"/>
      <point x="196.54545454545456" y="764.4848484848485"/>
      <point x="143.66666666666666" y="764.4848484848485" type="curve" smooth="yes"/>
      <point x="78.60606060606061" y="764.4848484848485"/>
      <point x="52.696969696969695" y="790.0"/>
      <point x="52.696969696969695" y="865.4545454545455" type="curve" smooth="yes"/>
      <point x="52.696969696969695" y="876.6666666666666"/>
      <point x="53.696969696969695" y="889.2424242424242"/>
      <point x="55.484848484848484" y="901.1818181818181" type="curve"/>
      <point x="32.60606060606061" y="903.6060606060606" type="line"/>
      <point x="30.606060606060606" y="892.5454545454545"/>
      <point x="28.606060606060606" y="873.1212121212121"/>
      <point x="28.606060606060606" y="857.6969696969697" type="curve" smooth="yes"/>
      <point x="28.606060606060606" y="768.6969696969697"/>
      <point x="66.45454545454545" y="728.1212121212121"/>
      <point x="143.03030303030303" y="728.1212121212121" type="curve" smooth="yes"/>
      <point x="198.8181818181818" y="728.1212121212121"/>
      <point x="235.57575757575756" y="740.4848484848485"/>
      <point x="293.6969696969697" y="740.4848484848485" type="curve" smooth="yes"/>
      <point x="350.42424242424244" y="740.4848484848485"/>
      <point x="375.42424242424244" y="692.3636363636364"/>
    </contour>
    <component base="ddha-beng"/>
  </outline>
</glyph>
<glyph name="ttha-beng" format="2">
  <advance width="535.969696969697"/>
  <unicode hex="09A0"/>
  <anchor x="312.1212121212121" y="3.9393939393939394" name="bottom"/>
  <anchor x="443.2121212121212" y="-23.60606060606061" name="bottom.rakaar"/>
  <anchor x="338.4848484848485" y="17.333333333333332" name="bottom.rvocalic"/>
  <anchor x="316.27272727272725" y="0.0" name="bottom.virama"/>
  <anchor x="411.030303030303" y="557.0" name="top"/>
  <anchor x="411.030303030303" y="617.0" name="topleft"/>
  <anchor x="299.75757575757575" y="595.2121212121212" name="topright"/>
  <anchor x="267.4848484848485" y="0.0" name="vedic"/>
  <outline>
    <contour>
      <point x="280.3636363636364" y="17.606060606060606" type="curve" smooth="yes"/>
      <point x="392.3939393939394" y="17.606060606060606"/>
      <point x="461.6666666666667" y="94.06060606060606"/>
      <point x="461.6666666666667" y="217.96969696969697" type="curve" smooth="yes"/>
      <point x="461.6666666666667" y="349.27272727272725"/>
      <point x="391.1515151515151" y="463.969696969697"/>
      <point x="277.3636363636364" y="595.2121212121212" type="curve"/>
      <point x="557.0909090909091" y="595.2121212121212" type="line"/>
      <point x="539.8484848484849" y="622.0" type="line"/>
      <point x="245.0" y="622.0" type="line"/>
      <point x="208.21212121212122" y="667.0909090909091"/>
      <point x="175.4848484848485" y="717.7575757575758"/>
      <point x="175.4848484848485" y="776.0909090909091" type="curve" smooth="yes"/>
      <point x="175.4848484848485" y="816.2424242424242"/>
      <point x="190.3939393939394" y="845.6060606060606"/>
      <point x="236.8181818181818" y="873.4545454545455" type="curve"/>
      <point x="212.84848484848484" y="901.7878787878788" type="line"/>
      <point x="166.6060606060606" y="873.969696969697"/>
      <point x="144.3030303030303" y="838.6969696969697"/>
      <point x="144.3030303030303" y="786.2424242424242" type="curve" smooth="yes"/>
      <point x="144.3030303030303" y="727.8181818181819"/>
      <point x="171.12121212121212" y="677.8181818181819"/>
      <point x="214.21212121212122" y="622.0" type="curve"/>
      <point x="-21.12121212121212" y="622.0" type="line"/>
      <point x="-2.878787878787879" y="595.2121212121212" type="line"/>
      <point x="227.96969696969697" y="595.2121212121212" type="line"/>
      <point x="247.33333333333334" y="564.939393939394"/>
      <point x="253.96969696969697" y="509.3939393939394"/>
      <point x="253.96969696969697" y="470.969696969697" type="curve" smooth="yes"/>
      <point x="253.96969696969697" y="357.54545454545456"/>
      <point x="205.1818181818182" y="276.90909090909093"/>
      <point x="55.90909090909091" y="241.75757575757575" type="curve"/>
      <point x="85.12121212121212" y="97.18181818181819"/>
      <point x="165.6060606060606" y="17.606060606060606"/>
    </contour>
    <contour>
      <point x="275.8181818181818" y="49.66666666666667" type="curve" smooth="yes"/>
      <point x="170.24242424242425" y="49.66666666666667"/>
      <point x="110.51515151515152" y="138.1818181818182"/>
      <point x="95.54545454545455" y="230.63636363636363" type="curve"/>
      <point x="83.69696969696969" y="208.3030303030303" type="line"/>
      <point x="206.8181818181818" y="238.15151515151516"/>
      <point x="282.8181818181818" y="309.3333333333333"/>
      <point x="282.8181818181818" y="447.3636363636364" type="curve" smooth="yes"/>
      <point x="282.8181818181818" y="501.3636363636364"/>
      <point x="272.2121212121212" y="552.4242424242424"/>
      <point x="249.78787878787878" y="603.1212121212121" type="curve"/>
      <point x="246.0909090909091" y="599.969696969697" type="line"/>
      <point x="337.45454545454544" y="481.6666666666667"/>
      <point x="425.2121212121212" y="368.24242424242425"/>
      <point x="425.2121212121212" y="227.96969696969697" type="curve" smooth="yes"/>
      <point x="425.2121212121212" y="97.96969696969697"/>
      <point x="352.57575757575756" y="49.66666666666667"/>
    </contour>
  </outline>
</glyph>
<glyph name="dda-beng" format="2">
  <advance width="630.6060606060606"/>
  <unicode hex="09A1"/>
  <anchor x="396.6363636363636" y="58.42424242424242" name="bottom"/>
  <anchor x="497.24242424242425" y="-21.757575757575758" name="bottom.rakaar"/>
  <anchor x="415.6060606060606" y="76.93939393939394" name="bottom.rvocalic"/>
  <anchor x="380.2121212121212" y="26.606060606060606" name="bottom.virama"/>
  <anchor x="334.0" y="-22.60606060606061" name="nukta"/>
  <anchor x="286.3333333333333" y="595.2121212121212" name="top"/>
  <anchor x="289.3333333333333" y="595.2121212121212" name="topright"/>
  <anchor x="315.3030303030303" y="0.0" name="vedic"/>
  <outline>
    <contour>
      <point x="367.0" y="76.78787878787878" type="curve" smooth="yes"/>
      <point x="498.6363636363636" y="76.78787878787878"/>
      <point x="566.9090909090909" y="163.06060606060606"/>
      <point x="566.9090909090909" y="280.9090909090909" type="curve" smooth="yes"/>
      <point x="566.9090909090909" y="363.72727272727275"/>
      <point x="538.4242424242424" y="415.75757575757575"/>
      <point x="504.06060606060606" y="450.2121212121212" type="curve"/>
      <point x="456.3939393939394" y="388.2121212121212"/>
      <point x="389.93939393939394" y="328.7878787878788"/>
      <point x="334.8787878787879" y="328.7878787878788" type="curve" smooth="yes"/>
      <point x="302.06060606060606" y="328.7878787878788"/>
      <point x="286.3333333333333" y="345.0909090909091"/>
      <point x="286.3333333333333" y="371.75757575757575" type="curve" smooth="yes"/>
      <point x="286.3333333333333" y="595.2121212121212" type="line"/>
      <point x="651.7272727272727" y="595.2121212121212" type="line"/>
      <point x="633.4848484848485" y="622.0" type="line"/>
      <point x="-21.12121212121212" y="622.0" type="line"/>
      <point x="-2.878787878787879" y="595.2121212121212" type="line"/>
      <point x="256.75757575757575" y="595.2121212121212" type="line"/>
      <point x="256.75757575757575" y="369.24242424242425" type="line" smooth="yes"/>
      <point x="256.75757575757575" y="338.3939393939394"/>
      <point x="269.1212121212121" y="320.27272727272725"/>
      <point x="285.6060606060606" y="308.93939393939394" type="curve" smooth="yes"/>
      <point x="301.24242424242425" y="298.24242424242425"/>
      <point x="318.7878787878788" y="293.1212121212121"/>
      <point x="339.54545454545456" y="293.1212121212121" type="curve" smooth="yes"/>
      <point x="399.54545454545456" y="293.1212121212121"/>
      <point x="461.030303030303" y="337.75757575757575"/>
      <point x="518.4242424242424" y="407.1212121212121" type="curve"/>
      <point x="497.969696969697" y="411.3636363636364" type="line"/>
      <point x="518.6666666666666" y="389.42424242424244"/>
      <point x="537.969696969697" y="355.54545454545456"/>
      <point x="537.969696969697" y="291.09090909090907" type="curve" smooth="yes"/>
      <point x="537.969696969697" y="177.5151515151515"/>
      <point x="471.3030303030303" y="116.57575757575758"/>
      <point x="368.7878787878788" y="116.57575757575758" type="curve" smooth="yes"/>
      <point x="200.66666666666666" y="116.57575757575758"/>
      <point x="128.9090909090909" y="278.5151515151515"/>
      <point x="65.84848484848484" y="497.3030303030303" type="curve"/>
      <point x="41.18181818181818" y="491.030303030303" type="line"/>
      <point x="110.33333333333333" y="220.87878787878788"/>
      <point x="203.42424242424244" y="76.78787878787878"/>
    </contour>
  </outline>
</glyph>
<glyph name="ddha-beng" format="2">
  <advance width="487.1818181818182"/>
  <unicode hex="09A2"/>
  <anchor x="294.0" y="54.42424242424242" name="bottom"/>
  <anchor x="355.030303030303" y="12.09090909090909" name="bottom.rakaar"/>
  <anchor x="280.75757575757575" y="63.21212121212121" name="bottom.rvocalic"/>
  <anchor x="235.4848484848485" y="47.303030303030305" name="bottom.virama"/>
  <anchor x="206.75757575757575" y="-40.484848484848484" name="nukta"/>
  <anchor x="123.75757575757575" y="595.2121212121212" name="top"/>
  <anchor x="126.75757575757575" y="595.2121212121212" name="topright"/>
  <anchor x="243.4848484848485" y="0.0" name="vedic"/>
  <outline>
    <contour>
      <point x="194.96969696969697" y="58.06060606060606" type="curve" smooth="yes"/>
      <point x="312.3636363636364" y="58.06060606060606"/>
      <point x="424.27272727272725" y="218.45454545454544"/>
      <point x="424.27272727272725" y="351.6969696969697" type="curve" smooth="yes"/>
      <point x="424.27272727272725" y="404.0909090909091"/>
      <point x="397.3333333333333" y="434.93939393939394"/>
      <point x="356.09090909090907" y="434.93939393939394" type="curve" smooth="yes"/>
      <point x="317.57575757575756" y="434.93939393939394"/>
      <point x="296.8181818181818" y="407.3333333333333"/>
      <point x="296.8181818181818" y="377.5151515151515" type="curve" smooth="yes"/>
      <point x="296.8181818181818" y="344.06060606060606"/>
      <point x="318.1515151515151" y="321.3030303030303"/>
      <point x="352.8181818181818" y="321.3030303030303" type="curve" smooth="yes"/>
      <point x="375.57575757575756" y="321.3030303030303"/>
      <point x="388.72727272727275" y="331.1515151515151"/>
      <point x="399.1515151515151" y="350.8787878787879" type="curve"/>
      <point x="386.969696969697" y="359.3939393939394" type="line"/>
      <point x="384.3333333333333" y="223.24242424242425"/>
      <point x="281.6363636363636" y="90.96969696969697"/>
      <point x="193.06060606060606" y="90.96969696969697" type="curve" smooth="yes"/>
      <point x="149.33333333333334" y="90.96969696969697"/>
      <point x="123.75757575757575" y="119.27272727272728"/>
      <point x="123.75757575757575" y="158.84848484848484" type="curve" smooth="yes"/>
      <point x="123.75757575757575" y="595.2121212121212" type="line"/>
      <point x="508.3030303030303" y="595.2121212121212" type="line"/>
      <point x="490.06060606060606" y="622.0" type="line"/>
      <point x="-21.12121212121212" y="622.0" type="line"/>
      <point x="-2.4545454545454533" y="595.2121212121212" type="line"/>
      <point x="94.18181818181819" y="595.2121212121212" type="line"/>
      <point x="94.18181818181819" y="157.63636363636363" type="line" smooth="yes"/>
      <point x="94.18181818181819" y="98.60606060606061"/>
      <point x="134.78787878787878" y="58.06060606060606"/>
    </contour>
  </outline>
</glyph>
<glyph name="nna-beng" format="2">
  <advance width="544.8787878787879"/>
  <unicode hex="09A3"/>
  <anchor x="434.969696969697" y="68.69696969696969" name="bottom"/>
  <anchor x="450.6969696969697" y="-14.03030303030303" name="bottom.rakaar"/>
  <anchor x="450.6969696969697" y="-0.4242424242424243" name="bottom.rvocalic"/>
  <anchor x="442.5151515151515" y="5.212121212121212" name="bottom.virama"/>
  <anchor x="450.6969696969697" y="548.1818181818181" name="top"/>
  <anchor x="448.27272727272725" y="561.4545454545455" name="topright"/>
  <anchor x="272.3333333333333" y="0.0" name="vedic"/>
  <outline>
    <contour>
      <point x="447.6969696969697" y="-13.181818181818182" type="line"/>
      <point x="450.6969696969697" y="-12.181818181818182" type="line"/>
      <point x="450.6969696969697" y="595.2121212121212" type="line"/>
      <point x="566.0" y="595.2121212121212" type="line"/>
      <point x="547.5454545454545" y="622.0" type="line"/>
      <point x="450.6969696969697" y="622.0" type="line"/>
      <point x="447.4848484848485" y="661.8484848484849" type="line"/>
      <point x="425.1212121212121" y="679.0909090909091" type="line"/>
      <point x="421.1212121212121" y="678.0909090909091" type="line"/>
      <point x="421.1212121212121" y="579.3939393939394" type="line" smooth="yes"/>
      <point x="421.1212121212121" y="526.6666666666666"/>
      <point x="422.54545454545456" y="461.2121212121212"/>
      <point x="425.3333333333333" y="410.8787878787879" type="curve"/>
      <point x="431.4848484848485" y="410.8484848484849" type="line"/>
      <point x="338.2121212121212" y="583.0"/>
      <point x="277.2121212121212" y="627.0"/>
      <point x="197.0" y="627.0" type="curve" smooth="yes"/>
      <point x="119.18181818181819" y="627.0"/>
      <point x="55.75757575757576" y="570.7575757575758"/>
      <point x="55.75757575757576" y="473.6969696969697" type="curve" smooth="yes"/>
      <point x="55.75757575757576" y="386.6363636363636"/>
      <point x="111.21212121212122" y="320.9090909090909"/>
      <point x="196.0" y="320.9090909090909" type="curve" smooth="yes"/>
      <point x="240.6060606060606" y="320.9090909090909"/>
      <point x="265.93939393939394" y="344.6666666666667"/>
      <point x="265.93939393939394" y="382.6363636363636" type="curve" smooth="yes"/>
      <point x="265.93939393939394" y="415.24242424242425"/>
      <point x="244.6060606060606" y="438.0"/>
      <point x="210.57575757575756" y="438.0" type="curve" smooth="yes"/>
      <point x="180.6060606060606" y="438.0"/>
      <point x="158.27272727272728" y="415.8787878787879"/>
      <point x="158.27272727272728" y="385.6969696969697" type="curve" smooth="yes"/>
      <point x="158.27272727272728" y="367.1818181818182"/>
      <point x="166.21212121212122" y="351.75757575757575"/>
      <point x="176.15151515151516" y="344.9090909090909" type="curve"/>
      <point x="196.0909090909091" y="358.72727272727275" type="line"/>
      <point x="188.45454545454544" y="356.72727272727275"/>
      <point x="180.6060606060606" y="356.5151515151515"/>
      <point x="173.75757575757575" y="356.5151515151515" type="curve" smooth="yes"/>
      <point x="126.87878787878788" y="356.5151515151515"/>
      <point x="85.33333333333333" y="401.9090909090909"/>
      <point x="85.33333333333333" y="469.8181818181818" type="curve" smooth="yes"/>
      <point x="85.33333333333333" y="550.0"/>
      <point x="143.63636363636363" y="588.5757575757576"/>
      <point x="201.33333333333334" y="588.5757575757576" type="curve" smooth="yes"/>
      <point x="286.1212121212121" y="588.5757575757576"/>
      <point x="343.6363636363636" y="528.5151515151515"/>
      <point x="428.54545454545456" y="371.3030303030303" type="curve"/>
      <point x="421.1212121212121" y="403.969696969697" type="line"/>
      <point x="421.1212121212121" y="3.0" type="line"/>
    </contour>
  </outline>
</glyph>
<glyph name="ta-beng" format="2">
  <advance width="635.030303030303"/>
  <unicode hex="09A4"/>
  <anchor x="425.27272727272725" y="67.78787878787878" name="bottom"/>
  <anchor x="514.060606060606" y="-13.969696969696969" name="bottom.rakaar"/>
  <anchor x="434.1212121212121" y="84.93939393939394" name="bottom.rvocalic"/>
  <anchor x="397.030303030303" y="34.39393939393939" name="bottom.virama"/>
  <anchor x="380.1515151515151" y="595.2121212121212" name="top"/>
  <anchor x="383.1515151515151" y="595.2121212121212" name="topright"/>
  <anchor x="317.5151515151515" y="0.0" name="vedic"/>
  <outline>
    <contour>
      <point x="389.3333333333333" y="84.57575757575758" type="curve" smooth="yes"/>
      <point x="491.7878787878788" y="84.57575757575758"/>
      <point x="568.060606060606" y="141.54545454545453"/>
      <point x="571.2121212121212" y="270.72727272727275" type="curve" smooth="yes"/>
      <point x="574.3636363636364" y="395.93939393939394"/>
      <point x="491.4848484848485" y="487.5151515151515"/>
      <point x="369.27272727272725" y="487.5151515151515" type="curve" smooth="yes"/>
      <point x="299.5151515151515" y="487.5151515151515"/>
      <point x="270.6363636363636" y="455.4848484848485"/>
      <point x="270.6363636363636" y="411.3333333333333" type="curve" smooth="yes"/>
      <point x="270.6363636363636" y="372.24242424242425"/>
      <point x="295.969696969697" y="343.72727272727275"/>
      <point x="337.1818181818182" y="343.72727272727275" type="curve" smooth="yes"/>
      <point x="377.8484848484849" y="343.72727272727275"/>
      <point x="399.24242424242425" y="371.1212121212121"/>
      <point x="399.24242424242425" y="409.0" type="curve" smooth="yes"/>
      <point x="399.24242424242425" y="433.969696969697"/>
      <point x="387.6060606060606" y="457.45454545454544"/>
      <point x="368.6666666666667" y="467.72727272727275" type="curve"/>
      <point x="338.5151515151515" y="434.969696969697" type="line"/>
      <point x="348.93939393939394" y="441.3333333333333"/>
      <point x="368.8787878787879" y="448.8484848484849"/>
      <point x="394.3333333333333" y="448.8484848484849" type="curve" smooth="yes"/>
      <point x="466.6060606060606" y="448.8484848484849"/>
      <point x="542.6363636363636" y="392.8787878787879"/>
      <point x="542.6363636363636" y="282.27272727272725" type="curve" smooth="yes"/>
      <point x="542.6363636363636" y="178.3939393939394"/>
      <point x="483.8484848484849" y="124.57575757575758"/>
      <point x="386.6060606060606" y="124.57575757575758" type="curve" smooth="yes"/>
      <point x="262.7878787878788" y="124.57575757575758"/>
      <point x="141.15151515151516" y="225.66666666666666"/>
      <point x="54.06060606060606" y="502.6363636363636" type="curve"/>
      <point x="30.39393939393939" y="495.93939393939394" type="line"/>
      <point x="122.0" y="186.78787878787878"/>
      <point x="252.63636363636363" y="84.57575757575758"/>
    </contour>
    <contour>
      <point x="-3.090909090909091" y="595.2121212121212" type="line"/>
      <point x="656.1515151515151" y="595.2121212121212" type="line"/>
      <point x="637.9090909090909" y="622.0" type="line"/>
      <point x="-21.12121212121212" y="622.0" type="line"/>
    </contour>
  </outline>
</glyph>
<glyph name="tha-beng" format="2">
  <advance width="542.969696969697"/>
  <unicode hex="09A5"/>
  <anchor x="439.8484848484849" y="15.030303030303031" name="bottom"/>
  <anchor x="448.7878787878788" y="54.24242424242424" name="bottom.rakaar"/>
  <anchor x="448.7878787878788" y="7.272727272727273" name="bottom.rvocalic"/>
  <anchor x="436.6666666666667" y="1.2727272727272734" name="bottom.virama"/>
  <anchor x="448.7878787878788" y="548.1818181818181" name="top"/>
  <anchor x="446.3636363636364" y="561.4545454545455" name="topright"/>
  <anchor x="271.4848484848485" y="0.0" name="vedic"/>
  <outline>
    <contour>
      <point x="445.3636363636364" y="-5.121212121212121" type="line"/>
      <point x="448.7878787878788" y="-4.121212121212121" type="line"/>
      <point x="448.7878787878788" y="595.2121212121212" type="line"/>
      <point x="564.0909090909091" y="595.2121212121212" type="line"/>
      <point x="545.6363636363636" y="622.0" type="line"/>
      <point x="448.7878787878788" y="622.0" type="line"/>
      <point x="445.57575757575756" y="661.8484848484849" type="line"/>
      <point x="423.2121212121212" y="679.0909090909091" type="line"/>
      <point x="419.2121212121212" y="678.0909090909091" type="line"/>
      <point x="419.2121212121212" y="41.06060606060606" type="line"/>
      <point x="427.0" y="52.333333333333336" type="line"/>
      <point x="358.8181818181818" y="181.12121212121212"/>
      <point x="248.63636363636363" y="268.93939393939394"/>
      <point x="106.36363636363637" y="318.969696969697" type="curve"/>
      <point x="111.27272727272728" y="302.93939393939394" type="line"/>
      <point x="250.93939393939394" y="322.72727272727275"/>
      <point x="313.7878787878788" y="383.54545454545456"/>
      <point x="313.7878787878788" y="472.6363636363636" type="curve" smooth="yes"/>
      <point x="313.7878787878788" y="574.6969696969697"/>
      <point x="240.93939393939394" y="623.4242424242424"/>
      <point x="161.06060606060606" y="623.4242424242424" type="curve" smooth="yes"/>
      <point x="80.72727272727272" y="623.4242424242424"/>
      <point x="32.878787878787875" y="577.0"/>
      <point x="32.878787878787875" y="528.6060606060606" type="curve" smooth="yes"/>
      <point x="32.878787878787875" y="490.6666666666667"/>
      <point x="55.90909090909091" y="467.75757575757575"/>
      <point x="87.30303030303031" y="467.75757575757575" type="curve" smooth="yes"/>
      <point x="116.75757575757575" y="467.75757575757575"/>
      <point x="136.24242424242425" y="486.09090909090907"/>
      <point x="136.24242424242425" y="515.6363636363636" type="curve" smooth="yes"/>
      <point x="136.24242424242425" y="539.6969696969697"/>
      <point x="121.0909090909091" y="562.4848484848485"/>
      <point x="86.63636363636364" y="562.3030303030303" type="curve"/>
      <point x="88.93939393939394" y="546.1212121212121" type="line"/>
      <point x="95.84848484848484" y="564.5454545454545"/>
      <point x="122.0" y="591.0909090909091"/>
      <point x="173.42424242424244" y="591.0909090909091" type="curve" smooth="yes"/>
      <point x="247.42424242424244" y="591.0909090909091"/>
      <point x="284.0" y="540.7575757575758"/>
      <point x="284.0" y="480.24242424242425" type="curve" smooth="yes"/>
      <point x="284.0" y="385.75757575757575"/>
      <point x="183.15151515151516" y="343.1515151515151"/>
      <point x="64.93939393939394" y="336.54545454545456" type="curve"/>
      <point x="84.45454545454545" y="286.0" type="line"/>
      <point x="236.1818181818182" y="243.78787878787878"/>
      <point x="347.6363636363636" y="154.24242424242425"/>
      <point x="423.57575757575756" y="13.757575757575758" type="curve"/>
    </contour>
  </outline>
</glyph>
<glyph name="da-beng" format="2">
  <advance width="503.1212121212121"/>
  <unicode hex="09A6"/>
  <anchor x="406.6666666666667" y="83.06060606060606" name="bottom"/>
  <anchor x="423.6060606060606" y="70.0" name="bottom.rakaar"/>
  <anchor x="413.5151515151515" y="13.212121212121213" name="bottom.rvocalic"/>
  <anchor x="415.0" y="0.0" name="bottom.virama"/>
  <anchor x="118.06060606060606" y="595.2121212121212" name="top"/>
  <anchor x="121.06060606060606" y="595.2121212121212" name="topright"/>
  <anchor x="251.06060606060606" y="0.0" name="vedic"/>
  <outline>
    <contour>
      <point x="399.72727272727275" y="-1.3939393939393945" type="curve"/>
      <point x="422.969696969697" y="7.9393939393939394" type="line"/>
      <point x="402.54545454545456" y="71.87878787878788"/>
      <point x="384.030303030303" y="132.8181818181818"/>
      <point x="384.030303030303" y="224.33333333333331" type="curve" smooth="yes"/>
      <point x="384.030303030303" y="314.2121212121212"/>
      <point x="406.24242424242425" y="391.27272727272725"/>
      <point x="434.90909090909093" y="437.6969696969697" type="curve"/>
      <point x="395.75757575757575" y="477.5151515151515" type="line"/>
      <point x="304.45454545454544" y="433.06060606060606"/>
      <point x="166.42424242424244" y="320.8484848484849"/>
      <point x="103.36363636363636" y="245.12121212121212" type="curve"/>
      <point x="118.06060606060606" y="235.78787878787878" type="line"/>
      <point x="118.06060606060606" y="595.2121212121212" type="line"/>
      <point x="524.2424242424242" y="595.2121212121212" type="line"/>
      <point x="506.7878787878788" y="622.0" type="line"/>
      <point x="-21.12121212121212" y="622.0" type="line"/>
      <point x="-2.090909090909091" y="595.2121212121212" type="line"/>
      <point x="88.48484848484848" y="595.2121212121212" type="line"/>
      <point x="88.48484848484848" y="220.54545454545453" type="line"/>
      <point x="115.42424242424242" y="204.0909090909091" type="line"/>
      <point x="204.6969696969697" y="301.8787878787879"/>
      <point x="327.3636363636364" y="399.2121212121212"/>
      <point x="407.3030303030303" y="438.93939393939394" type="curve"/>
      <point x="399.54545454545456" y="446.1515151515151" type="line"/>
      <point x="373.9090909090909" y="409.3636363636364"/>
      <point x="352.8181818181818" y="322.24242424242425"/>
      <point x="352.8181818181818" y="238.6969696969697" type="curve" smooth="yes"/>
      <point x="352.8181818181818" y="152.8181818181818"/>
      <point x="371.8181818181818" y="72.66666666666667"/>
    </contour>
  </outline>
</glyph>
<glyph name="dha-beng" format="2">
  <advance width="510.4848484848485"/>
  <unicode hex="09A7"/>
  <anchor x="407.3636363636364" y="15.030303030303031" name="bottom"/>
  <anchor x="416.3030303030303" y="54.24242424242424" name="bottom.rakaar"/>
  <anchor x="416.3030303030303" y="7.272727272727273" name="bottom.rvocalic"/>
  <anchor x="404.1818181818182" y="1.2727272727272734" name="bottom.virama"/>
  <anchor x="416.3030303030303" y="595.2121212121212" name="top"/>
  <anchor x="419.3030303030303" y="595.2121212121212" name="topright"/>
  <anchor x="254.84848484848484" y="0.0" name="vedic"/>
  <outline>
    <contour>
      <point x="412.8787878787879" y="-5.121212121212121" type="line"/>
      <point x="416.3030303030303" y="-4.121212121212121" type="line"/>
      <point x="416.3030303030303" y="595.2121212121212" type="line"/>
      <point x="531.6060606060606" y="595.2121212121212" type="line"/>
      <point x="513.3636363636364" y="622.0" type="line"/>
      <point x="386.72727272727275" y="622.0" type="line"/>
      <point x="386.72727272727275" y="503.969696969697" type="line"/>
      <point x="395.8787878787879" y="520.030303030303" type="line"/>
      <point x="280.7878787878788" y="476.1818181818182"/>
      <point x="162.8181818181818" y="419.09090909090907"/>
      <point x="37.878787878787875" y="332.2121212121212" type="curve"/>
      <point x="57.60606060606061" y="286.1818181818182" type="line"/>
      <point x="204.66666666666666" y="242.9090909090909"/>
      <point x="317.5151515151515" y="155.12121212121212"/>
      <point x="391.09090909090907" y="13.757575757575758" type="curve"/>
    </contour>
    <contour>
      <point x="386.72727272727275" y="41.06060606060606" type="line"/>
      <point x="394.5151515151515" y="52.333333333333336" type="line"/>
      <point x="324.45454545454544" y="188.78787878787878"/>
      <point x="210.75757575757575" y="272.72727272727275"/>
      <point x="73.57575757575758" y="321.06060606060606" type="curve"/>
      <point x="76.12121212121212" y="309.45454545454544" type="line"/>
      <point x="197.5151515151515" y="397.8181818181818"/>
      <point x="318.06060606060606" y="447.6060606060606"/>
      <point x="395.57575757575756" y="479.45454545454544" type="curve"/>
      <point x="386.72727272727275" y="489.72727272727275" type="line"/>
    </contour>
    <contour>
      <point x="193.27272727272728" y="413.6666666666667" type="curve"/>
      <point x="210.33333333333334" y="432.27272727272725" type="line"/>
      <point x="159.9090909090909" y="443.0"/>
      <point x="113.51515151515152" y="469.06060606060606"/>
      <point x="113.51515151515152" y="521.969696969697" type="curve" smooth="yes"/>
      <point x="113.51515151515152" y="575.6666666666666"/>
      <point x="150.6969696969697" y="594.2424242424242"/>
      <point x="184.63636363636363" y="594.2424242424242" type="curve" smooth="yes"/>
      <point x="195.0" y="594.2424242424242"/>
      <point x="204.78787878787878" y="593.2424242424242"/>
      <point x="213.0" y="590.2424242424242" type="curve"/>
      <point x="200.4848484848485" y="606.5454545454545" type="line"/>
      <point x="186.1818181818182" y="598.6969696969697"/>
      <point x="182.3939393939394" y="584.6969696969697"/>
      <point x="182.3939393939394" y="571.9090909090909" type="curve" smooth="yes"/>
      <point x="182.3939393939394" y="544.5757575757576"/>
      <point x="202.3030303030303" y="530.3030303030303"/>
      <point x="224.21212121212122" y="530.3030303030303" type="curve" smooth="yes"/>
      <point x="247.96969696969697" y="530.3030303030303"/>
      <point x="265.3030303030303" y="546.2121212121212"/>
      <point x="265.3030303030303" y="572.7575757575758" type="curve" smooth="yes"/>
      <point x="265.3030303030303" y="601.939393939394"/>
      <point x="243.96969696969697" y="630.2121212121212"/>
      <point x="188.27272727272728" y="630.2121212121212" type="curve" smooth="yes"/>
      <point x="130.8181818181818" y="630.2121212121212"/>
      <point x="80.24242424242425" y="594.0909090909091"/>
      <point x="80.24242424242425" y="526.939393939394" type="curve" smooth="yes"/>
      <point x="80.24242424242425" y="453.8787878787879"/>
      <point x="144.27272727272728" y="421.54545454545456"/>
    </contour>
  </outline>
</glyph>
<glyph name="na-beng" format="2">
  <advance width="498.0"/>
  <unicode hex="09A8"/>
  <anchor x="389.8787878787879" y="67.84848484848484" name="bottom"/>
  <anchor x="403.8181818181818" y="54.24242424242424" name="bottom.rakaar"/>
  <anchor x="403.8181818181818" y="7.0606060606060606" name="bottom.rvocalic"/>
  <anchor x="391.6969696969697" y="1.2727272727272734" name="bottom.virama"/>
  <anchor x="403.8181818181818" y="595.2121212121212" name="top"/>
  <anchor x="406.8181818181818" y="595.2121212121212" name="topright"/>
  <anchor x="248.6060606060606" y="0.0" name="vedic"/>
  <outline>
    <contour>
      <point x="400.3939393939394" y="-5.121212121212121" type="line"/>
      <point x="403.8181818181818" y="-4.121212121212121" type="line"/>
      <point x="403.8181818181818" y="595.2121212121212" type="line"/>
      <point x="519.1212121212121" y="595.2121212121212" type="line"/>
      <point x="500.8787878787879" y="622.0" type="line"/>
      <point x="-21.12121212121212" y="622.0" type="line"/>
      <point x="-2.878787878787879" y="595.2121212121212" type="line"/>
      <point x="374.24242424242425" y="595.2121212121212" type="line"/>
      <point x="374.24242424242425" y="251.72727272727275" type="line" smooth="yes"/>
      <point x="374.24242424242425" y="206.42424242424244"/>
      <point x="377.8787878787879" y="133.93939393939394"/>
      <point x="379.8787878787879" y="94.21212121212122" type="curve"/>
      <point x="385.5151515151515" y="91.87878787878788" type="line"/>
      <point x="379.45454545454544" y="202.3030303030303"/>
      <point x="308.3636363636364" y="400.5151515151515"/>
      <point x="134.0" y="400.5151515151515" type="curve" smooth="yes"/>
      <point x="81.48484848484848" y="400.5151515151515"/>
      <point x="45.878787878787875" y="372.6969696969697"/>
      <point x="45.878787878787875" y="326.1818181818182" type="curve" smooth="yes"/>
      <point x="45.878787878787875" y="285.09090909090907"/>
      <point x="71.0" y="257.7878787878788"/>
      <point x="113.63636363636364" y="257.7878787878788" type="curve" smooth="yes"/>
      <point x="153.72727272727272" y="257.7878787878788"/>
      <point x="177.06060606060606" y="283.54545454545456"/>
      <point x="177.06060606060606" y="319.7878787878788" type="curve" smooth="yes"/>
      <point x="177.06060606060606" y="343.1515151515151"/>
      <point x="168.6969696969697" y="363.8484848484849"/>
      <point x="150.12121212121212" y="372.6969696969697" type="curve"/>
      <point x="133.21212121212122" y="352.72727272727275" type="line"/>
      <point x="139.06060606060606" y="355.3636363636364"/>
      <point x="150.4848484848485" y="358.1515151515151"/>
      <point x="162.6969696969697" y="358.1515151515151" type="curve" smooth="yes"/>
      <point x="307.030303030303" y="358.1515151515151"/>
      <point x="375.24242424242425" y="141.6060606060606"/>
      <point x="377.8787878787879" y="13.121212121212121" type="curve"/>
    </contour>
  </outline>
</glyph>
<glyph name="pa-beng" format="2">
  <advance width="619.969696969697"/>
  <unicode hex="09AA"/>
  <anchor x="510.06060606060606" y="68.69696969696969" name="bottom"/>
  <anchor x="525.7878787878788" y="-14.03030303030303" name="bottom.rakaar"/>
  <anchor x="525.7878787878788" y="-0.4242424242424243" name="bottom.rvocalic"/>
  <anchor x="517.6060606060606" y="5.212121212121212" name="bottom.virama"/>
  <anchor x="525.7878787878788" y="548.1818181818181" name="top"/>
  <anchor x="523.3636363636364" y="561.4545454545455" name="topright"/>
  <anchor x="309.4848484848485" y="0.0" name="vedic"/>
  <outline>
    <contour>
      <point x="522.7878787878788" y="-13.181818181818182" type="line"/>
      <point x="525.7878787878788" y="-12.181818181818182" type="line"/>
      <point x="525.7878787878788" y="595.2121212121212" type="line"/>
      <point x="641.0909090909091" y="595.2121212121212" type="line"/>
      <point x="622.6363636363636" y="622.0" type="line"/>
      <point x="525.7878787878788" y="622.0" type="line"/>
      <point x="522.5757575757576" y="661.8484848484849" type="line"/>
      <point x="500.2121212121212" y="679.0909090909091" type="line"/>
      <point x="496.2121212121212" y="678.0909090909091" type="line"/>
      <point x="496.2121212121212" y="563.8484848484849" type="line" smooth="yes"/>
      <point x="496.2121212121212" y="510.4848484848485"/>
      <point x="497.42424242424244" y="453.27272727272725"/>
      <point x="498.8484848484849" y="397.8484848484849" type="curve"/>
      <point x="506.57575757575756" y="398.030303030303" type="line"/>
      <point x="432.72727272727275" y="534.3030303030303"/>
      <point x="352.57575757575756" y="627.0"/>
      <point x="251.42424242424244" y="627.0" type="curve" smooth="yes"/>
      <point x="160.06060606060606" y="627.0"/>
      <point x="92.45454545454545" y="558.2727272727273"/>
      <point x="26.81818181818182" y="458.09090909090907" type="curve"/>
      <point x="61.36363636363636" y="426.27272727272725" type="line"/>
      <point x="78.0" y="436.9090909090909"/>
      <point x="97.36363636363636" y="447.9090909090909"/>
      <point x="131.5151515151515" y="447.9090909090909" type="curve" smooth="yes"/>
      <point x="187.45454545454544" y="447.9090909090909"/>
      <point x="200.84848484848484" y="406.6969696969697"/>
      <point x="200.84848484848484" y="363.3939393939394" type="curve" smooth="yes"/>
      <point x="200.84848484848484" y="315.6666666666667"/>
      <point x="186.3030303030303" y="278.7878787878788"/>
      <point x="166.4848484848485" y="255.5151515151515" type="curve"/>
      <point x="196.54545454545456" y="225.6060606060606" type="line"/>
      <point x="438.75757575757575" y="479.8484848484849" type="line"/>
      <point x="413.75757575757575" y="508.030303030303" type="line"/>
      <point x="202.66666666666666" y="285.27272727272725" type="line"/>
      <point x="207.3030303030303" y="275.24242424242425" type="line"/>
      <point x="220.87878787878788" y="299.45454545454544"/>
      <point x="227.45454545454547" y="339.57575757575756"/>
      <point x="227.45454545454547" y="369.8181818181818" type="curve" smooth="yes"/>
      <point x="227.45454545454547" y="433.3939393939394"/>
      <point x="195.8181818181818" y="479.9090909090909"/>
      <point x="133.15151515151516" y="479.9090909090909" type="curve" smooth="yes"/>
      <point x="97.27272727272728" y="479.9090909090909"/>
      <point x="75.06060606060606" y="466.1818181818182"/>
      <point x="61.78787878787879" y="456.969696969697" type="curve"/>
      <point x="70.81818181818181" y="450.27272727272725" type="line"/>
      <point x="134.42424242424244" y="547.0909090909091"/>
      <point x="194.21212121212122" y="592.5454545454545"/>
      <point x="258.030303030303" y="592.5454545454545" type="curve" smooth="yes"/>
      <point x="352.54545454545456" y="592.5454545454545"/>
      <point x="429.5151515151515" y="488.3939393939394"/>
      <point x="503.0" y="357.6363636363636" type="curve"/>
      <point x="496.2121212121212" y="390.72727272727275" type="line"/>
      <point x="496.2121212121212" y="3.0" type="line"/>
    </contour>
  </outline>
</glyph>
